G04 #@! TF.GenerationSoftware,KiCad,Pcbnew,(5.1.2)-2*
G04 #@! TF.CreationDate,2020-04-07T11:29:11-03:00*
G04 #@! TF.ProjectId,controller,636f6e74-726f-46c6-9c65-722e6b696361,rev?*
G04 #@! TF.SameCoordinates,Original*
G04 #@! TF.FileFunction,Copper,L1,Top*
G04 #@! TF.FilePolarity,Positive*
%FSLAX46Y46*%
G04 Gerber Fmt 4.6, Leading zero omitted, Abs format (unit mm)*
G04 Created by KiCad (PCBNEW (5.1.2)-2) date 2020-04-07 11:29:11*
%MOMM*%
%LPD*%
G04 APERTURE LIST*
%ADD10C,1.400000*%
%ADD11O,1.400000X1.400000*%
%ADD12R,1.300000X1.300000*%
%ADD13C,1.300000*%
%ADD14R,1.879600X1.879600*%
%ADD15C,1.879600*%
%ADD16C,2.000000*%
%ADD17R,2.100000X2.100000*%
%ADD18C,2.100000*%
%ADD19R,1.600000X2.400000*%
%ADD20O,1.600000X2.400000*%
%ADD21C,1.600000*%
%ADD22R,1.727200X1.727200*%
%ADD23O,1.727200X1.727200*%
%ADD24C,1.625600*%
%ADD25C,1.651000*%
%ADD26C,1.800000*%
%ADD27C,4.000000*%
%ADD28R,1.700000X1.700000*%
%ADD29O,1.700000X1.700000*%
%ADD30R,1.600000X1.600000*%
%ADD31O,1.600000X1.600000*%
%ADD32R,2.200000X2.200000*%
%ADD33O,2.200000X2.200000*%
%ADD34O,1.500000X1.050000*%
%ADD35R,1.500000X1.050000*%
%ADD36R,2.400000X2.400000*%
%ADD37C,2.400000*%
%ADD38R,1.800000X2.500000*%
%ADD39O,1.800000X2.500000*%
%ADD40C,3.200000*%
%ADD41C,1.440000*%
%ADD42C,0.800000*%
%ADD43C,0.750000*%
%ADD44C,0.500000*%
%ADD45C,1.000000*%
%ADD46C,3.000000*%
%ADD47C,2.000000*%
%ADD48C,1.500000*%
%ADD49C,2.500000*%
%ADD50C,0.400000*%
%ADD51C,0.330000*%
%ADD52C,0.250000*%
G04 APERTURE END LIST*
D10*
X-19677380Y-17371060D03*
D11*
X-27297380Y-17371060D03*
D12*
X62806580Y20949920D03*
D13*
X65346580Y20949920D03*
X67886580Y20949920D03*
X70426580Y20949920D03*
D14*
X31998920Y920D03*
D15*
X29458920Y920D03*
X26918920Y920D03*
X24378920Y920D03*
X21838920Y920D03*
X19298920Y920D03*
X16758920Y920D03*
X14218920Y920D03*
X11678920Y920D03*
X9138920Y920D03*
X6598920Y920D03*
X4058920Y920D03*
X1518920Y920D03*
X-1018540Y920D03*
X-3558540Y920D03*
X-6098540Y920D03*
D16*
X-80032880Y5182280D03*
X-60032880Y5182280D03*
X-60032880Y-39817720D03*
X-80032880Y-39817720D03*
D17*
X11498580Y38364160D03*
D18*
X6418580Y38364160D03*
X1338580Y38364160D03*
D10*
X64091820Y11866880D03*
D11*
X64091820Y4246880D03*
X61473080Y11871960D03*
D10*
X61473080Y4251960D03*
D11*
X52207160Y7353300D03*
D10*
X52207160Y-266700D03*
D19*
X56375300Y-274320D03*
D20*
X63995300Y-7894320D03*
X58915300Y-274320D03*
X61455300Y-7894320D03*
X61455300Y-274320D03*
X58915300Y-7894320D03*
X63995300Y-274320D03*
X56375300Y-7894320D03*
D21*
X56073040Y4348480D03*
X56073040Y6848480D03*
D10*
X58912760Y4244340D03*
D11*
X58912760Y11864340D03*
D15*
X-38696800Y-15808960D03*
X-38696800Y-5648960D03*
X-38696800Y-18348960D03*
X-38696800Y-8188960D03*
X-38696800Y-10728960D03*
X-38696800Y-13268960D03*
D21*
X-9560560Y4518660D03*
X-9560560Y2018660D03*
X-42471340Y4726940D03*
X-42471340Y7226940D03*
X-42471340Y9420220D03*
X-42471340Y11920220D03*
D22*
X-26085800Y28173680D03*
D23*
X-26085800Y25633680D03*
X-23545800Y28173680D03*
X-23545800Y25633680D03*
X-21005800Y28173680D03*
X-21005800Y25633680D03*
D11*
X-32510000Y-26680000D03*
D10*
X-24890000Y-26680000D03*
X-9550400Y7101840D03*
D11*
X-9550400Y14721840D03*
D24*
X-27282140Y-13276580D03*
X-27282140Y-10736580D03*
X-27282140Y-8196580D03*
X-27282140Y-5656580D03*
X-27282140Y-3116580D03*
X-27282140Y-576580D03*
X-27282140Y1963420D03*
X-27282140Y4503420D03*
X-27282140Y7043420D03*
X-27282140Y9583420D03*
X-27282140Y12123420D03*
X-27282140Y14663420D03*
X-27282140Y17203420D03*
X-27282140Y19743420D03*
X-19662140Y19743420D03*
X-19662140Y17203420D03*
X-19662140Y14663420D03*
X-19662140Y12123420D03*
X-19662140Y9583420D03*
X-19662140Y7043420D03*
X-19662140Y4503420D03*
X-19662140Y1963420D03*
X-19662140Y-576580D03*
X-19662140Y-3116580D03*
X-19662140Y-5656580D03*
X-19662140Y-8196580D03*
X-19662140Y-10736580D03*
X-19662140Y-13276580D03*
D25*
X-38193980Y10861040D03*
X-38193980Y5781040D03*
D26*
X42000000Y-31000000D03*
X39500000Y-31000000D03*
X37000000Y-31000000D03*
D27*
X43900000Y-38000000D03*
X35100000Y-38000000D03*
D26*
X-37500000Y-31000000D03*
X-40000000Y-31000000D03*
X-42500000Y-31000000D03*
D27*
X-35600000Y-38000000D03*
X-44400000Y-38000000D03*
X-17900000Y-38000000D03*
X-9100000Y-38000000D03*
D26*
X-16000000Y-31000000D03*
X-13500000Y-31000000D03*
X-11000000Y-31000000D03*
X16000000Y-31000000D03*
X13500000Y-31000000D03*
X11000000Y-31000000D03*
D27*
X17900000Y-38000000D03*
X9100000Y-38000000D03*
D28*
X-31262320Y-13268960D03*
D29*
X-33802320Y-13268960D03*
X-31262320Y-10728960D03*
X-33802320Y-10728960D03*
X-31262320Y-8188960D03*
X-33802320Y-8188960D03*
X-31262320Y-5648960D03*
X-33802320Y-5648960D03*
X-31262320Y-3108960D03*
X-33802320Y-3108960D03*
X-31262320Y-568960D03*
X-33802320Y-568960D03*
X-31262320Y1971040D03*
X-33802320Y1971040D03*
X-31262320Y4511040D03*
X-33802320Y4511040D03*
X-31262320Y7051040D03*
X-33802320Y7051040D03*
X-31262320Y9591040D03*
X-33802320Y9591040D03*
X-31262320Y12131040D03*
X-33802320Y12131040D03*
X-31262320Y14671040D03*
X-33802320Y14671040D03*
X-31262320Y17211040D03*
X-33802320Y17211040D03*
X-31262320Y19751040D03*
X-33802320Y19751040D03*
D28*
X-13253720Y-13268960D03*
D29*
X-15793720Y-13268960D03*
X-13253720Y-10728960D03*
X-15793720Y-10728960D03*
X-13253720Y-8188960D03*
X-15793720Y-8188960D03*
X-13253720Y-5648960D03*
X-15793720Y-5648960D03*
X-13253720Y-3108960D03*
X-15793720Y-3108960D03*
X-13253720Y-568960D03*
X-15793720Y-568960D03*
X-13253720Y1971040D03*
X-15793720Y1971040D03*
X-13253720Y4511040D03*
X-15793720Y4511040D03*
X-13253720Y7051040D03*
X-15793720Y7051040D03*
X-13253720Y9591040D03*
X-15793720Y9591040D03*
X-13253720Y12131040D03*
X-15793720Y12131040D03*
X-13253720Y14671040D03*
X-15793720Y14671040D03*
X-13253720Y17211040D03*
X-15793720Y17211040D03*
X-13253720Y19751040D03*
X-15793720Y19751040D03*
D21*
X-71221600Y-43157140D03*
X-68721600Y-43157140D03*
D30*
X80230980Y28757880D03*
D31*
X72610980Y42057880D03*
X77690980Y28757880D03*
X75150980Y42057880D03*
X75150980Y28757880D03*
X77690980Y42057880D03*
X72610980Y28757880D03*
X80230980Y42057880D03*
D32*
X-74693780Y24257000D03*
D33*
X-64533780Y24257000D03*
D28*
X68737480Y28747720D03*
D29*
X68737480Y31287720D03*
D34*
X64203580Y-29735780D03*
X64203580Y-31005780D03*
D35*
X64203580Y-28465780D03*
D10*
X68930520Y-22105620D03*
D11*
X68930520Y-29725620D03*
D17*
X59113420Y-38900000D03*
D18*
X64193420Y-38900000D03*
D17*
X-73474580Y38717220D03*
D18*
X-78554580Y38717220D03*
X76098459Y-14587799D03*
D17*
X76098459Y-19667799D03*
X76095860Y-31879540D03*
D18*
X76095860Y-26799540D03*
D11*
X68920360Y-12031980D03*
D10*
X68920360Y-19651980D03*
D36*
X-59634120Y18468340D03*
D37*
X-59634120Y10968340D03*
X-74683620Y10960720D03*
D36*
X-74683620Y18460720D03*
D17*
X33719279Y38377279D03*
D18*
X28639279Y38377279D03*
X23559279Y38377279D03*
X18479279Y38377279D03*
D17*
X-5560000Y38360000D03*
D18*
X-10640000Y38360000D03*
X76070519Y-2131839D03*
D17*
X76070519Y-7211839D03*
X76062899Y5135161D03*
D18*
X76062899Y10215161D03*
D10*
X68663820Y-7226300D03*
D11*
X68663820Y393700D03*
X68737480Y12712700D03*
D10*
X68737480Y5092700D03*
D17*
X-18980260Y38321620D03*
D18*
X-24060260Y38321620D03*
X-29140260Y38321620D03*
X-34220260Y38321620D03*
D17*
X-48823880Y38717220D03*
D18*
X-53903880Y38717220D03*
D17*
X-61239400Y38717220D03*
D18*
X-66319400Y38717220D03*
D38*
X-32499300Y-22098920D03*
D39*
X-29959300Y-22098920D03*
X-27419300Y-22098920D03*
X-24879300Y-22098920D03*
X-22339300Y-22098920D03*
X-19799300Y-22098920D03*
X-17259300Y-22098920D03*
X-14719300Y-22098920D03*
X-12179300Y-22098920D03*
X-9639300Y-22098920D03*
X-7099300Y-22098920D03*
X-4559300Y-22098920D03*
X-2019300Y-22098920D03*
X520700Y-22098920D03*
X3060700Y-22098920D03*
X5600700Y-22098920D03*
X8140700Y-22098920D03*
X10680700Y-22098920D03*
X13220700Y-22098920D03*
X15760700Y-22098920D03*
D40*
X-43500000Y-22100000D03*
X43500000Y-22100000D03*
X-43500000Y41900000D03*
X43500000Y41900000D03*
D41*
X13210000Y-15630000D03*
X10670000Y-15630000D03*
X8130000Y-15630000D03*
D42*
X561040Y12131040D03*
X21758960Y12131040D03*
X13100000Y16190000D03*
X40661040Y-13268960D03*
X40660000Y4122740D03*
X31851040Y-8188960D03*
X-9740000Y-17410000D03*
X-7450000Y-16970000D03*
X591040Y9591040D03*
X-15210000Y23180000D03*
X-16180000Y24200000D03*
X3950000Y17270000D03*
X-1271040Y19751040D03*
X59550000Y-14210000D03*
X58220000Y-18100000D03*
X-7221041Y-1858959D03*
X41861041Y-1858959D03*
D43*
X-13253720Y4511040D02*
X-15793720Y4511040D01*
X-19654520Y4511040D02*
X-19662140Y4503420D01*
X-15793720Y4511040D02*
X-19654520Y4511040D01*
X-9568180Y4511040D02*
X-9560560Y4518660D01*
X-13253720Y4511040D02*
X-9568180Y4511040D01*
X-9550400Y4528820D02*
X-9560560Y4518660D01*
X-9550400Y7101840D02*
X-9550400Y4528820D01*
D44*
X-15801340Y1963420D02*
X-15793720Y1971040D01*
D43*
X-13253720Y1971040D02*
X-15793720Y1971040D01*
X-19654520Y1971040D02*
X-19662140Y1963420D01*
X-15793720Y1971040D02*
X-19654520Y1971040D01*
X-33802320Y4511040D02*
X-31262320Y4511040D01*
X-31254700Y4503420D02*
X-31262320Y4511040D01*
X-27282140Y4503420D02*
X-31254700Y4503420D01*
X-42471340Y9420220D02*
X-42471340Y7226940D01*
D45*
X-38696800Y-15808960D02*
X-38696800Y-18348960D01*
D43*
X-27282140Y4503420D02*
X-24645620Y4503420D01*
X-22105620Y1963420D02*
X-19662140Y1963420D01*
X-24645620Y4503420D02*
X-22105620Y1963420D01*
D46*
X-59641740Y10960720D02*
X-59634120Y10968340D01*
X-59634120Y5581040D02*
X-60032880Y5182280D01*
X-59634120Y10968340D02*
X-59634120Y5581040D01*
X-60032880Y-38403507D02*
X-60032880Y5182280D01*
X-60032880Y-39817720D02*
X-60032880Y-38403507D01*
X-74683620Y10960720D02*
X-69489280Y10960720D01*
X-69489280Y10960720D02*
X-59641740Y10960720D01*
X-78554580Y36024580D02*
X-78554580Y38717220D01*
X-69489280Y26959280D02*
X-78554580Y36024580D01*
D47*
X-63372300Y-43157140D02*
X-60032880Y-39817720D01*
X-68721600Y-43157140D02*
X-63372300Y-43157140D01*
D43*
X-9608180Y1971040D02*
X-9560560Y2018660D01*
X-13253720Y1971040D02*
X-9608180Y1971040D01*
D48*
X79420000Y-12751182D02*
X79420000Y-12230000D01*
X77583383Y-14587799D02*
X79420000Y-12751182D01*
X76098459Y-14587799D02*
X77583383Y-14587799D01*
X79420000Y-1900000D02*
X79420000Y-12230000D01*
X79188161Y-2131839D02*
X76070519Y-2131839D01*
X79420000Y-1900000D02*
X79188161Y-2131839D01*
X79420000Y8342984D02*
X79420000Y-1900000D01*
X80230980Y30299020D02*
X80230980Y28757880D01*
X79242280Y31287720D02*
X80230980Y30299020D01*
X68737480Y31287720D02*
X79242280Y31287720D01*
X1338580Y38364160D02*
X1338580Y41118580D01*
X1338580Y41118580D02*
X2760000Y42540000D01*
X2760000Y42540000D02*
X17340000Y42540000D01*
X16000000Y-22338220D02*
X15760700Y-22098920D01*
X16000000Y-31000000D02*
X16000000Y-22338220D01*
X-37500000Y-19545760D02*
X-38696800Y-18348960D01*
X-37500000Y-31000000D02*
X-37500000Y-19545760D01*
X-29210000Y-31000000D02*
X-24890000Y-26680000D01*
X-37500000Y-31000000D02*
X-29210000Y-31000000D01*
D43*
X64791819Y11166881D02*
X64091820Y11866880D01*
X65743539Y10215161D02*
X64791819Y11166881D01*
X76062899Y10215161D02*
X65743539Y10215161D01*
D48*
X80230980Y21580980D02*
X80230980Y28757880D01*
X79420000Y20770000D02*
X80230980Y21580980D01*
X79155161Y10215161D02*
X79420000Y10480000D01*
X76062899Y10215161D02*
X79155161Y10215161D01*
X79420000Y8342984D02*
X79420000Y10480000D01*
X79420000Y10480000D02*
X79420000Y20770000D01*
X48272280Y31287720D02*
X68737480Y31287720D01*
X37020000Y42540000D02*
X48272280Y31287720D01*
X18479279Y42360721D02*
X18300000Y42540000D01*
X18479279Y38377279D02*
X18479279Y42360721D01*
X17340000Y42540000D02*
X18300000Y42540000D01*
X18300000Y42540000D02*
X37020000Y42540000D01*
D43*
X70298161Y-2131839D02*
X76070519Y-2131839D01*
X65452819Y-2131839D02*
X70298161Y-2131839D01*
X63995300Y-674320D02*
X65452819Y-2131839D01*
X63995300Y-274320D02*
X63995300Y-674320D01*
X-33802320Y4511040D02*
X-36728960Y4511040D01*
X-36728960Y4511040D02*
X-38180000Y3060000D01*
X-42471340Y7226940D02*
X-44813060Y7226940D01*
X-44813060Y7226940D02*
X-45790000Y6250000D01*
X-45790000Y6250000D02*
X-45790000Y3840000D01*
X-45010000Y3060000D02*
X-38180000Y3060000D01*
X-45790000Y3840000D02*
X-45010000Y3060000D01*
X-21005800Y25633680D02*
X-8926320Y25633680D01*
D45*
X64203580Y-28465780D02*
X64203580Y-20416420D01*
X70032201Y-14587799D02*
X76098459Y-14587799D01*
X64203580Y-20416420D02*
X70032201Y-14587799D01*
D46*
X-69603620Y16040720D02*
X-69489280Y16040720D01*
X-74683620Y10960720D02*
X-69603620Y16040720D01*
X-69489280Y16040720D02*
X-69489280Y26959280D01*
D48*
X1334420Y38360000D02*
X1338580Y38364160D01*
X-5560000Y38360000D02*
X1334420Y38360000D01*
D43*
X-5560000Y29000000D02*
X-8045000Y26515000D01*
X-5560000Y38360000D02*
X-5560000Y29000000D01*
X-8926320Y25633680D02*
X-8045000Y26515000D01*
D49*
X-59634120Y10968340D02*
X-51991660Y10968340D01*
X-34220260Y28739740D02*
X-34220260Y38321620D01*
X-51991660Y10968340D02*
X-34220260Y28739740D01*
D43*
X-31254700Y-13276580D02*
X-31262320Y-13268960D01*
X-27282140Y-13276580D02*
X-31254700Y-13276580D01*
X-31262320Y-13268960D02*
X-33802320Y-13268960D01*
X-27287220Y-13281660D02*
X-27282140Y-13276580D01*
X-27282140Y-17355820D02*
X-27297380Y-17371060D01*
X-27282140Y-13276580D02*
X-27282140Y-17355820D01*
X-15801340Y7043420D02*
X-15793720Y7051040D01*
X-19662140Y7043420D02*
X-15801340Y7043420D01*
X-15793720Y7051040D02*
X-13253720Y7051040D01*
D45*
X-31254700Y1963420D02*
X-31262320Y1971040D01*
X-27282140Y1963420D02*
X-31254700Y1963420D01*
X-32771080Y1971040D02*
X-33802320Y1971040D01*
X-31262320Y1971040D02*
X-32771080Y1971040D01*
D47*
X-76693460Y-43157140D02*
X-80032880Y-39817720D01*
X-71221600Y-43157140D02*
X-76693460Y-43157140D01*
D45*
X67886580Y21869158D02*
X67886580Y20949920D01*
X68887422Y22870000D02*
X67886580Y21869158D01*
X77620000Y22870000D02*
X68887422Y22870000D01*
X77690980Y22940980D02*
X77620000Y22870000D01*
X77690980Y22656149D02*
X77690980Y23950980D01*
X68737480Y13702649D02*
X77690980Y22656149D01*
X68737480Y12712700D02*
X68737480Y13702649D01*
X77690980Y28757880D02*
X77690980Y23950980D01*
X77690980Y23950980D02*
X77690980Y22940980D01*
D48*
X-37367723Y-13268960D02*
X-38696800Y-13268960D01*
X-29959300Y-22098920D02*
X-29959300Y-20677383D01*
X-29959300Y-20677383D02*
X-31368342Y-19268342D01*
X-31368342Y-19268342D02*
X-37367723Y-13268960D01*
X-21574662Y-19268342D02*
X-19677380Y-17371060D01*
X-31368342Y-19268342D02*
X-21574662Y-19268342D01*
X56008840Y-33530000D02*
X59113420Y-36634580D01*
X37000000Y-33390000D02*
X37140000Y-33530000D01*
X37000000Y-31000000D02*
X37000000Y-33390000D01*
X37140000Y-33530000D02*
X56008840Y-33530000D01*
X11000000Y-33320000D02*
X10790000Y-33530000D01*
X11000000Y-31000000D02*
X11000000Y-33320000D01*
X10790000Y-33530000D02*
X37140000Y-33530000D01*
X-42500000Y-32272792D02*
X-42500000Y-31000000D01*
X-41242792Y-33530000D02*
X-42500000Y-32272792D01*
X-16000000Y-33310000D02*
X-16220000Y-33530000D01*
X-16000000Y-31000000D02*
X-16000000Y-33310000D01*
X10790000Y-33530000D02*
X-16220000Y-33530000D01*
X-16220000Y-33530000D02*
X-41242792Y-33530000D01*
D43*
X-11663730Y8641030D02*
X-5821030Y8641030D01*
X-13253720Y7051040D02*
X-11663730Y8641030D01*
X-3558540Y6378540D02*
X-5821030Y8641030D01*
X-3558540Y920D02*
X-3558540Y6378540D01*
D48*
X-38696800Y-13268960D02*
X-43078960Y-13268960D01*
X-43078960Y-13268960D02*
X-47450000Y-17640000D01*
X-47450000Y-26050000D02*
X-42500000Y-31000000D01*
X-47450000Y-17640000D02*
X-47450000Y-26050000D01*
D43*
X-35004401Y1971040D02*
X-33802320Y1971040D01*
X-35008822Y1975461D02*
X-35004401Y1971040D01*
X-39244539Y1975461D02*
X-35008822Y1975461D01*
X-43078960Y-1858960D02*
X-39244539Y1975461D01*
D48*
X56008840Y-24943500D02*
X68920360Y-12031980D01*
X56008840Y-33530000D02*
X56008840Y-24943500D01*
X59113420Y-38900000D02*
X59113420Y-36634580D01*
D45*
X-43078960Y-13268960D02*
X-43078960Y-1858960D01*
X-48290000Y3352080D02*
X-43078960Y-1858960D01*
D43*
X-48290000Y3352080D02*
X-48290000Y9610000D01*
X-32266320Y25633680D02*
X-26085800Y25633680D01*
X-48290000Y9610000D02*
X-32266320Y25633680D01*
X-13253720Y12131040D02*
X-15793720Y12131040D01*
X-19654520Y12131040D02*
X-19662140Y12123420D01*
X-15793720Y12131040D02*
X-19654520Y12131040D01*
D50*
X-24809401Y26227411D02*
X-24809401Y14549401D01*
X-26085800Y28173680D02*
X-26085800Y27503810D01*
X-26085800Y27503810D02*
X-24809401Y26227411D01*
X-22383420Y12123420D02*
X-19662140Y12123420D01*
X-24809401Y14549401D02*
X-22383420Y12123420D01*
D43*
X-13253720Y12131040D02*
X561040Y12131040D01*
X24378920Y920D02*
X24378920Y9511080D01*
X24378920Y9511080D02*
X21758960Y12131040D01*
X21758960Y12131040D02*
X21758960Y12131040D01*
X-15801340Y14663420D02*
X-15793720Y14671040D01*
X-19662140Y14663420D02*
X-15801340Y14663420D01*
X-15793720Y14671040D02*
X-13253720Y14671040D01*
D50*
X-23545800Y25633680D02*
X-23545800Y16185800D01*
X-22023420Y14663420D02*
X-19662140Y14663420D01*
X-23545800Y16185800D02*
X-22023420Y14663420D01*
D44*
X19298920Y9991080D02*
X13100000Y16190000D01*
X19298920Y920D02*
X19298920Y9991080D01*
D43*
X-33802320Y-5648960D02*
X-31262320Y-5648960D01*
X-27289760Y-5648960D02*
X-27282140Y-5656580D01*
X-31262320Y-5648960D02*
X-27289760Y-5648960D01*
D50*
X35169279Y38377279D02*
X33719279Y38377279D01*
X-27282140Y-5656580D02*
X-24596580Y-5656580D01*
X-24596580Y-5656580D02*
X-23338959Y-4398959D01*
X-23338959Y-4398959D02*
X45281041Y-4398959D01*
X45281041Y-4398959D02*
X47620000Y-2060000D01*
X47620000Y-2060000D02*
X47620000Y25926558D01*
X47620000Y25926558D02*
X35169279Y38377279D01*
D43*
X-31254700Y-3116580D02*
X-31262320Y-3108960D01*
X-31262320Y-3108960D02*
X-33802320Y-3108960D01*
X-28576580Y-3116580D02*
X-31254700Y-3116580D01*
X-27282140Y-3116580D02*
X-28576580Y-3116580D01*
D50*
X-23206580Y-3116580D02*
X-28576580Y-3116580D01*
X-10671041Y-1858959D02*
X-21948959Y-1858959D01*
X28639279Y38377279D02*
X28639279Y33990721D01*
X-21948959Y-1858959D02*
X-23206580Y-3116580D01*
X28639279Y33990721D02*
X45490000Y17140000D01*
X45490000Y17140000D02*
X45490000Y-2190000D01*
X45490000Y-2190000D02*
X44460000Y-3220000D01*
X44460000Y-3220000D02*
X-9310000Y-3220000D01*
X-9310000Y-3220000D02*
X-10671041Y-1858959D01*
D43*
X-33802320Y12131040D02*
X-31262320Y12131040D01*
X-31254700Y12123420D02*
X-31262320Y12131040D01*
X-27282140Y12123420D02*
X-31254700Y12123420D01*
X-27289760Y14671040D02*
X-27282140Y14663420D01*
X-31262320Y14671040D02*
X-27289760Y14671040D01*
X-33802320Y14671040D02*
X-31262320Y14671040D01*
D44*
X-15801340Y-10736580D02*
X-15793720Y-10728960D01*
D43*
X-13253720Y-10728960D02*
X-15793720Y-10728960D01*
X-19654520Y-10728960D02*
X-19662140Y-10736580D01*
X-15793720Y-10728960D02*
X-19654520Y-10728960D01*
X56375300Y4046220D02*
X56073040Y4348480D01*
X56375300Y-274320D02*
X56375300Y4046220D01*
X56367680Y-266700D02*
X56375300Y-274320D01*
X52207160Y-266700D02*
X56367680Y-266700D01*
X-12051639Y-10728960D02*
X-13253720Y-10728960D01*
X41744900Y-10728960D02*
X43511930Y-8961930D01*
X38948960Y-10728960D02*
X41744900Y-10728960D01*
X38948960Y-10728960D02*
X-12051639Y-10728960D01*
X40754951Y-10728960D02*
X38948960Y-10728960D01*
X75150980Y27626510D02*
X72024470Y24500000D01*
X75150980Y28757880D02*
X75150980Y27626510D01*
X72024470Y24500000D02*
X54110000Y24500000D01*
X49566930Y19956930D02*
X49566930Y-2906930D01*
X54110000Y24500000D02*
X49566930Y19956930D01*
X52207160Y-266700D02*
X49566930Y-2906930D01*
X49566930Y-2906930D02*
X43511930Y-8961930D01*
X-15801340Y-13276580D02*
X-15793720Y-13268960D01*
X-19662140Y-13276580D02*
X-15801340Y-13276580D01*
X-15793720Y-13268960D02*
X-13253720Y-13268960D01*
X-13253720Y-13268960D02*
X40661040Y-13268960D01*
X40661040Y-13268960D02*
X40661040Y-13268960D01*
X6418580Y38364160D02*
X40660000Y4122740D01*
X40660000Y4122740D02*
X40660000Y4122740D01*
X-33802320Y7051040D02*
X-31262320Y7051040D01*
X-31254700Y7043420D02*
X-31262320Y7051040D01*
X-27282140Y7043420D02*
X-31254700Y7043420D01*
D44*
X-36923980Y7051040D02*
X-38193980Y5781040D01*
X-33802320Y7051040D02*
X-36923980Y7051040D01*
X-39248080Y4726940D02*
X-38193980Y5781040D01*
X-42471340Y4726940D02*
X-39248080Y4726940D01*
D43*
X-33802320Y9591040D02*
X-31262320Y9591040D01*
X-31254700Y9583420D02*
X-31262320Y9591040D01*
X-27282140Y9583420D02*
X-31254700Y9583420D01*
D44*
X-36923980Y9591040D02*
X-38193980Y10861040D01*
X-33802320Y9591040D02*
X-36923980Y9591040D01*
X-39253160Y11920220D02*
X-38193980Y10861040D01*
X-42471340Y11920220D02*
X-39253160Y11920220D01*
D43*
X-15801340Y-8196580D02*
X-15793720Y-8188960D01*
X-19662140Y-8196580D02*
X-15801340Y-8196580D01*
X-15793720Y-8188960D02*
X-13253720Y-8188960D01*
X-13253720Y-8188960D02*
X31851040Y-8188960D01*
D44*
X-15801340Y-5656580D02*
X-15793720Y-5648960D01*
D43*
X-13253720Y-5648960D02*
X-15793720Y-5648960D01*
X-19654520Y-5648960D02*
X-19662140Y-5656580D01*
X-15793720Y-5648960D02*
X-19654520Y-5648960D01*
X-13261340Y-3116580D02*
X-13253720Y-3108960D01*
X-15801340Y-3116580D02*
X-15793720Y-3108960D01*
X-19662140Y-3116580D02*
X-15801340Y-3116580D01*
X-15793720Y-3108960D02*
X-13253720Y-3108960D01*
D51*
X-10139999Y-17809999D02*
X-9740000Y-17410000D01*
X-10904310Y-18574310D02*
X-10139999Y-17809999D01*
X-13500000Y-29301380D02*
X-10904310Y-26705690D01*
X-13500000Y-31000000D02*
X-13500000Y-29301380D01*
X-10904310Y-26705690D02*
X-10904310Y-18574310D01*
D44*
X-15801340Y-576580D02*
X-15793720Y-568960D01*
D43*
X-13261340Y-576580D02*
X-13253720Y-568960D01*
X-13253720Y-568960D02*
X-15793720Y-568960D01*
X-19654520Y-568960D02*
X-19662140Y-576580D01*
X-15793720Y-568960D02*
X-19654520Y-568960D01*
D51*
X-5824310Y-18595690D02*
X-7450000Y-16970000D01*
D52*
X-5824310Y-21864310D02*
X-5824310Y-25225690D01*
D51*
X-5824310Y-20874310D02*
X-5824310Y-25225690D01*
X-5824310Y-20874310D02*
X-5824310Y-18595690D01*
X-5824310Y-21864310D02*
X-5824310Y-20874310D01*
X13500000Y-29727208D02*
X13500000Y-31000000D01*
X10952792Y-27180000D02*
X13500000Y-29727208D01*
X-5824310Y-25225690D02*
X-3870000Y-27180000D01*
X-3870000Y-27180000D02*
X10952792Y-27180000D01*
D46*
X-74693780Y18470880D02*
X-74683620Y18460720D01*
X-74693780Y24257000D02*
X-74693780Y18470880D01*
X-80032880Y13111460D02*
X-74683620Y18460720D01*
X-80032880Y5182280D02*
X-80032880Y13111460D01*
X-64533780Y24257000D02*
X-60093000Y24257000D01*
X-60093000Y24257000D02*
X-59634120Y23798120D01*
X-59634120Y23798120D02*
X-59634120Y18468340D01*
X-60093000Y24257000D02*
X-55623000Y24257000D01*
X-48823880Y31056120D02*
X-48823880Y38717220D01*
X-55623000Y24257000D02*
X-48823880Y31056120D01*
X-37060000Y42820000D02*
X-55623000Y24257000D01*
X-29140260Y38321620D02*
X-29140260Y39810260D01*
X-32150000Y42820000D02*
X-37060000Y42820000D01*
X-29140260Y39810260D02*
X-32150000Y42820000D01*
X-73474580Y38717220D02*
X-66319400Y38717220D01*
D43*
X58915300Y4241800D02*
X58912760Y4244340D01*
X58915300Y-274320D02*
X58915300Y4241800D01*
X58912760Y4244340D02*
X58912760Y5827240D01*
X57891520Y6848480D02*
X56073040Y6848480D01*
X58912760Y5827240D02*
X57891520Y6848480D01*
X52711980Y6848480D02*
X52207160Y7353300D01*
X56073040Y6848480D02*
X52711980Y6848480D01*
X-15801340Y9583420D02*
X-15793720Y9591040D01*
X-19662140Y9583420D02*
X-15801340Y9583420D01*
X-15793720Y9591040D02*
X-13253720Y9591040D01*
X68779941Y5135161D02*
X68737480Y5092700D01*
X76062899Y5135161D02*
X68779941Y5135161D01*
X-13253720Y9591040D02*
X591040Y9591040D01*
D45*
X72595740Y28773120D02*
X72610980Y28757880D01*
D43*
X72600820Y28747720D02*
X72610980Y28757880D01*
X68737480Y28747720D02*
X72600820Y28747720D01*
X68920360Y-29735780D02*
X68930520Y-29725620D01*
X64203580Y-29735780D02*
X68920360Y-29735780D01*
X64203580Y-39174420D02*
X64193420Y-39184580D01*
D45*
X64193420Y-31015940D02*
X64203580Y-31005780D01*
X64193420Y-38900000D02*
X64193420Y-31015940D01*
D43*
X58912760Y11864340D02*
X58912760Y13412760D01*
X65346580Y19846580D02*
X65346580Y20949920D01*
X58912760Y13412760D02*
X65346580Y19846580D01*
X70426580Y20949920D02*
X70426580Y18506580D01*
X70426580Y18506580D02*
X68660000Y16740000D01*
X68660000Y16740000D02*
X63820000Y16740000D01*
X61473080Y14393080D02*
X61473080Y11871960D01*
X63820000Y16740000D02*
X61473080Y14393080D01*
X61478160Y4246880D02*
X61473080Y4251960D01*
X64091820Y4246880D02*
X61478160Y4246880D01*
X61455300Y4234180D02*
X61473080Y4251960D01*
X61455300Y-274320D02*
X61455300Y4234180D01*
X71401940Y-22105620D02*
X76095860Y-26799540D01*
X68930520Y-22105620D02*
X71401940Y-22105620D01*
X-33802320Y17211040D02*
X-31262320Y17211040D01*
X-31254700Y17203420D02*
X-31262320Y17211040D01*
X-27282140Y17203420D02*
X-31254700Y17203420D01*
D44*
X-15210000Y23180000D02*
X-10140000Y23180000D01*
X-1018540Y920D02*
X-1018540Y1691460D01*
X-1018540Y1691460D02*
X2060000Y4770000D01*
X2060000Y4770000D02*
X2060000Y12530000D01*
X-8590000Y23180000D02*
X-10140000Y23180000D01*
X2060000Y12530000D02*
X-8590000Y23180000D01*
D43*
X-31254700Y19743420D02*
X-31262320Y19751040D01*
X-27282140Y19743420D02*
X-31254700Y19743420D01*
X-31262320Y19751040D02*
X-33802320Y19751040D01*
D44*
X3233910Y1715910D02*
X3233910Y12916090D01*
X1518920Y920D02*
X3233910Y1715910D01*
X-8050000Y24200000D02*
X-16180000Y24200000D01*
X3233910Y12916090D02*
X-8050000Y24200000D01*
D43*
X-15801340Y17203420D02*
X-15793720Y17211040D01*
X-19662140Y17203420D02*
X-15801340Y17203420D01*
X-15793720Y17211040D02*
X-13253720Y17211040D01*
X6598920Y920D02*
X6598920Y14621080D01*
X6598920Y14621080D02*
X3950000Y17270000D01*
X3950000Y17270000D02*
X3950000Y17270000D01*
X-15801340Y19743420D02*
X-15793720Y19751040D01*
X-19662140Y19743420D02*
X-15801340Y19743420D01*
X-15793720Y19751040D02*
X-13253720Y19751040D01*
X4058920Y14421080D02*
X4058920Y920D01*
X-1271040Y19751040D02*
X4058920Y14421080D01*
X-1271040Y19751040D02*
X-1271040Y19751040D01*
X-31254700Y-8196580D02*
X-31262320Y-8188960D01*
X-27282140Y-8196580D02*
X-31254700Y-8196580D01*
X-31262320Y-8188960D02*
X-33802320Y-8188960D01*
X-33802320Y-8188960D02*
X-38696800Y-8188960D01*
X76082640Y-19651980D02*
X76098459Y-19667799D01*
X68920360Y-19651980D02*
X76082640Y-19651980D01*
D50*
X-27282140Y-8196580D02*
X-24703420Y-8196580D01*
X-24703420Y-8196580D02*
X-23200000Y-9700000D01*
X-23200000Y-9700000D02*
X-23200000Y-13300000D01*
X-23200000Y-13300000D02*
X-21570000Y-14930000D01*
X-21570000Y-14930000D02*
X3460000Y-14930000D01*
X4800000Y-14930000D02*
X5520000Y-14210000D01*
X3460000Y-14930000D02*
X4800000Y-14930000D01*
X5520000Y-14210000D02*
X59550000Y-14210000D01*
X59550000Y-14210000D02*
X59550000Y-14210000D01*
D43*
X-33802320Y-10728960D02*
X-31262320Y-10728960D01*
X-27289760Y-10728960D02*
X-27282140Y-10736580D01*
X-31262320Y-10728960D02*
X-27289760Y-10728960D01*
X-33802320Y-10728960D02*
X-38696800Y-10728960D01*
D50*
X-27282140Y-10736580D02*
X-25673420Y-10736580D01*
X-25673420Y-10736580D02*
X-24510000Y-11900000D01*
X-24510000Y-11900000D02*
X-24510000Y-14410000D01*
X-24510000Y-14410000D02*
X-23140000Y-15780000D01*
X-4170000Y-15780000D02*
X4520000Y-15780000D01*
X-4170000Y-15780000D02*
X2690000Y-15780000D01*
X-23140000Y-15780000D02*
X-4170000Y-15780000D01*
X4520000Y-15780000D02*
X6840000Y-18100000D01*
X6840000Y-18100000D02*
X58220000Y-18100000D01*
X58220000Y-18100000D02*
X58220000Y-18100000D01*
D43*
X-33802320Y-568960D02*
X-31262320Y-568960D01*
X-27289760Y-568960D02*
X-27282140Y-576580D01*
X-31262320Y-568960D02*
X-27289760Y-568960D01*
X68678281Y-7211839D02*
X68663820Y-7226300D01*
X76070519Y-7211839D02*
X68678281Y-7211839D01*
D50*
X-7221041Y-1858959D02*
X41861041Y-1858959D01*
D46*
X-61239400Y38717220D02*
X-53903880Y38717220D01*
D43*
X-32499300Y-26669300D02*
X-32510000Y-26680000D01*
X-32499300Y-22098920D02*
X-32499300Y-26669300D01*
M02*
