G04 #@! TF.GenerationSoftware,KiCad,Pcbnew,(5.1.2)-2*
G04 #@! TF.CreationDate,2020-04-07T11:29:11-03:00*
G04 #@! TF.ProjectId,controller,636f6e74-726f-46c6-9c65-722e6b696361,rev?*
G04 #@! TF.SameCoordinates,Original*
G04 #@! TF.FileFunction,Legend,Top*
G04 #@! TF.FilePolarity,Positive*
%FSLAX46Y46*%
G04 Gerber Fmt 4.6, Leading zero omitted, Abs format (unit mm)*
G04 Created by KiCad (PCBNEW (5.1.2)-2) date 2020-04-07 11:29:11*
%MOMM*%
%LPD*%
G04 APERTURE LIST*
%ADD10C,0.150000*%
G04 APERTURE END LIST*
D10*
X45674360Y-32019418D02*
X45198170Y-32352751D01*
X45674360Y-32590846D02*
X44674360Y-32590846D01*
X44674360Y-32209894D01*
X44721980Y-32114656D01*
X44769599Y-32067037D01*
X44864837Y-32019418D01*
X45007694Y-32019418D01*
X45102932Y-32067037D01*
X45150551Y-32114656D01*
X45198170Y-32209894D01*
X45198170Y-32590846D01*
X44674360Y-31733703D02*
X45674360Y-31400370D01*
X44674360Y-31067037D01*
X45674360Y-30209894D02*
X45674360Y-30781322D01*
X45674360Y-30495608D02*
X44674360Y-30495608D01*
X44817218Y-30590846D01*
X44912456Y-30686084D01*
X44960075Y-30781322D01*
X-33685939Y-32049898D02*
X-34162129Y-32383231D01*
X-33685939Y-32621326D02*
X-34685939Y-32621326D01*
X-34685939Y-32240374D01*
X-34638320Y-32145136D01*
X-34590700Y-32097517D01*
X-34495462Y-32049898D01*
X-34352605Y-32049898D01*
X-34257367Y-32097517D01*
X-34209748Y-32145136D01*
X-34162129Y-32240374D01*
X-34162129Y-32621326D01*
X-34685939Y-31764183D02*
X-33685939Y-31430850D01*
X-34685939Y-31097517D01*
X-34590700Y-30811802D02*
X-34638320Y-30764183D01*
X-34685939Y-30668945D01*
X-34685939Y-30430850D01*
X-34638320Y-30335612D01*
X-34590700Y-30287993D01*
X-34495462Y-30240374D01*
X-34400224Y-30240374D01*
X-34257367Y-30287993D01*
X-33685939Y-30859421D01*
X-33685939Y-30240374D01*
X-7335799Y-31983858D02*
X-7811989Y-32317191D01*
X-7335799Y-32555286D02*
X-8335799Y-32555286D01*
X-8335799Y-32174334D01*
X-8288180Y-32079096D01*
X-8240560Y-32031477D01*
X-8145322Y-31983858D01*
X-8002465Y-31983858D01*
X-7907227Y-32031477D01*
X-7859608Y-32079096D01*
X-7811989Y-32174334D01*
X-7811989Y-32555286D01*
X-8335799Y-31698143D02*
X-7335799Y-31364810D01*
X-8335799Y-31031477D01*
X-8335799Y-30793381D02*
X-8335799Y-30174334D01*
X-7954846Y-30507667D01*
X-7954846Y-30364810D01*
X-7907227Y-30269572D01*
X-7859608Y-30221953D01*
X-7764370Y-30174334D01*
X-7526275Y-30174334D01*
X-7431037Y-30221953D01*
X-7383418Y-30269572D01*
X-7335799Y-30364810D01*
X-7335799Y-30650524D01*
X-7383418Y-30745762D01*
X-7431037Y-30793381D01*
X19877560Y-31867018D02*
X19401370Y-32200351D01*
X19877560Y-32438446D02*
X18877560Y-32438446D01*
X18877560Y-32057494D01*
X18925180Y-31962256D01*
X18972799Y-31914637D01*
X19068037Y-31867018D01*
X19210894Y-31867018D01*
X19306132Y-31914637D01*
X19353751Y-31962256D01*
X19401370Y-32057494D01*
X19401370Y-32438446D01*
X18877560Y-31581303D02*
X19877560Y-31247970D01*
X18877560Y-30914637D01*
X19210894Y-30152732D02*
X19877560Y-30152732D01*
X18829941Y-30390827D02*
X19544227Y-30628922D01*
X19544227Y-30009875D01*
M02*
