G04 #@! TF.GenerationSoftware,KiCad,Pcbnew,(5.1.2)-2*
G04 #@! TF.CreationDate,2020-04-07T11:29:11-03:00*
G04 #@! TF.ProjectId,controller,636f6e74-726f-46c6-9c65-722e6b696361,rev?*
G04 #@! TF.SameCoordinates,Original*
G04 #@! TF.FileFunction,Copper,L2,Bot*
G04 #@! TF.FilePolarity,Positive*
%FSLAX46Y46*%
G04 Gerber Fmt 4.6, Leading zero omitted, Abs format (unit mm)*
G04 Created by KiCad (PCBNEW (5.1.2)-2) date 2020-04-07 11:29:11*
%MOMM*%
%LPD*%
G04 APERTURE LIST*
%ADD10C,1.400000*%
%ADD11O,1.400000X1.400000*%
%ADD12R,1.300000X1.300000*%
%ADD13C,1.300000*%
%ADD14R,1.879600X1.879600*%
%ADD15C,1.879600*%
%ADD16C,2.000000*%
%ADD17R,2.100000X2.100000*%
%ADD18C,2.100000*%
%ADD19R,1.600000X2.400000*%
%ADD20O,1.600000X2.400000*%
%ADD21C,1.600000*%
%ADD22R,1.727200X1.727200*%
%ADD23O,1.727200X1.727200*%
%ADD24C,1.625600*%
%ADD25C,1.651000*%
%ADD26C,1.800000*%
%ADD27C,4.000000*%
%ADD28R,1.700000X1.700000*%
%ADD29O,1.700000X1.700000*%
%ADD30R,1.600000X1.600000*%
%ADD31O,1.600000X1.600000*%
%ADD32R,2.200000X2.200000*%
%ADD33O,2.200000X2.200000*%
%ADD34O,1.500000X1.050000*%
%ADD35R,1.500000X1.050000*%
%ADD36R,2.400000X2.400000*%
%ADD37C,2.400000*%
%ADD38R,1.800000X2.500000*%
%ADD39O,1.800000X2.500000*%
%ADD40C,3.200000*%
%ADD41C,1.440000*%
%ADD42C,0.800000*%
%ADD43C,2.500000*%
%ADD44C,1.000000*%
%ADD45C,1.500000*%
%ADD46C,3.000000*%
%ADD47C,0.500000*%
%ADD48C,0.750000*%
%ADD49C,0.400000*%
%ADD50C,0.250000*%
G04 APERTURE END LIST*
D10*
X-19677380Y-17371060D03*
D11*
X-27297380Y-17371060D03*
D12*
X62806580Y20949920D03*
D13*
X65346580Y20949920D03*
X67886580Y20949920D03*
X70426580Y20949920D03*
D14*
X31998920Y920D03*
D15*
X29458920Y920D03*
X26918920Y920D03*
X24378920Y920D03*
X21838920Y920D03*
X19298920Y920D03*
X16758920Y920D03*
X14218920Y920D03*
X11678920Y920D03*
X9138920Y920D03*
X6598920Y920D03*
X4058920Y920D03*
X1518920Y920D03*
X-1018540Y920D03*
X-3558540Y920D03*
X-6098540Y920D03*
D16*
X-80032880Y5182280D03*
X-60032880Y5182280D03*
X-60032880Y-39817720D03*
X-80032880Y-39817720D03*
D17*
X11498580Y38364160D03*
D18*
X6418580Y38364160D03*
X1338580Y38364160D03*
D10*
X64091820Y11866880D03*
D11*
X64091820Y4246880D03*
X61473080Y11871960D03*
D10*
X61473080Y4251960D03*
D11*
X52207160Y7353300D03*
D10*
X52207160Y-266700D03*
D19*
X56375300Y-274320D03*
D20*
X63995300Y-7894320D03*
X58915300Y-274320D03*
X61455300Y-7894320D03*
X61455300Y-274320D03*
X58915300Y-7894320D03*
X63995300Y-274320D03*
X56375300Y-7894320D03*
D21*
X56073040Y4348480D03*
X56073040Y6848480D03*
D10*
X58912760Y4244340D03*
D11*
X58912760Y11864340D03*
D15*
X-38696800Y-15808960D03*
X-38696800Y-5648960D03*
X-38696800Y-18348960D03*
X-38696800Y-8188960D03*
X-38696800Y-10728960D03*
X-38696800Y-13268960D03*
D21*
X-9560560Y4518660D03*
X-9560560Y2018660D03*
X-42471340Y4726940D03*
X-42471340Y7226940D03*
X-42471340Y9420220D03*
X-42471340Y11920220D03*
D22*
X-26085800Y28173680D03*
D23*
X-26085800Y25633680D03*
X-23545800Y28173680D03*
X-23545800Y25633680D03*
X-21005800Y28173680D03*
X-21005800Y25633680D03*
D11*
X-32510000Y-26680000D03*
D10*
X-24890000Y-26680000D03*
X-9550400Y7101840D03*
D11*
X-9550400Y14721840D03*
D24*
X-27282140Y-13276580D03*
X-27282140Y-10736580D03*
X-27282140Y-8196580D03*
X-27282140Y-5656580D03*
X-27282140Y-3116580D03*
X-27282140Y-576580D03*
X-27282140Y1963420D03*
X-27282140Y4503420D03*
X-27282140Y7043420D03*
X-27282140Y9583420D03*
X-27282140Y12123420D03*
X-27282140Y14663420D03*
X-27282140Y17203420D03*
X-27282140Y19743420D03*
X-19662140Y19743420D03*
X-19662140Y17203420D03*
X-19662140Y14663420D03*
X-19662140Y12123420D03*
X-19662140Y9583420D03*
X-19662140Y7043420D03*
X-19662140Y4503420D03*
X-19662140Y1963420D03*
X-19662140Y-576580D03*
X-19662140Y-3116580D03*
X-19662140Y-5656580D03*
X-19662140Y-8196580D03*
X-19662140Y-10736580D03*
X-19662140Y-13276580D03*
D25*
X-38193980Y10861040D03*
X-38193980Y5781040D03*
D26*
X42000000Y-31000000D03*
X39500000Y-31000000D03*
X37000000Y-31000000D03*
D27*
X43900000Y-38000000D03*
X35100000Y-38000000D03*
D26*
X-37500000Y-31000000D03*
X-40000000Y-31000000D03*
X-42500000Y-31000000D03*
D27*
X-35600000Y-38000000D03*
X-44400000Y-38000000D03*
X-17900000Y-38000000D03*
X-9100000Y-38000000D03*
D26*
X-16000000Y-31000000D03*
X-13500000Y-31000000D03*
X-11000000Y-31000000D03*
X16000000Y-31000000D03*
X13500000Y-31000000D03*
X11000000Y-31000000D03*
D27*
X17900000Y-38000000D03*
X9100000Y-38000000D03*
D28*
X-31262320Y-13268960D03*
D29*
X-33802320Y-13268960D03*
X-31262320Y-10728960D03*
X-33802320Y-10728960D03*
X-31262320Y-8188960D03*
X-33802320Y-8188960D03*
X-31262320Y-5648960D03*
X-33802320Y-5648960D03*
X-31262320Y-3108960D03*
X-33802320Y-3108960D03*
X-31262320Y-568960D03*
X-33802320Y-568960D03*
X-31262320Y1971040D03*
X-33802320Y1971040D03*
X-31262320Y4511040D03*
X-33802320Y4511040D03*
X-31262320Y7051040D03*
X-33802320Y7051040D03*
X-31262320Y9591040D03*
X-33802320Y9591040D03*
X-31262320Y12131040D03*
X-33802320Y12131040D03*
X-31262320Y14671040D03*
X-33802320Y14671040D03*
X-31262320Y17211040D03*
X-33802320Y17211040D03*
X-31262320Y19751040D03*
X-33802320Y19751040D03*
D28*
X-13253720Y-13268960D03*
D29*
X-15793720Y-13268960D03*
X-13253720Y-10728960D03*
X-15793720Y-10728960D03*
X-13253720Y-8188960D03*
X-15793720Y-8188960D03*
X-13253720Y-5648960D03*
X-15793720Y-5648960D03*
X-13253720Y-3108960D03*
X-15793720Y-3108960D03*
X-13253720Y-568960D03*
X-15793720Y-568960D03*
X-13253720Y1971040D03*
X-15793720Y1971040D03*
X-13253720Y4511040D03*
X-15793720Y4511040D03*
X-13253720Y7051040D03*
X-15793720Y7051040D03*
X-13253720Y9591040D03*
X-15793720Y9591040D03*
X-13253720Y12131040D03*
X-15793720Y12131040D03*
X-13253720Y14671040D03*
X-15793720Y14671040D03*
X-13253720Y17211040D03*
X-15793720Y17211040D03*
X-13253720Y19751040D03*
X-15793720Y19751040D03*
D21*
X-71221600Y-43157140D03*
X-68721600Y-43157140D03*
D30*
X80230980Y28757880D03*
D31*
X72610980Y42057880D03*
X77690980Y28757880D03*
X75150980Y42057880D03*
X75150980Y28757880D03*
X77690980Y42057880D03*
X72610980Y28757880D03*
X80230980Y42057880D03*
D32*
X-74693780Y24257000D03*
D33*
X-64533780Y24257000D03*
D28*
X68737480Y28747720D03*
D29*
X68737480Y31287720D03*
D34*
X64203580Y-29735780D03*
X64203580Y-31005780D03*
D35*
X64203580Y-28465780D03*
D10*
X68930520Y-22105620D03*
D11*
X68930520Y-29725620D03*
D17*
X59113420Y-38900000D03*
D18*
X64193420Y-38900000D03*
D17*
X-73474580Y38717220D03*
D18*
X-78554580Y38717220D03*
X76098459Y-14587799D03*
D17*
X76098459Y-19667799D03*
X76095860Y-31879540D03*
D18*
X76095860Y-26799540D03*
D11*
X68920360Y-12031980D03*
D10*
X68920360Y-19651980D03*
D36*
X-59634120Y18468340D03*
D37*
X-59634120Y10968340D03*
X-74683620Y10960720D03*
D36*
X-74683620Y18460720D03*
D17*
X33719279Y38377279D03*
D18*
X28639279Y38377279D03*
X23559279Y38377279D03*
X18479279Y38377279D03*
D17*
X-5560000Y38360000D03*
D18*
X-10640000Y38360000D03*
X76070519Y-2131839D03*
D17*
X76070519Y-7211839D03*
X76062899Y5135161D03*
D18*
X76062899Y10215161D03*
D10*
X68663820Y-7226300D03*
D11*
X68663820Y393700D03*
X68737480Y12712700D03*
D10*
X68737480Y5092700D03*
D17*
X-18980260Y38321620D03*
D18*
X-24060260Y38321620D03*
X-29140260Y38321620D03*
X-34220260Y38321620D03*
D17*
X-48823880Y38717220D03*
D18*
X-53903880Y38717220D03*
D17*
X-61239400Y38717220D03*
D18*
X-66319400Y38717220D03*
D38*
X-32499300Y-22098920D03*
D39*
X-29959300Y-22098920D03*
X-27419300Y-22098920D03*
X-24879300Y-22098920D03*
X-22339300Y-22098920D03*
X-19799300Y-22098920D03*
X-17259300Y-22098920D03*
X-14719300Y-22098920D03*
X-12179300Y-22098920D03*
X-9639300Y-22098920D03*
X-7099300Y-22098920D03*
X-4559300Y-22098920D03*
X-2019300Y-22098920D03*
X520700Y-22098920D03*
X3060700Y-22098920D03*
X5600700Y-22098920D03*
X8140700Y-22098920D03*
X10680700Y-22098920D03*
X13220700Y-22098920D03*
X15760700Y-22098920D03*
D40*
X-43500000Y-22100000D03*
X43500000Y-22100000D03*
X-43500000Y41900000D03*
X43500000Y41900000D03*
D41*
X13210000Y-15630000D03*
X10670000Y-15630000D03*
X8130000Y-15630000D03*
D42*
X561040Y12131040D03*
X21758960Y12131040D03*
X13100000Y16190000D03*
X40661040Y-13268960D03*
X40660000Y4122740D03*
X31851040Y-8188960D03*
X-9740000Y-17410000D03*
X-7450000Y-16970000D03*
X591040Y9591040D03*
X-15210000Y23180000D03*
X-16180000Y24200000D03*
X3950000Y17270000D03*
X-1271040Y19751040D03*
X59550000Y-14210000D03*
X58220000Y-18100000D03*
X-7221041Y-1858959D03*
X41861041Y-1858959D03*
D43*
X-57937064Y10968340D02*
X-59634120Y10968340D01*
X-51994100Y10968340D02*
X-57937064Y10968340D01*
D44*
X62806580Y20949920D02*
X62806580Y29226580D01*
X64867720Y31287720D02*
X68737480Y31287720D01*
X62806580Y29226580D02*
X64867720Y31287720D01*
D45*
X18160700Y-22098920D02*
X15760700Y-22098920D01*
X21838920Y-18420700D02*
X18160700Y-22098920D01*
X31998920Y2440720D02*
X31998920Y920D01*
X31329640Y3110000D02*
X31998920Y2440720D01*
X21838920Y2208920D02*
X22740000Y3110000D01*
X21838920Y920D02*
X21838920Y2208920D01*
X26918920Y3021080D02*
X26830000Y3110000D01*
X26918920Y920D02*
X26918920Y3021080D01*
X22740000Y3110000D02*
X26830000Y3110000D01*
X26830000Y3110000D02*
X31329640Y3110000D01*
D44*
X12110687Y-10631080D02*
X21838920Y-10631080D01*
X8130000Y-14611767D02*
X12110687Y-10631080D01*
X8130000Y-15630000D02*
X8130000Y-14611767D01*
D45*
X21838920Y920D02*
X21838920Y-10631080D01*
X21838920Y-10631080D02*
X21838920Y-18420700D01*
D44*
X44534220Y-28465780D02*
X42000000Y-31000000D01*
X64203580Y-28465780D02*
X44534220Y-28465780D01*
X-46131040Y-15808960D02*
X-38696800Y-15808960D01*
X-48252700Y7226940D02*
X-51994100Y10968340D01*
X-42471340Y7226940D02*
X-48252700Y7226940D01*
X-48252700Y-13687300D02*
X-46131040Y-15808960D01*
X-48252700Y7226940D02*
X-48252700Y-13687300D01*
X42000000Y-31000000D02*
X42000000Y-32340000D01*
X42000000Y-32340000D02*
X40800000Y-33540000D01*
X-8460000Y-33540000D02*
X-11000000Y-31000000D01*
X16000000Y-33500000D02*
X15960000Y-33540000D01*
X16000000Y-31000000D02*
X16000000Y-33500000D01*
X40800000Y-33540000D02*
X15960000Y-33540000D01*
X15960000Y-33540000D02*
X-8460000Y-33540000D01*
D45*
X-11000000Y-28120000D02*
X-11000000Y-31000000D01*
X-12440000Y-26680000D02*
X-11000000Y-28120000D01*
X-19799300Y-26279300D02*
X-20200000Y-26680000D01*
X-19799300Y-22098920D02*
X-19799300Y-26279300D01*
X-24890000Y-26680000D02*
X-20200000Y-26680000D01*
X-20200000Y-26680000D02*
X-12440000Y-26680000D01*
D46*
X-78554580Y38717220D02*
X-78554580Y36024580D01*
X-78554580Y36024580D02*
X-69480000Y26950000D01*
X-69480000Y16164340D02*
X-74683620Y10960720D01*
X-69480000Y26950000D02*
X-69480000Y16164340D01*
X-59641740Y10960720D02*
X-59634120Y10968340D01*
X-74683620Y10960720D02*
X-59641740Y10960720D01*
D43*
X-34220260Y28742180D02*
X-35641220Y27321220D01*
X-34220260Y38321620D02*
X-34220260Y28742180D01*
X-35641220Y27321220D02*
X-51994100Y10968340D01*
D47*
X-21005800Y29835800D02*
X-21005800Y28173680D01*
X-33802320Y-13268960D02*
X-35004401Y-13268960D01*
X-35004401Y-13268960D02*
X-35400000Y-12873361D01*
X-35400000Y-12873361D02*
X-35400000Y23970000D01*
X-35400000Y23970000D02*
X-28340000Y31030000D01*
X-28340000Y31030000D02*
X-22200000Y31030000D01*
X-22200000Y31030000D02*
X-21005800Y29835800D01*
D48*
X-21052668Y7043420D02*
X-20678140Y7043420D01*
X-26132668Y1963420D02*
X-21052668Y7043420D01*
X-27282140Y1963420D02*
X-26132668Y1963420D01*
X-19662140Y7043420D02*
X-20678140Y7043420D01*
D45*
X-63570000Y-31000000D02*
X-42500000Y-31000000D01*
X-71221600Y-38651600D02*
X-63570000Y-31000000D01*
X-71221600Y-43157140D02*
X-71221600Y-38651600D01*
D44*
X68737480Y12712700D02*
X70757300Y12712700D01*
X70757300Y12712700D02*
X72350000Y11120000D01*
X72350000Y-8602340D02*
X68920360Y-12031980D01*
X72183700Y393700D02*
X72350000Y560000D01*
X68663820Y393700D02*
X72183700Y393700D01*
X72350000Y11120000D02*
X72350000Y560000D01*
X72350000Y560000D02*
X72350000Y-8602340D01*
X68920360Y-12031980D02*
X57901980Y-12031980D01*
X56375300Y-10505300D02*
X56375300Y-7894320D01*
X57901980Y-12031980D02*
X56375300Y-10505300D01*
D48*
X-3558540Y8729980D02*
X-9550400Y14721840D01*
X-3558540Y920D02*
X-3558540Y8729980D01*
D45*
X29458920Y-23458920D02*
X37000000Y-31000000D01*
X29458920Y920D02*
X29458920Y-23458920D01*
D44*
X67886580Y18976580D02*
X66840000Y17930000D01*
X67886580Y20949920D02*
X67886580Y18976580D01*
X39230000Y17930000D02*
X23559279Y33600721D01*
X66840000Y17930000D02*
X39230000Y17930000D01*
X23559279Y33600721D02*
X23559279Y38377279D01*
X14212019Y33600721D02*
X23559279Y33600721D01*
X11498580Y36314160D02*
X14212019Y33600721D01*
X11498580Y38364160D02*
X11498580Y36314160D01*
D45*
X13220700Y-22098920D02*
X13220700Y-24879300D01*
X11000000Y-27100000D02*
X11000000Y-31000000D01*
X13220700Y-24879300D02*
X11000000Y-27100000D01*
D48*
X13210000Y-22088220D02*
X13220700Y-22098920D01*
X13210000Y-15630000D02*
X13210000Y-22088220D01*
D45*
X11498580Y40914160D02*
X11498580Y38364160D01*
X10092740Y42320000D02*
X11498580Y40914160D01*
X-9110000Y42320000D02*
X10092740Y42320000D01*
X-10640000Y40790000D02*
X-9110000Y42320000D01*
X-10640000Y38360000D02*
X-10640000Y40790000D01*
D48*
X561040Y12131040D02*
X21758960Y12131040D01*
D47*
X-13253720Y14671040D02*
X-11734760Y16190000D01*
X-11734760Y16190000D02*
X13100000Y16190000D01*
D49*
X-18980260Y36871620D02*
X-18980260Y38321620D01*
X-12200000Y30091360D02*
X-18980260Y36871620D01*
X-12200000Y23110000D02*
X-12200000Y30091360D01*
X-13990000Y21320000D02*
X-12200000Y23110000D01*
X-20320000Y21320000D02*
X-13990000Y21320000D01*
X-21320000Y20320000D02*
X-20320000Y21320000D01*
X-21320000Y13450000D02*
X-21320000Y20320000D01*
X-22646580Y12123420D02*
X-21320000Y13450000D01*
X-27282140Y12123420D02*
X-22646580Y12123420D01*
X-23406580Y14663420D02*
X-27282140Y14663420D01*
X-21990000Y20590000D02*
X-21990000Y16080000D01*
X-24060260Y38321620D02*
X-24060260Y36836696D01*
X-24060260Y36836696D02*
X-13920000Y26696436D01*
X-13920000Y26696436D02*
X-13920000Y22900000D01*
X-13920000Y22900000D02*
X-14800000Y22020000D01*
X-21990000Y16080000D02*
X-23406580Y14663420D01*
X-14800000Y22020000D02*
X-20560000Y22020000D01*
X-20560000Y22020000D02*
X-21990000Y20590000D01*
D48*
X40660000Y-13267920D02*
X40661040Y-13268960D01*
X40660000Y4122740D02*
X40660000Y-13267920D01*
D44*
X32251039Y-8588959D02*
X31851040Y-8188960D01*
X39500000Y-15837920D02*
X32251039Y-8588959D01*
X39500000Y-31000000D02*
X39500000Y-15837920D01*
D48*
X-40000000Y-31000000D02*
X-40000000Y-23620000D01*
X-40000000Y-23620000D02*
X-31550000Y-15170000D01*
X-31550000Y-15170000D02*
X-26020000Y-15170000D01*
X-26020000Y-15170000D02*
X-22570000Y-11720000D01*
X-22570000Y-8564440D02*
X-19662140Y-5656580D01*
X-22570000Y-11720000D02*
X-22570000Y-8564440D01*
D50*
X-12051639Y-3108960D02*
X-9740000Y-5420599D01*
X-13253720Y-3108960D02*
X-12051639Y-3108960D01*
X-9740000Y-5420599D02*
X-9740000Y-17410000D01*
X-9740000Y-17410000D02*
X-9740000Y-17410000D01*
X-13253720Y-568960D02*
X-10031040Y-568960D01*
X-10031040Y-568960D02*
X-7450000Y-3150000D01*
X-7450000Y-3150000D02*
X-7450000Y-16970000D01*
X-7450000Y-16970000D02*
X-7450000Y-16970000D01*
D46*
X-48823880Y38717220D02*
X-48823880Y37893880D01*
X-48823880Y31076120D02*
X-48823880Y37893880D01*
X-55643000Y24257000D02*
X-48823880Y31076120D01*
X-59634120Y23948120D02*
X-59943000Y24257000D01*
X-59634120Y18468340D02*
X-59634120Y23948120D01*
X-64533780Y24257000D02*
X-59943000Y24257000D01*
X-59943000Y24257000D02*
X-55643000Y24257000D01*
X-37080000Y42820000D02*
X-48823880Y31076120D01*
X-29140260Y39806544D02*
X-32153716Y42820000D01*
X-29140260Y38321620D02*
X-29140260Y39806544D01*
X-32153716Y42820000D02*
X-37080000Y42820000D01*
D48*
X64239140Y9591040D02*
X68737480Y5092700D01*
D49*
X-23545800Y29394994D02*
X-24210806Y30060000D01*
X-23545800Y28173680D02*
X-23545800Y29394994D01*
X-24210806Y30060000D02*
X-27570000Y30060000D01*
X-27570000Y30060000D02*
X-29270000Y28360000D01*
X-29270000Y28360000D02*
X-29270000Y11470000D01*
X-29270000Y11470000D02*
X-28650000Y10850000D01*
X-20928720Y10850000D02*
X-19662140Y9583420D01*
X-28650000Y10850000D02*
X-20928720Y10850000D01*
D47*
X64239140Y9591040D02*
X591040Y9591040D01*
D49*
X-27282140Y17203420D02*
X-23606580Y17203420D01*
X-23606580Y17203420D02*
X-22720000Y18090000D01*
X-22720000Y18090000D02*
X-22720000Y21100000D01*
X-22720000Y21100000D02*
X-20640000Y23180000D01*
X-20640000Y23180000D02*
X-15210000Y23180000D01*
X-15210000Y23180000D02*
X-15210000Y23180000D01*
X-2480000Y-19730000D02*
X-1018540Y-18268540D01*
X-24160380Y-19730000D02*
X-2480000Y-19730000D01*
X-24879300Y-22098920D02*
X-24879300Y-20448920D01*
X-24879300Y-20448920D02*
X-24160380Y-19730000D01*
X-1018540Y-18268540D02*
X-1018540Y920D01*
D48*
X1518920Y920D02*
X1518920Y-2888920D01*
X3060700Y-4430700D02*
X3060700Y-22098920D01*
X1518920Y-2888920D02*
X3060700Y-4430700D01*
D49*
X-27282140Y19743420D02*
X-25536580Y19743420D01*
X-25536580Y19743420D02*
X-21080000Y24200000D01*
X-21080000Y24200000D02*
X-16180000Y24200000D01*
X-16180000Y24200000D02*
X-16180000Y24200000D01*
D48*
X6598920Y920D02*
X6598920Y-17848920D01*
X8140700Y-19390700D02*
X8140700Y-22098920D01*
X6598920Y-17848920D02*
X8140700Y-19390700D01*
X-13194760Y17270000D02*
X-13253720Y17211040D01*
X3950000Y17270000D02*
X-13194760Y17270000D01*
X4058920Y920D02*
X4058920Y-3258920D01*
X5600700Y-4800700D02*
X5600700Y-19130700D01*
X4058920Y-3258920D02*
X5600700Y-4800700D01*
X5600700Y-22098920D02*
X5600700Y-19130700D01*
D47*
X-13253720Y19751040D02*
X-1271040Y19751040D01*
D49*
X63478380Y-14210000D02*
X68920360Y-19651980D01*
X59550000Y-14210000D02*
X63478380Y-14210000D01*
X62316320Y-18100000D02*
X76095860Y-31879540D01*
X58220000Y-18100000D02*
X62316320Y-18100000D01*
X-7221041Y-1858959D02*
X-7221041Y-1858959D01*
X42261040Y-2258958D02*
X41861041Y-1858959D01*
X44172082Y-4170000D02*
X42261040Y-2258958D01*
X65607520Y-4170000D02*
X44172082Y-4170000D01*
X68663820Y-7226300D02*
X65607520Y-4170000D01*
X-24178662Y-576580D02*
X-22996041Y606041D01*
X-27282140Y-576580D02*
X-24178662Y-576580D01*
X-7621040Y-1458960D02*
X-7221041Y-1858959D01*
X-9761041Y681041D02*
X-7621040Y-1458960D01*
X-20199465Y681041D02*
X-9761041Y681041D01*
X-20274465Y606041D02*
X-20199465Y681041D01*
X-22996041Y606041D02*
X-20274465Y606041D01*
D48*
X10670000Y-22088220D02*
X10680700Y-22098920D01*
X10670000Y-15630000D02*
X10670000Y-22088220D01*
D49*
X-6098540Y920D02*
X-6098540Y-17188540D01*
X-6098540Y-17188540D02*
X-7800000Y-18890000D01*
X-31290380Y-18890000D02*
X-32499300Y-20098920D01*
X-7800000Y-18890000D02*
X-31290380Y-18890000D01*
X-32499300Y-22098920D02*
X-32499300Y-20098920D01*
M02*
