G04 #@! TF.GenerationSoftware,KiCad,Pcbnew,(5.1.2)-2*
G04 #@! TF.CreationDate,2020-04-07T11:29:11-03:00*
G04 #@! TF.ProjectId,controller,636f6e74-726f-46c6-9c65-722e6b696361,rev?*
G04 #@! TF.SameCoordinates,Original*
G04 #@! TF.FileFunction,Legend,Bot*
G04 #@! TF.FilePolarity,Positive*
%FSLAX46Y46*%
G04 Gerber Fmt 4.6, Leading zero omitted, Abs format (unit mm)*
G04 Created by KiCad (PCBNEW (5.1.2)-2) date 2020-04-07 11:29:11*
%MOMM*%
%LPD*%
G04 APERTURE LIST*
%ADD10C,0.150000*%
%ADD11C,0.120000*%
%ADD12C,0.127000*%
%ADD13C,0.010000*%
%ADD14C,0.203200*%
%ADD15C,0.254000*%
G04 APERTURE END LIST*
D10*
X-41921675Y-17891200D02*
X-41826437Y-17843580D01*
X-41683580Y-17843580D01*
X-41540722Y-17891200D01*
X-41445484Y-17986438D01*
X-41397865Y-18081676D01*
X-41350246Y-18272152D01*
X-41350246Y-18415009D01*
X-41397865Y-18605485D01*
X-41445484Y-18700723D01*
X-41540722Y-18795961D01*
X-41683580Y-18843580D01*
X-41778818Y-18843580D01*
X-41921675Y-18795961D01*
X-41969294Y-18748342D01*
X-41969294Y-18415009D01*
X-41778818Y-18415009D01*
X-42397865Y-18843580D02*
X-42397865Y-17843580D01*
X-42969294Y-18843580D01*
X-42969294Y-17843580D01*
X-43445484Y-18843580D02*
X-43445484Y-17843580D01*
X-43683580Y-17843580D01*
X-43826437Y-17891200D01*
X-43921675Y-17986438D01*
X-43969294Y-18081676D01*
X-44016913Y-18272152D01*
X-44016913Y-18415009D01*
X-43969294Y-18605485D01*
X-43921675Y-18700723D01*
X-43826437Y-18795961D01*
X-43683580Y-18843580D01*
X-43445484Y-18843580D01*
X33591904Y14122619D02*
X33258571Y13122619D01*
X32925238Y14122619D01*
X32591904Y13646428D02*
X32258571Y13646428D01*
X32115714Y13122619D02*
X32591904Y13122619D01*
X32591904Y14122619D01*
X32115714Y14122619D01*
X31687142Y13122619D02*
X31687142Y14122619D01*
X31115714Y13122619D01*
X31115714Y14122619D01*
X30782380Y14122619D02*
X30210952Y14122619D01*
X30496666Y13122619D02*
X30496666Y14122619D01*
X29877619Y13122619D02*
X29877619Y14122619D01*
X28925238Y13122619D02*
X29401428Y13122619D01*
X29401428Y14122619D01*
X28639523Y13408333D02*
X28163333Y13408333D01*
X28734761Y13122619D02*
X28401428Y14122619D01*
X28068095Y13122619D01*
X27877619Y14122619D02*
X27306190Y14122619D01*
X27591904Y13122619D02*
X27591904Y14122619D01*
X26782380Y14122619D02*
X26591904Y14122619D01*
X26496666Y14075000D01*
X26401428Y13979761D01*
X26353809Y13789285D01*
X26353809Y13455952D01*
X26401428Y13265476D01*
X26496666Y13170238D01*
X26591904Y13122619D01*
X26782380Y13122619D01*
X26877619Y13170238D01*
X26972857Y13265476D01*
X27020476Y13455952D01*
X27020476Y13789285D01*
X26972857Y13979761D01*
X26877619Y14075000D01*
X26782380Y14122619D01*
X25353809Y13122619D02*
X25687142Y13598809D01*
X25925238Y13122619D02*
X25925238Y14122619D01*
X25544285Y14122619D01*
X25449047Y14075000D01*
X25401428Y14027380D01*
X25353809Y13932142D01*
X25353809Y13789285D01*
X25401428Y13694047D01*
X25449047Y13646428D01*
X25544285Y13598809D01*
X25925238Y13598809D01*
X23591904Y13217857D02*
X23639523Y13170238D01*
X23782380Y13122619D01*
X23877619Y13122619D01*
X24020476Y13170238D01*
X24115714Y13265476D01*
X24163333Y13360714D01*
X24210952Y13551190D01*
X24210952Y13694047D01*
X24163333Y13884523D01*
X24115714Y13979761D01*
X24020476Y14075000D01*
X23877619Y14122619D01*
X23782380Y14122619D01*
X23639523Y14075000D01*
X23591904Y14027380D01*
X22972857Y14122619D02*
X22782380Y14122619D01*
X22687142Y14075000D01*
X22591904Y13979761D01*
X22544285Y13789285D01*
X22544285Y13455952D01*
X22591904Y13265476D01*
X22687142Y13170238D01*
X22782380Y13122619D01*
X22972857Y13122619D01*
X23068095Y13170238D01*
X23163333Y13265476D01*
X23210952Y13455952D01*
X23210952Y13789285D01*
X23163333Y13979761D01*
X23068095Y14075000D01*
X22972857Y14122619D01*
X22115714Y13122619D02*
X22115714Y14122619D01*
X21544285Y13122619D01*
X21544285Y14122619D01*
X21210952Y14122619D02*
X20639523Y14122619D01*
X20925238Y13122619D02*
X20925238Y14122619D01*
X19734761Y13122619D02*
X20068095Y13598809D01*
X20306190Y13122619D02*
X20306190Y14122619D01*
X19925238Y14122619D01*
X19830000Y14075000D01*
X19782380Y14027380D01*
X19734761Y13932142D01*
X19734761Y13789285D01*
X19782380Y13694047D01*
X19830000Y13646428D01*
X19925238Y13598809D01*
X20306190Y13598809D01*
X19115714Y14122619D02*
X18925238Y14122619D01*
X18830000Y14075000D01*
X18734761Y13979761D01*
X18687142Y13789285D01*
X18687142Y13455952D01*
X18734761Y13265476D01*
X18830000Y13170238D01*
X18925238Y13122619D01*
X19115714Y13122619D01*
X19210952Y13170238D01*
X19306190Y13265476D01*
X19353809Y13455952D01*
X19353809Y13789285D01*
X19306190Y13979761D01*
X19210952Y14075000D01*
X19115714Y14122619D01*
X17782380Y13122619D02*
X18258571Y13122619D01*
X18258571Y14122619D01*
X16972857Y13122619D02*
X17449047Y13122619D01*
X17449047Y14122619D01*
X16639523Y13646428D02*
X16306190Y13646428D01*
X16163333Y13122619D02*
X16639523Y13122619D01*
X16639523Y14122619D01*
X16163333Y14122619D01*
X15163333Y13122619D02*
X15496666Y13598809D01*
X15734761Y13122619D02*
X15734761Y14122619D01*
X15353809Y14122619D01*
X15258571Y14075000D01*
X15210952Y14027380D01*
X15163333Y13932142D01*
X15163333Y13789285D01*
X15210952Y13694047D01*
X15258571Y13646428D01*
X15353809Y13598809D01*
X15734761Y13598809D01*
X26068095Y11472619D02*
X26068095Y12139285D01*
X26068095Y11948809D02*
X26020476Y12044047D01*
X25972857Y12091666D01*
X25877619Y12139285D01*
X25782380Y12139285D01*
X25068095Y11520238D02*
X25163333Y11472619D01*
X25353809Y11472619D01*
X25449047Y11520238D01*
X25496666Y11615476D01*
X25496666Y11996428D01*
X25449047Y12091666D01*
X25353809Y12139285D01*
X25163333Y12139285D01*
X25068095Y12091666D01*
X25020476Y11996428D01*
X25020476Y11901190D01*
X25496666Y11805952D01*
X24687142Y12139285D02*
X24449047Y11472619D01*
X24210952Y12139285D01*
X22544285Y11472619D02*
X23115714Y11472619D01*
X22830000Y11472619D02*
X22830000Y12472619D01*
X22925238Y12329761D01*
X23020476Y12234523D01*
X23115714Y12186904D01*
X32009294Y43862951D02*
X32342627Y43862951D01*
X32485484Y44386760D02*
X32009294Y44386760D01*
X32009294Y43386760D01*
X32485484Y43386760D01*
X32914056Y44386760D02*
X32914056Y43386760D01*
X33485484Y44386760D01*
X33485484Y43386760D01*
X34533103Y44291522D02*
X34485484Y44339141D01*
X34342627Y44386760D01*
X34247389Y44386760D01*
X34104532Y44339141D01*
X34009294Y44243903D01*
X33961675Y44148665D01*
X33914056Y43958189D01*
X33914056Y43815332D01*
X33961675Y43624856D01*
X34009294Y43529618D01*
X34104532Y43434380D01*
X34247389Y43386760D01*
X34342627Y43386760D01*
X34485484Y43434380D01*
X34533103Y43481999D01*
X34914056Y43481999D02*
X34961675Y43434380D01*
X35056913Y43386760D01*
X35295008Y43386760D01*
X35390246Y43434380D01*
X35437865Y43481999D01*
X35485484Y43577237D01*
X35485484Y43672475D01*
X35437865Y43815332D01*
X34866437Y44386760D01*
X35485484Y44386760D01*
X26848014Y43814691D02*
X27181347Y43814691D01*
X27324204Y44338500D02*
X26848014Y44338500D01*
X26848014Y43338500D01*
X27324204Y43338500D01*
X27752776Y44338500D02*
X27752776Y43338500D01*
X28324204Y44338500D01*
X28324204Y43338500D01*
X29371823Y44243262D02*
X29324204Y44290881D01*
X29181347Y44338500D01*
X29086109Y44338500D01*
X28943252Y44290881D01*
X28848014Y44195643D01*
X28800395Y44100405D01*
X28752776Y43909929D01*
X28752776Y43767072D01*
X28800395Y43576596D01*
X28848014Y43481358D01*
X28943252Y43386120D01*
X29086109Y43338500D01*
X29181347Y43338500D01*
X29324204Y43386120D01*
X29371823Y43433739D01*
X30324204Y44338500D02*
X29752776Y44338500D01*
X30038490Y44338500D02*
X30038490Y43338500D01*
X29943252Y43481358D01*
X29848014Y43576596D01*
X29752776Y43624215D01*
X-6311904Y43620000D02*
X-6407142Y43572380D01*
X-6550000Y43572380D01*
X-6692857Y43620000D01*
X-6788095Y43715238D01*
X-6835714Y43810476D01*
X-6883333Y44000952D01*
X-6883333Y44143809D01*
X-6835714Y44334285D01*
X-6788095Y44429523D01*
X-6692857Y44524761D01*
X-6550000Y44572380D01*
X-6454761Y44572380D01*
X-6311904Y44524761D01*
X-6264285Y44477142D01*
X-6264285Y44143809D01*
X-6454761Y44143809D01*
X-5835714Y44572380D02*
X-5835714Y43572380D01*
X-5264285Y44572380D01*
X-5264285Y43572380D01*
X-4788095Y44572380D02*
X-4788095Y43572380D01*
X-4550000Y43572380D01*
X-4407142Y43620000D01*
X-4311904Y43715238D01*
X-4264285Y43810476D01*
X-4216666Y44000952D01*
X-4216666Y44143809D01*
X-4264285Y44334285D01*
X-4311904Y44429523D01*
X-4407142Y44524761D01*
X-4550000Y44572380D01*
X-4788095Y44572380D01*
X-12025714Y44231428D02*
X-11263809Y44231428D01*
X-11644761Y44612380D02*
X-11644761Y43850476D01*
X-10311428Y43612380D02*
X-10787619Y43612380D01*
X-10835238Y44088571D01*
X-10787619Y44040952D01*
X-10692380Y43993333D01*
X-10454285Y43993333D01*
X-10359047Y44040952D01*
X-10311428Y44088571D01*
X-10263809Y44183809D01*
X-10263809Y44421904D01*
X-10311428Y44517142D01*
X-10359047Y44564761D01*
X-10454285Y44612380D01*
X-10692380Y44612380D01*
X-10787619Y44564761D01*
X-10835238Y44517142D01*
X-9978095Y43612380D02*
X-9644761Y44612380D01*
X-9311428Y43612380D01*
X-22499140Y23660933D02*
X-22499140Y24360933D01*
X-22732473Y23860933D01*
X-22965806Y24360933D01*
X-22965806Y23660933D01*
X-23432473Y24360933D02*
X-23565806Y24360933D01*
X-23632473Y24327600D01*
X-23699140Y24260933D01*
X-23732473Y24127600D01*
X-23732473Y23894266D01*
X-23699140Y23760933D01*
X-23632473Y23694266D01*
X-23565806Y23660933D01*
X-23432473Y23660933D01*
X-23365806Y23694266D01*
X-23299140Y23760933D01*
X-23265806Y23894266D01*
X-23265806Y24127600D01*
X-23299140Y24260933D01*
X-23365806Y24327600D01*
X-23432473Y24360933D01*
X-23999140Y23694266D02*
X-24099140Y23660933D01*
X-24265806Y23660933D01*
X-24332473Y23694266D01*
X-24365806Y23727600D01*
X-24399140Y23794266D01*
X-24399140Y23860933D01*
X-24365806Y23927600D01*
X-24332473Y23960933D01*
X-24265806Y23994266D01*
X-24132473Y24027600D01*
X-24065806Y24060933D01*
X-24032473Y24094266D01*
X-23999140Y24160933D01*
X-23999140Y24227600D01*
X-24032473Y24294266D01*
X-24065806Y24327600D01*
X-24132473Y24360933D01*
X-24299140Y24360933D01*
X-24399140Y24327600D01*
X-24699140Y23660933D02*
X-24699140Y24360933D01*
X-22567060Y30351606D02*
X-22667060Y30318273D01*
X-22833726Y30318273D01*
X-22900393Y30351606D01*
X-22933726Y30384940D01*
X-22967060Y30451606D01*
X-22967060Y30518273D01*
X-22933726Y30584940D01*
X-22900393Y30618273D01*
X-22833726Y30651606D01*
X-22700393Y30684940D01*
X-22633726Y30718273D01*
X-22600393Y30751606D01*
X-22567060Y30818273D01*
X-22567060Y30884940D01*
X-22600393Y30951606D01*
X-22633726Y30984940D01*
X-22700393Y31018273D01*
X-22867060Y31018273D01*
X-22967060Y30984940D01*
X-23667060Y30384940D02*
X-23633726Y30351606D01*
X-23533726Y30318273D01*
X-23467060Y30318273D01*
X-23367060Y30351606D01*
X-23300393Y30418273D01*
X-23267060Y30484940D01*
X-23233726Y30618273D01*
X-23233726Y30718273D01*
X-23267060Y30851606D01*
X-23300393Y30918273D01*
X-23367060Y30984940D01*
X-23467060Y31018273D01*
X-23533726Y31018273D01*
X-23633726Y30984940D01*
X-23667060Y30951606D01*
X-23967060Y30318273D02*
X-23967060Y31018273D01*
X-24367060Y30318273D02*
X-24067060Y30718273D01*
X-24367060Y31018273D02*
X-23967060Y30618273D01*
X-20566586Y30318273D02*
X-20333253Y30651606D01*
X-20166586Y30318273D02*
X-20166586Y31018273D01*
X-20433253Y31018273D01*
X-20499920Y30984940D01*
X-20533253Y30951606D01*
X-20566586Y30884940D01*
X-20566586Y30784940D01*
X-20533253Y30718273D01*
X-20499920Y30684940D01*
X-20433253Y30651606D01*
X-20166586Y30651606D01*
X-20833253Y30351606D02*
X-20933253Y30318273D01*
X-21099920Y30318273D01*
X-21166586Y30351606D01*
X-21199920Y30384940D01*
X-21233253Y30451606D01*
X-21233253Y30518273D01*
X-21199920Y30584940D01*
X-21166586Y30618273D01*
X-21099920Y30651606D01*
X-20966586Y30684940D01*
X-20899920Y30718273D01*
X-20866586Y30751606D01*
X-20833253Y30818273D01*
X-20833253Y30884940D01*
X-20866586Y30951606D01*
X-20899920Y30984940D01*
X-20966586Y31018273D01*
X-21133253Y31018273D01*
X-21233253Y30984940D01*
X-21433253Y31018273D02*
X-21833253Y31018273D01*
X-21633253Y30318273D02*
X-21633253Y31018273D01*
X-24983260Y30267473D02*
X-24983260Y30967473D01*
X-25216593Y30467473D01*
X-25449926Y30967473D01*
X-25449926Y30267473D01*
X-25783260Y30267473D02*
X-25783260Y30967473D01*
X-26083260Y30300806D02*
X-26183260Y30267473D01*
X-26349926Y30267473D01*
X-26416593Y30300806D01*
X-26449926Y30334140D01*
X-26483260Y30400806D01*
X-26483260Y30467473D01*
X-26449926Y30534140D01*
X-26416593Y30567473D01*
X-26349926Y30600806D01*
X-26216593Y30634140D01*
X-26149926Y30667473D01*
X-26116593Y30700806D01*
X-26083260Y30767473D01*
X-26083260Y30834140D01*
X-26116593Y30900806D01*
X-26149926Y30934140D01*
X-26216593Y30967473D01*
X-26383260Y30967473D01*
X-26483260Y30934140D01*
X-26916593Y30967473D02*
X-27049926Y30967473D01*
X-27116593Y30934140D01*
X-27183260Y30867473D01*
X-27216593Y30734140D01*
X-27216593Y30500806D01*
X-27183260Y30367473D01*
X-27116593Y30300806D01*
X-27049926Y30267473D01*
X-26916593Y30267473D01*
X-26849926Y30300806D01*
X-26783260Y30367473D01*
X-26749926Y30500806D01*
X-26749926Y30734140D01*
X-26783260Y30867473D01*
X-26849926Y30934140D01*
X-26916593Y30967473D01*
X-25149926Y24345693D02*
X-25383260Y23645693D01*
X-25616593Y24345693D01*
X-26249926Y23712360D02*
X-26216593Y23679026D01*
X-26116593Y23645693D01*
X-26049926Y23645693D01*
X-25949926Y23679026D01*
X-25883260Y23745693D01*
X-25849926Y23812360D01*
X-25816593Y23945693D01*
X-25816593Y24045693D01*
X-25849926Y24179026D01*
X-25883260Y24245693D01*
X-25949926Y24312360D01*
X-26049926Y24345693D01*
X-26116593Y24345693D01*
X-26216593Y24312360D01*
X-26249926Y24279026D01*
X-26949926Y23712360D02*
X-26916593Y23679026D01*
X-26816593Y23645693D01*
X-26749926Y23645693D01*
X-26649926Y23679026D01*
X-26583260Y23745693D01*
X-26549926Y23812360D01*
X-26516593Y23945693D01*
X-26516593Y24045693D01*
X-26549926Y24179026D01*
X-26583260Y24245693D01*
X-26649926Y24312360D01*
X-26749926Y24345693D01*
X-26816593Y24345693D01*
X-26916593Y24312360D01*
X-26949926Y24279026D01*
X-20449606Y24345380D02*
X-20382940Y24378713D01*
X-20282940Y24378713D01*
X-20182940Y24345380D01*
X-20116273Y24278713D01*
X-20082940Y24212046D01*
X-20049606Y24078713D01*
X-20049606Y23978713D01*
X-20082940Y23845380D01*
X-20116273Y23778713D01*
X-20182940Y23712046D01*
X-20282940Y23678713D01*
X-20349606Y23678713D01*
X-20449606Y23712046D01*
X-20482940Y23745380D01*
X-20482940Y23978713D01*
X-20349606Y23978713D01*
X-20782940Y23678713D02*
X-20782940Y24378713D01*
X-21182940Y23678713D01*
X-21182940Y24378713D01*
X-21516273Y23678713D02*
X-21516273Y24378713D01*
X-21682940Y24378713D01*
X-21782940Y24345380D01*
X-21849606Y24278713D01*
X-21882940Y24212046D01*
X-21916273Y24078713D01*
X-21916273Y23978713D01*
X-21882940Y23845380D01*
X-21849606Y23778713D01*
X-21782940Y23712046D01*
X-21682940Y23678713D01*
X-21516273Y23678713D01*
X-42065960Y-16308342D02*
X-42018341Y-16355961D01*
X-41875484Y-16403580D01*
X-41780246Y-16403580D01*
X-41637389Y-16355961D01*
X-41542151Y-16260723D01*
X-41494532Y-16165485D01*
X-41446913Y-15975009D01*
X-41446913Y-15832152D01*
X-41494532Y-15641676D01*
X-41542151Y-15546438D01*
X-41637389Y-15451200D01*
X-41780246Y-15403580D01*
X-41875484Y-15403580D01*
X-42018341Y-15451200D01*
X-42065960Y-15498819D01*
X-42351675Y-15403580D02*
X-42923103Y-15403580D01*
X-42637389Y-16403580D02*
X-42637389Y-15403580D01*
X-43208818Y-16355961D02*
X-43351675Y-16403580D01*
X-43589770Y-16403580D01*
X-43685008Y-16355961D01*
X-43732627Y-16308342D01*
X-43780246Y-16213104D01*
X-43780246Y-16117866D01*
X-43732627Y-16022628D01*
X-43685008Y-15975009D01*
X-43589770Y-15927390D01*
X-43399294Y-15879771D01*
X-43304056Y-15832152D01*
X-43256437Y-15784533D01*
X-43208818Y-15689295D01*
X-43208818Y-15594057D01*
X-43256437Y-15498819D01*
X-43304056Y-15451200D01*
X-43399294Y-15403580D01*
X-43637389Y-15403580D01*
X-43780246Y-15451200D01*
X-41280246Y-12914380D02*
X-41613580Y-13914380D01*
X-41946913Y-12914380D01*
X-42851675Y-13819142D02*
X-42804056Y-13866761D01*
X-42661199Y-13914380D01*
X-42565960Y-13914380D01*
X-42423103Y-13866761D01*
X-42327865Y-13771523D01*
X-42280246Y-13676285D01*
X-42232627Y-13485809D01*
X-42232627Y-13342952D01*
X-42280246Y-13152476D01*
X-42327865Y-13057238D01*
X-42423103Y-12962000D01*
X-42565960Y-12914380D01*
X-42661199Y-12914380D01*
X-42804056Y-12962000D01*
X-42851675Y-13009619D01*
X-43851675Y-13819142D02*
X-43804056Y-13866761D01*
X-43661199Y-13914380D01*
X-43565960Y-13914380D01*
X-43423103Y-13866761D01*
X-43327865Y-13771523D01*
X-43280246Y-13676285D01*
X-43232627Y-13485809D01*
X-43232627Y-13342952D01*
X-43280246Y-13152476D01*
X-43327865Y-13057238D01*
X-43423103Y-12962000D01*
X-43565960Y-12914380D01*
X-43661199Y-12914380D01*
X-43804056Y-12962000D01*
X-43851675Y-13009619D01*
X-41327865Y-10247380D02*
X-41899294Y-10247380D01*
X-41613580Y-11247380D02*
X-41613580Y-10247380D01*
X-42137389Y-10247380D02*
X-42804056Y-11247380D01*
X-42804056Y-10247380D02*
X-42137389Y-11247380D01*
X-43375484Y-10247380D02*
X-43565960Y-10247380D01*
X-43661199Y-10295000D01*
X-43756437Y-10390238D01*
X-43804056Y-10580714D01*
X-43804056Y-10914047D01*
X-43756437Y-11104523D01*
X-43661199Y-11199761D01*
X-43565960Y-11247380D01*
X-43375484Y-11247380D01*
X-43280246Y-11199761D01*
X-43185008Y-11104523D01*
X-43137389Y-10914047D01*
X-43137389Y-10580714D01*
X-43185008Y-10390238D01*
X-43280246Y-10295000D01*
X-43375484Y-10247380D01*
X-42208818Y-8765800D02*
X-41875484Y-8289610D01*
X-41637389Y-8765800D02*
X-41637389Y-7765800D01*
X-42018341Y-7765800D01*
X-42113580Y-7813420D01*
X-42161199Y-7861039D01*
X-42208818Y-7956277D01*
X-42208818Y-8099134D01*
X-42161199Y-8194372D01*
X-42113580Y-8241991D01*
X-42018341Y-8289610D01*
X-41637389Y-8289610D01*
X-42542151Y-7765800D02*
X-43208818Y-8765800D01*
X-43208818Y-7765800D02*
X-42542151Y-8765800D01*
X-43589770Y-8765800D02*
X-43589770Y-7765800D01*
X-41470722Y-6152140D02*
X-41470722Y-5152140D01*
X-41708818Y-5152140D01*
X-41851675Y-5199760D01*
X-41946913Y-5294998D01*
X-41994532Y-5390236D01*
X-42042151Y-5580712D01*
X-42042151Y-5723569D01*
X-41994532Y-5914045D01*
X-41946913Y-6009283D01*
X-41851675Y-6104521D01*
X-41708818Y-6152140D01*
X-41470722Y-6152140D01*
X-42327865Y-5152140D02*
X-42899294Y-5152140D01*
X-42613580Y-6152140D02*
X-42613580Y-5152140D01*
X-43804056Y-6152140D02*
X-43470722Y-5675950D01*
X-43232627Y-6152140D02*
X-43232627Y-5152140D01*
X-43613580Y-5152140D01*
X-43708818Y-5199760D01*
X-43756437Y-5247379D01*
X-43804056Y-5342617D01*
X-43804056Y-5485474D01*
X-43756437Y-5580712D01*
X-43708818Y-5628331D01*
X-43613580Y-5675950D01*
X-43232627Y-5675950D01*
X-74635858Y43747440D02*
X-74302524Y44747440D01*
X-73969191Y43747440D01*
X-73635858Y44747440D02*
X-73635858Y43747440D01*
X-73159667Y44747440D02*
X-73159667Y43747440D01*
X-72588239Y44747440D01*
X-72588239Y43747440D01*
X-79319024Y43810300D02*
X-79414262Y43762680D01*
X-79557120Y43762680D01*
X-79699977Y43810300D01*
X-79795215Y43905538D01*
X-79842834Y44000776D01*
X-79890453Y44191252D01*
X-79890453Y44334109D01*
X-79842834Y44524585D01*
X-79795215Y44619823D01*
X-79699977Y44715061D01*
X-79557120Y44762680D01*
X-79461881Y44762680D01*
X-79319024Y44715061D01*
X-79271405Y44667442D01*
X-79271405Y44334109D01*
X-79461881Y44334109D01*
X-78842834Y44762680D02*
X-78842834Y43762680D01*
X-78271405Y44762680D01*
X-78271405Y43762680D01*
X-77795215Y44762680D02*
X-77795215Y43762680D01*
X-77557120Y43762680D01*
X-77414262Y43810300D01*
X-77319024Y43905538D01*
X-77271405Y44000776D01*
X-77223786Y44191252D01*
X-77223786Y44334109D01*
X-77271405Y44524585D01*
X-77319024Y44619823D01*
X-77414262Y44715061D01*
X-77557120Y44762680D01*
X-77795215Y44762680D01*
X63819047Y-44298571D02*
X64580952Y-44298571D01*
X59111428Y-43989047D02*
X59111428Y-44750952D01*
X59492380Y-44370000D02*
X58730476Y-44370000D01*
X5384610Y44354381D02*
X5527467Y44402000D01*
X5765562Y44402000D01*
X5860800Y44354381D01*
X5908420Y44306762D01*
X5956039Y44211524D01*
X5956039Y44116286D01*
X5908420Y44021048D01*
X5860800Y43973429D01*
X5765562Y43925810D01*
X5575086Y43878191D01*
X5479848Y43830572D01*
X5432229Y43782953D01*
X5384610Y43687715D01*
X5384610Y43592477D01*
X5432229Y43497239D01*
X5479848Y43449620D01*
X5575086Y43402000D01*
X5813181Y43402000D01*
X5956039Y43449620D01*
X6384610Y44402000D02*
X6384610Y43402000D01*
X7384610Y43449620D02*
X7289372Y43402000D01*
X7146515Y43402000D01*
X7003658Y43449620D01*
X6908420Y43544858D01*
X6860800Y43640096D01*
X6813181Y43830572D01*
X6813181Y43973429D01*
X6860800Y44163905D01*
X6908420Y44259143D01*
X7003658Y44354381D01*
X7146515Y44402000D01*
X7241753Y44402000D01*
X7384610Y44354381D01*
X7432229Y44306762D01*
X7432229Y43973429D01*
X7241753Y43973429D01*
X-31000583Y43425500D02*
X-30667250Y44425500D01*
X-30333917Y43425500D01*
X-30000583Y44425500D02*
X-30000583Y43425500D01*
X-29667250Y44139786D01*
X-29333917Y43425500D01*
X-29333917Y44425500D01*
X-28667250Y43425500D02*
X-28476774Y43425500D01*
X-28381536Y43473120D01*
X-28286298Y43568358D01*
X-28238679Y43758834D01*
X-28238679Y44092167D01*
X-28286298Y44282643D01*
X-28381536Y44377881D01*
X-28476774Y44425500D01*
X-28667250Y44425500D01*
X-28762488Y44377881D01*
X-28857726Y44282643D01*
X-28905345Y44092167D01*
X-28905345Y43758834D01*
X-28857726Y43568358D01*
X-28762488Y43473120D01*
X-28667250Y43425500D01*
X-27952964Y43425500D02*
X-27381536Y43425500D01*
X-27667250Y44425500D02*
X-27667250Y43425500D01*
X-25014540Y44402640D02*
X-25014540Y43402640D01*
X-24776444Y43402640D01*
X-24633587Y43450260D01*
X-24538349Y43545498D01*
X-24490730Y43640736D01*
X-24443111Y43831212D01*
X-24443111Y43974069D01*
X-24490730Y44164545D01*
X-24538349Y44259783D01*
X-24633587Y44355021D01*
X-24776444Y44402640D01*
X-25014540Y44402640D01*
X-24014540Y44402640D02*
X-24014540Y43402640D01*
X-22966920Y44402640D02*
X-23300254Y43926450D01*
X-23538349Y44402640D02*
X-23538349Y43402640D01*
X-23157397Y43402640D01*
X-23062159Y43450260D01*
X-23014540Y43497879D01*
X-22966920Y43593117D01*
X-22966920Y43735974D01*
X-23014540Y43831212D01*
X-23062159Y43878831D01*
X-23157397Y43926450D01*
X-23538349Y43926450D01*
X-20112316Y44389940D02*
X-20112316Y43389940D01*
X-19731363Y43389940D01*
X-19636125Y43437560D01*
X-19588506Y43485179D01*
X-19540887Y43580417D01*
X-19540887Y43723274D01*
X-19588506Y43818512D01*
X-19636125Y43866131D01*
X-19731363Y43913750D01*
X-20112316Y43913750D01*
X-19112316Y43389940D02*
X-19112316Y44199464D01*
X-19064697Y44294702D01*
X-19017078Y44342321D01*
X-18921840Y44389940D01*
X-18731363Y44389940D01*
X-18636125Y44342321D01*
X-18588506Y44294702D01*
X-18540887Y44199464D01*
X-18540887Y43389940D01*
X-17588506Y44389940D02*
X-18064697Y44389940D01*
X-18064697Y43389940D01*
X10339865Y44005808D02*
X11101770Y44005808D01*
X10720818Y44386760D02*
X10720818Y43624856D01*
X12054151Y43386760D02*
X11577960Y43386760D01*
X11530341Y43862951D01*
X11577960Y43815332D01*
X11673199Y43767713D01*
X11911294Y43767713D01*
X12006532Y43815332D01*
X12054151Y43862951D01*
X12101770Y43958189D01*
X12101770Y44196284D01*
X12054151Y44291522D01*
X12006532Y44339141D01*
X11911294Y44386760D01*
X11673199Y44386760D01*
X11577960Y44339141D01*
X11530341Y44291522D01*
X12387484Y43386760D02*
X12720818Y44386760D01*
X13054151Y43386760D01*
X563975Y43449620D02*
X468737Y43402000D01*
X325879Y43402000D01*
X183022Y43449620D01*
X87784Y43544858D01*
X40165Y43640096D01*
X-7453Y43830572D01*
X-7453Y43973429D01*
X40165Y44163905D01*
X87784Y44259143D01*
X183022Y44354381D01*
X325880Y44402000D01*
X421118Y44402000D01*
X563975Y44354381D01*
X611594Y44306762D01*
X611594Y43973429D01*
X421118Y43973429D01*
X1040165Y44402000D02*
X1040165Y43402000D01*
X1611594Y44402000D01*
X1611594Y43402000D01*
X2087784Y44402000D02*
X2087784Y43402000D01*
X2325879Y43402000D01*
X2468737Y43449620D01*
X2563975Y43544858D01*
X2611594Y43640096D01*
X2659213Y43830572D01*
X2659213Y43973429D01*
X2611594Y44163905D01*
X2563975Y44259143D01*
X2468737Y44354381D01*
X2325880Y44402000D01*
X2087784Y44402000D01*
X-35022804Y43508680D02*
X-35118042Y43461060D01*
X-35260900Y43461060D01*
X-35403757Y43508680D01*
X-35498995Y43603918D01*
X-35546614Y43699156D01*
X-35594233Y43889632D01*
X-35594233Y44032489D01*
X-35546614Y44222965D01*
X-35498995Y44318203D01*
X-35403757Y44413441D01*
X-35260900Y44461060D01*
X-35165661Y44461060D01*
X-35022804Y44413441D01*
X-34975185Y44365822D01*
X-34975185Y44032489D01*
X-35165661Y44032489D01*
X-34546614Y44461060D02*
X-34546614Y43461060D01*
X-33975185Y44461060D01*
X-33975185Y43461060D01*
X-33498995Y44461060D02*
X-33498995Y43461060D01*
X-33260900Y43461060D01*
X-33118042Y43508680D01*
X-33022804Y43603918D01*
X-32975185Y43699156D01*
X-32927566Y43889632D01*
X-32927566Y44032489D01*
X-32975185Y44222965D01*
X-33022804Y44318203D01*
X-33118042Y44413441D01*
X-33260900Y44461060D01*
X-33498995Y44461060D01*
X17645475Y43436920D02*
X17550237Y43389300D01*
X17407380Y43389300D01*
X17264522Y43436920D01*
X17169284Y43532158D01*
X17121665Y43627396D01*
X17074046Y43817872D01*
X17074046Y43960729D01*
X17121665Y44151205D01*
X17169284Y44246443D01*
X17264522Y44341681D01*
X17407380Y44389300D01*
X17502618Y44389300D01*
X17645475Y44341681D01*
X17693094Y44294062D01*
X17693094Y43960729D01*
X17502618Y43960729D01*
X18121665Y44389300D02*
X18121665Y43389300D01*
X18693094Y44389300D01*
X18693094Y43389300D01*
X19169284Y44389300D02*
X19169284Y43389300D01*
X19407380Y43389300D01*
X19550237Y43436920D01*
X19645475Y43532158D01*
X19693094Y43627396D01*
X19740713Y43817872D01*
X19740713Y43960729D01*
X19693094Y44151205D01*
X19645475Y44246443D01*
X19550237Y44341681D01*
X19407380Y44389300D01*
X19169284Y44389300D01*
X22249925Y43960088D02*
X23011830Y43960088D01*
X22630878Y44341040D02*
X22630878Y43579136D01*
X23964211Y43341040D02*
X23488020Y43341040D01*
X23440401Y43817231D01*
X23488020Y43769612D01*
X23583259Y43721993D01*
X23821354Y43721993D01*
X23916592Y43769612D01*
X23964211Y43817231D01*
X24011830Y43912469D01*
X24011830Y44150564D01*
X23964211Y44245802D01*
X23916592Y44293421D01*
X23821354Y44341040D01*
X23583259Y44341040D01*
X23488020Y44293421D01*
X23440401Y44245802D01*
X24297544Y43341040D02*
X24630878Y44341040D01*
X24964211Y43341040D01*
D11*
X-21567380Y-16451060D02*
X-21567380Y-18291060D01*
X-21567380Y-18291060D02*
X-25407380Y-18291060D01*
X-25407380Y-18291060D02*
X-25407380Y-16451060D01*
X-25407380Y-16451060D02*
X-21567380Y-16451060D01*
X-20617380Y-17371060D02*
X-21567380Y-17371060D01*
X-26357380Y-17371060D02*
X-25407380Y-17371060D01*
D12*
X51866580Y15599920D02*
X51866580Y26299920D01*
X51866580Y26299920D02*
X81366580Y26299920D01*
X81366580Y26299920D02*
X81366580Y15599920D01*
X81366580Y15599920D02*
X51866580Y15599920D01*
X63165789Y14853920D02*
G75*
G03X63165789Y14853920I-359209J0D01*
G01*
X63060580Y14853920D02*
G75*
G03X63060580Y14853920I-254000J0D01*
G01*
X63060580Y14853920D02*
G75*
G03X63060580Y14853920I-254000J0D01*
G01*
X63060580Y14853920D02*
G75*
G03X63060580Y14853920I-254000J0D01*
G01*
X63016033Y14803120D02*
G75*
G03X63016033Y14803120I-209453J0D01*
G01*
X62949221Y14828520D02*
G75*
G03X62949221Y14828520I-193441J0D01*
G01*
X63023596Y14853920D02*
G75*
G03X63023596Y14853920I-217016J0D01*
G01*
X62937699Y14904720D02*
G75*
G03X62937699Y14904720I-80319J0D01*
G01*
X62894771Y14828520D02*
G75*
G03X62894771Y14828520I-113591J0D01*
G01*
X62933580Y14930120D02*
G75*
G03X62933580Y14930120I-127000J0D01*
G01*
D11*
X-81532880Y6682280D02*
X-81532880Y-41317720D01*
X-81532880Y-41317720D02*
X-58532880Y-41317720D01*
X-58532880Y6682280D02*
X-58532880Y-41317720D01*
X-81532880Y6682280D02*
X-58532880Y6682280D01*
X10871709Y37078885D02*
G75*
G03X11498580Y36934160I626871J1285275D01*
G01*
X10212756Y38991522D02*
G75*
G03X10212580Y37737160I1285824J-627362D01*
G01*
X12125942Y39649984D02*
G75*
G03X10871580Y39650160I-627362J-1285824D01*
G01*
X12785191Y37737414D02*
G75*
G03X12784580Y38992160I-1286611J626746D01*
G01*
X11474300Y36933220D02*
G75*
G03X12126580Y37078160I24280J1430940D01*
G01*
X7848580Y38364160D02*
G75*
G03X7848580Y38364160I-1430000J0D01*
G01*
X2768580Y38364160D02*
G75*
G03X2768580Y38364160I-1430000J0D01*
G01*
X14098580Y34814160D02*
X-1261420Y34814160D01*
X14098580Y35914160D02*
X-1261420Y35914160D01*
X14098580Y40914160D02*
X-1261420Y40914160D01*
X14098580Y42824160D02*
X-1261420Y42824160D01*
X14098580Y34254160D02*
X-1261420Y34254160D01*
X14098580Y42824160D02*
X14098580Y34254160D01*
X-1261420Y42824160D02*
X-1261420Y34254160D01*
X12748580Y42764160D02*
X10248580Y42764160D01*
X12748580Y41764160D02*
X10248580Y41764160D01*
X12748580Y42764160D02*
X12748580Y41764160D01*
X10248580Y42764160D02*
X10248580Y41764160D01*
X5333580Y39274160D02*
X5393580Y39215160D01*
X7288580Y37319160D02*
X7328580Y37279160D01*
X5507580Y39449160D02*
X5547580Y39409160D01*
X7442580Y37514160D02*
X7502580Y37454160D01*
X7668580Y42764160D02*
X5168580Y42764160D01*
X7668580Y41764160D02*
X5168580Y41764160D01*
X7668580Y42764160D02*
X7668580Y41764160D01*
X5168580Y42764160D02*
X5168580Y41764160D01*
X253580Y39274160D02*
X313580Y39215160D01*
X2208580Y37319160D02*
X2248580Y37279160D01*
X427580Y39449160D02*
X467580Y39409160D01*
X2362580Y37514160D02*
X2422580Y37454160D01*
X2588580Y42764160D02*
X88580Y42764160D01*
X2588580Y41764160D02*
X88580Y41764160D01*
X2588580Y42764160D02*
X2588580Y41764160D01*
X88580Y42764160D02*
X88580Y41764160D01*
X14338580Y34754160D02*
X14338580Y34014160D01*
X14338580Y34014160D02*
X13838580Y34014160D01*
D13*
G36*
X29113666Y15806000D02*
G01*
X29727186Y15806000D01*
X29732635Y17150414D01*
X29738083Y18494828D01*
X30128244Y17933581D01*
X30518405Y17372333D01*
X31009902Y17372333D01*
X31823000Y18542561D01*
X31823000Y15806000D01*
X32415666Y15806000D01*
X32415666Y19489000D01*
X32114041Y19488424D01*
X31812416Y19487847D01*
X31293833Y18737901D01*
X31184395Y18579976D01*
X31082334Y18433353D01*
X30990163Y18301591D01*
X30910393Y18188250D01*
X30845535Y18096891D01*
X30798101Y18031073D01*
X30770603Y17994358D01*
X30764666Y17987771D01*
X30750790Y18004572D01*
X30715420Y18052685D01*
X30661067Y18128549D01*
X30590244Y18228608D01*
X30505461Y18349304D01*
X30409232Y18487077D01*
X30304067Y18638371D01*
X30235500Y18737372D01*
X29716916Y19487157D01*
X29415291Y19488078D01*
X29113666Y19489000D01*
X29113666Y15806000D01*
X29113666Y15806000D01*
G37*
X29113666Y15806000D02*
X29727186Y15806000D01*
X29732635Y17150414D01*
X29738083Y18494828D01*
X30128244Y17933581D01*
X30518405Y17372333D01*
X31009902Y17372333D01*
X31823000Y18542561D01*
X31823000Y15806000D01*
X32415666Y15806000D01*
X32415666Y19489000D01*
X32114041Y19488424D01*
X31812416Y19487847D01*
X31293833Y18737901D01*
X31184395Y18579976D01*
X31082334Y18433353D01*
X30990163Y18301591D01*
X30910393Y18188250D01*
X30845535Y18096891D01*
X30798101Y18031073D01*
X30770603Y17994358D01*
X30764666Y17987771D01*
X30750790Y18004572D01*
X30715420Y18052685D01*
X30661067Y18128549D01*
X30590244Y18228608D01*
X30505461Y18349304D01*
X30409232Y18487077D01*
X30304067Y18638371D01*
X30235500Y18737372D01*
X29716916Y19487157D01*
X29415291Y19488078D01*
X29113666Y19489000D01*
X29113666Y15806000D01*
G36*
X26881703Y19487219D02*
G01*
X26697631Y19482966D01*
X26545384Y19474430D01*
X26419730Y19460429D01*
X26315435Y19439781D01*
X26227268Y19411301D01*
X26149996Y19373807D01*
X26078387Y19326116D01*
X26007209Y19267045D01*
X25969306Y19232078D01*
X25859291Y19100046D01*
X25776656Y18940672D01*
X25726920Y18768911D01*
X25722317Y18723145D01*
X25718143Y18639063D01*
X25714471Y18520682D01*
X25711375Y18372018D01*
X25708930Y18197088D01*
X25707208Y17999907D01*
X25706285Y17784493D01*
X25706146Y17639319D01*
X25706438Y17385206D01*
X25707341Y17169514D01*
X25709155Y16988332D01*
X25712175Y16837748D01*
X25716700Y16713852D01*
X25723026Y16612731D01*
X25731450Y16530476D01*
X25742270Y16463174D01*
X25755784Y16406914D01*
X25772287Y16357786D01*
X25792078Y16311877D01*
X25809728Y16276292D01*
X25901504Y16142060D01*
X26026209Y16025249D01*
X26176164Y15931324D01*
X26343688Y15865751D01*
X26409359Y15849609D01*
X26469778Y15841722D01*
X26564807Y15834888D01*
X26686733Y15829230D01*
X26827843Y15824875D01*
X26980424Y15821944D01*
X27136763Y15820562D01*
X27289146Y15820854D01*
X27429861Y15822943D01*
X27551194Y15826953D01*
X27610833Y15830289D01*
X27824450Y15858376D01*
X28004986Y15911422D01*
X28076500Y15943885D01*
X28150389Y15992724D01*
X28233547Y16063994D01*
X28312282Y16144565D01*
X28372898Y16221303D01*
X28383709Y16238506D01*
X28410995Y16285674D01*
X28433948Y16328897D01*
X28452976Y16372216D01*
X28468485Y16419669D01*
X28480882Y16475297D01*
X28490572Y16543139D01*
X28497963Y16627235D01*
X28503461Y16731625D01*
X28507472Y16860347D01*
X28510403Y17017442D01*
X28512661Y17206950D01*
X28512815Y17224437D01*
X27904408Y17224437D01*
X27903500Y17044157D01*
X27901435Y16899273D01*
X27898171Y16787476D01*
X27893669Y16706458D01*
X27887888Y16653910D01*
X27884339Y16636980D01*
X27837940Y16536149D01*
X27765159Y16460092D01*
X27687129Y16420908D01*
X27648513Y16415710D01*
X27574036Y16411338D01*
X27470169Y16407959D01*
X27343379Y16405735D01*
X27200135Y16404831D01*
X27070091Y16405226D01*
X26900107Y16406739D01*
X26767218Y16408740D01*
X26666186Y16411585D01*
X26591773Y16415628D01*
X26538741Y16421228D01*
X26501852Y16428739D01*
X26475868Y16438518D01*
X26461844Y16446587D01*
X26425466Y16473772D01*
X26394693Y16506073D01*
X26369106Y16546983D01*
X26348285Y16599994D01*
X26331812Y16668599D01*
X26319268Y16756290D01*
X26310235Y16866560D01*
X26304293Y17002900D01*
X26301023Y17168804D01*
X26300007Y17367764D01*
X26300827Y17603272D01*
X26302149Y17778174D01*
X26303781Y18025334D01*
X26305588Y18233563D01*
X26309871Y18406209D01*
X26318930Y18546621D01*
X26335065Y18658148D01*
X26360576Y18744139D01*
X26397764Y18807942D01*
X26448927Y18852905D01*
X26516367Y18882378D01*
X26602384Y18899709D01*
X26709276Y18908248D01*
X26839346Y18911341D01*
X26994892Y18912340D01*
X27081666Y18913085D01*
X27247036Y18914852D01*
X27375798Y18915657D01*
X27473672Y18915118D01*
X27546380Y18912854D01*
X27599643Y18908484D01*
X27639183Y18901624D01*
X27670720Y18891894D01*
X27699975Y18878912D01*
X27716182Y18870751D01*
X27792378Y18818733D01*
X27849234Y18755569D01*
X27853766Y18748167D01*
X27863833Y18729187D01*
X27872227Y18707596D01*
X27879130Y18679510D01*
X27884724Y18641041D01*
X27889192Y18588303D01*
X27892716Y18517410D01*
X27895479Y18424476D01*
X27897662Y18305615D01*
X27899448Y18156941D01*
X27901019Y17974566D01*
X27902557Y17754606D01*
X27902912Y17700417D01*
X27904198Y17442421D01*
X27904408Y17224437D01*
X28512815Y17224437D01*
X28514651Y17432910D01*
X28515580Y17549035D01*
X28517318Y17843966D01*
X28517523Y18097144D01*
X28516195Y18308465D01*
X28513336Y18477828D01*
X28508948Y18605130D01*
X28503032Y18690270D01*
X28500221Y18712606D01*
X28456958Y18894843D01*
X28386334Y19049383D01*
X28284680Y19183611D01*
X28247655Y19220956D01*
X28172800Y19288908D01*
X28101110Y19344415D01*
X28027311Y19388710D01*
X27946133Y19423024D01*
X27852304Y19448587D01*
X27740551Y19466632D01*
X27605605Y19478390D01*
X27442191Y19485093D01*
X27245040Y19487971D01*
X27102833Y19488374D01*
X26881703Y19487219D01*
X26881703Y19487219D01*
G37*
X26881703Y19487219D02*
X26697631Y19482966D01*
X26545384Y19474430D01*
X26419730Y19460429D01*
X26315435Y19439781D01*
X26227268Y19411301D01*
X26149996Y19373807D01*
X26078387Y19326116D01*
X26007209Y19267045D01*
X25969306Y19232078D01*
X25859291Y19100046D01*
X25776656Y18940672D01*
X25726920Y18768911D01*
X25722317Y18723145D01*
X25718143Y18639063D01*
X25714471Y18520682D01*
X25711375Y18372018D01*
X25708930Y18197088D01*
X25707208Y17999907D01*
X25706285Y17784493D01*
X25706146Y17639319D01*
X25706438Y17385206D01*
X25707341Y17169514D01*
X25709155Y16988332D01*
X25712175Y16837748D01*
X25716700Y16713852D01*
X25723026Y16612731D01*
X25731450Y16530476D01*
X25742270Y16463174D01*
X25755784Y16406914D01*
X25772287Y16357786D01*
X25792078Y16311877D01*
X25809728Y16276292D01*
X25901504Y16142060D01*
X26026209Y16025249D01*
X26176164Y15931324D01*
X26343688Y15865751D01*
X26409359Y15849609D01*
X26469778Y15841722D01*
X26564807Y15834888D01*
X26686733Y15829230D01*
X26827843Y15824875D01*
X26980424Y15821944D01*
X27136763Y15820562D01*
X27289146Y15820854D01*
X27429861Y15822943D01*
X27551194Y15826953D01*
X27610833Y15830289D01*
X27824450Y15858376D01*
X28004986Y15911422D01*
X28076500Y15943885D01*
X28150389Y15992724D01*
X28233547Y16063994D01*
X28312282Y16144565D01*
X28372898Y16221303D01*
X28383709Y16238506D01*
X28410995Y16285674D01*
X28433948Y16328897D01*
X28452976Y16372216D01*
X28468485Y16419669D01*
X28480882Y16475297D01*
X28490572Y16543139D01*
X28497963Y16627235D01*
X28503461Y16731625D01*
X28507472Y16860347D01*
X28510403Y17017442D01*
X28512661Y17206950D01*
X28512815Y17224437D01*
X27904408Y17224437D01*
X27903500Y17044157D01*
X27901435Y16899273D01*
X27898171Y16787476D01*
X27893669Y16706458D01*
X27887888Y16653910D01*
X27884339Y16636980D01*
X27837940Y16536149D01*
X27765159Y16460092D01*
X27687129Y16420908D01*
X27648513Y16415710D01*
X27574036Y16411338D01*
X27470169Y16407959D01*
X27343379Y16405735D01*
X27200135Y16404831D01*
X27070091Y16405226D01*
X26900107Y16406739D01*
X26767218Y16408740D01*
X26666186Y16411585D01*
X26591773Y16415628D01*
X26538741Y16421228D01*
X26501852Y16428739D01*
X26475868Y16438518D01*
X26461844Y16446587D01*
X26425466Y16473772D01*
X26394693Y16506073D01*
X26369106Y16546983D01*
X26348285Y16599994D01*
X26331812Y16668599D01*
X26319268Y16756290D01*
X26310235Y16866560D01*
X26304293Y17002900D01*
X26301023Y17168804D01*
X26300007Y17367764D01*
X26300827Y17603272D01*
X26302149Y17778174D01*
X26303781Y18025334D01*
X26305588Y18233563D01*
X26309871Y18406209D01*
X26318930Y18546621D01*
X26335065Y18658148D01*
X26360576Y18744139D01*
X26397764Y18807942D01*
X26448927Y18852905D01*
X26516367Y18882378D01*
X26602384Y18899709D01*
X26709276Y18908248D01*
X26839346Y18911341D01*
X26994892Y18912340D01*
X27081666Y18913085D01*
X27247036Y18914852D01*
X27375798Y18915657D01*
X27473672Y18915118D01*
X27546380Y18912854D01*
X27599643Y18908484D01*
X27639183Y18901624D01*
X27670720Y18891894D01*
X27699975Y18878912D01*
X27716182Y18870751D01*
X27792378Y18818733D01*
X27849234Y18755569D01*
X27853766Y18748167D01*
X27863833Y18729187D01*
X27872227Y18707596D01*
X27879130Y18679510D01*
X27884724Y18641041D01*
X27889192Y18588303D01*
X27892716Y18517410D01*
X27895479Y18424476D01*
X27897662Y18305615D01*
X27899448Y18156941D01*
X27901019Y17974566D01*
X27902557Y17754606D01*
X27902912Y17700417D01*
X27904198Y17442421D01*
X27904408Y17224437D01*
X28512815Y17224437D01*
X28514651Y17432910D01*
X28515580Y17549035D01*
X28517318Y17843966D01*
X28517523Y18097144D01*
X28516195Y18308465D01*
X28513336Y18477828D01*
X28508948Y18605130D01*
X28503032Y18690270D01*
X28500221Y18712606D01*
X28456958Y18894843D01*
X28386334Y19049383D01*
X28284680Y19183611D01*
X28247655Y19220956D01*
X28172800Y19288908D01*
X28101110Y19344415D01*
X28027311Y19388710D01*
X27946133Y19423024D01*
X27852304Y19448587D01*
X27740551Y19466632D01*
X27605605Y19478390D01*
X27442191Y19485093D01*
X27245040Y19487971D01*
X27102833Y19488374D01*
X26881703Y19487219D01*
G36*
X22403833Y15806000D02*
G01*
X22996500Y15806000D01*
X22996500Y16827394D01*
X24509916Y18639020D01*
X24520798Y15806000D01*
X25113166Y15806000D01*
X25113166Y19489000D01*
X24509916Y19488294D01*
X23758500Y18587286D01*
X23007083Y17686278D01*
X22996045Y19489000D01*
X22403833Y19489000D01*
X22403833Y15806000D01*
X22403833Y15806000D01*
G37*
X22403833Y15806000D02*
X22996500Y15806000D01*
X22996500Y16827394D01*
X24509916Y18639020D01*
X24520798Y15806000D01*
X25113166Y15806000D01*
X25113166Y19489000D01*
X24509916Y19488294D01*
X23758500Y18587286D01*
X23007083Y17686278D01*
X22996045Y19489000D01*
X22403833Y19489000D01*
X22403833Y15806000D01*
G36*
X16810227Y19408394D02*
G01*
X16648722Y19307967D01*
X16510106Y19178772D01*
X16398595Y19027272D01*
X16318402Y18859931D01*
X16273743Y18683212D01*
X16265751Y18573542D01*
X16265500Y18473000D01*
X16852244Y18473000D01*
X16864677Y18593463D01*
X16887829Y18704386D01*
X16936016Y18789760D01*
X17016982Y18862680D01*
X17028778Y18870882D01*
X17052035Y18885930D01*
X17075702Y18897430D01*
X17105380Y18905778D01*
X17146667Y18911374D01*
X17205164Y18914617D01*
X17286471Y18915904D01*
X17396189Y18915635D01*
X17539916Y18914207D01*
X17623654Y18913215D01*
X18147060Y18906917D01*
X18222018Y18834227D01*
X18295842Y18741457D01*
X18341815Y18638211D01*
X18355311Y18536289D01*
X18351628Y18503763D01*
X18335511Y18447593D01*
X18306867Y18394006D01*
X18262532Y18340956D01*
X18199340Y18286395D01*
X18114130Y18228275D01*
X18003734Y18164551D01*
X17864991Y18093174D01*
X17694735Y18012097D01*
X17489802Y17919273D01*
X17358959Y17861505D01*
X17117709Y17750247D01*
X16914471Y17643963D01*
X16745623Y17539966D01*
X16607542Y17435567D01*
X16496605Y17328080D01*
X16409192Y17214816D01*
X16351758Y17114191D01*
X16290331Y16943873D01*
X16267476Y16767449D01*
X16281122Y16590658D01*
X16329196Y16419239D01*
X16409630Y16258931D01*
X16520351Y16115473D01*
X16659288Y15994603D01*
X16782167Y15921533D01*
X16848128Y15891182D01*
X16912890Y15867216D01*
X16982201Y15849056D01*
X17061812Y15836120D01*
X17157473Y15827828D01*
X17274935Y15823598D01*
X17419946Y15822851D01*
X17598257Y15825005D01*
X17715416Y15827275D01*
X17878430Y15831005D01*
X18005330Y15834867D01*
X18102333Y15839427D01*
X18175658Y15845256D01*
X18231521Y15852919D01*
X18276141Y15862987D01*
X18315733Y15876026D01*
X18335922Y15883974D01*
X18507555Y15976273D01*
X18654737Y16100529D01*
X18773956Y16251908D01*
X18861702Y16425577D01*
X18914465Y16616699D01*
X18924788Y16694786D01*
X18938579Y16843167D01*
X18345730Y16843167D01*
X18332953Y16735291D01*
X18300984Y16605697D01*
X18238505Y16504502D01*
X18171517Y16446364D01*
X18148020Y16431536D01*
X18123338Y16420151D01*
X18091847Y16411756D01*
X18047921Y16405898D01*
X17985935Y16402126D01*
X17900263Y16399987D01*
X17785282Y16399029D01*
X17635364Y16398800D01*
X17579995Y16398806D01*
X17416372Y16399091D01*
X17289567Y16400098D01*
X17194068Y16402208D01*
X17124361Y16405801D01*
X17074933Y16411256D01*
X17040271Y16418953D01*
X17014860Y16429272D01*
X16998741Y16438839D01*
X16917686Y16516095D01*
X16863858Y16616897D01*
X16841354Y16729334D01*
X16854274Y16841493D01*
X16857082Y16850463D01*
X16880088Y16903925D01*
X16914871Y16954989D01*
X16964914Y17005840D01*
X17033701Y17058665D01*
X17124718Y17115649D01*
X17241449Y17178978D01*
X17387378Y17250838D01*
X17565991Y17333415D01*
X17775409Y17426543D01*
X17909806Y17486956D01*
X18043421Y17549566D01*
X18166694Y17609709D01*
X18270064Y17662722D01*
X18343877Y17703882D01*
X18536654Y17837822D01*
X18691920Y17983925D01*
X18808789Y18140643D01*
X18886375Y18306430D01*
X18923792Y18479738D01*
X18920153Y18659020D01*
X18913794Y18698898D01*
X18857320Y18892938D01*
X18764550Y19068068D01*
X18638787Y19219903D01*
X18483336Y19344061D01*
X18386326Y19398988D01*
X18225612Y19478417D01*
X16953416Y19478417D01*
X16810227Y19408394D01*
X16810227Y19408394D01*
G37*
X16810227Y19408394D02*
X16648722Y19307967D01*
X16510106Y19178772D01*
X16398595Y19027272D01*
X16318402Y18859931D01*
X16273743Y18683212D01*
X16265751Y18573542D01*
X16265500Y18473000D01*
X16852244Y18473000D01*
X16864677Y18593463D01*
X16887829Y18704386D01*
X16936016Y18789760D01*
X17016982Y18862680D01*
X17028778Y18870882D01*
X17052035Y18885930D01*
X17075702Y18897430D01*
X17105380Y18905778D01*
X17146667Y18911374D01*
X17205164Y18914617D01*
X17286471Y18915904D01*
X17396189Y18915635D01*
X17539916Y18914207D01*
X17623654Y18913215D01*
X18147060Y18906917D01*
X18222018Y18834227D01*
X18295842Y18741457D01*
X18341815Y18638211D01*
X18355311Y18536289D01*
X18351628Y18503763D01*
X18335511Y18447593D01*
X18306867Y18394006D01*
X18262532Y18340956D01*
X18199340Y18286395D01*
X18114130Y18228275D01*
X18003734Y18164551D01*
X17864991Y18093174D01*
X17694735Y18012097D01*
X17489802Y17919273D01*
X17358959Y17861505D01*
X17117709Y17750247D01*
X16914471Y17643963D01*
X16745623Y17539966D01*
X16607542Y17435567D01*
X16496605Y17328080D01*
X16409192Y17214816D01*
X16351758Y17114191D01*
X16290331Y16943873D01*
X16267476Y16767449D01*
X16281122Y16590658D01*
X16329196Y16419239D01*
X16409630Y16258931D01*
X16520351Y16115473D01*
X16659288Y15994603D01*
X16782167Y15921533D01*
X16848128Y15891182D01*
X16912890Y15867216D01*
X16982201Y15849056D01*
X17061812Y15836120D01*
X17157473Y15827828D01*
X17274935Y15823598D01*
X17419946Y15822851D01*
X17598257Y15825005D01*
X17715416Y15827275D01*
X17878430Y15831005D01*
X18005330Y15834867D01*
X18102333Y15839427D01*
X18175658Y15845256D01*
X18231521Y15852919D01*
X18276141Y15862987D01*
X18315733Y15876026D01*
X18335922Y15883974D01*
X18507555Y15976273D01*
X18654737Y16100529D01*
X18773956Y16251908D01*
X18861702Y16425577D01*
X18914465Y16616699D01*
X18924788Y16694786D01*
X18938579Y16843167D01*
X18345730Y16843167D01*
X18332953Y16735291D01*
X18300984Y16605697D01*
X18238505Y16504502D01*
X18171517Y16446364D01*
X18148020Y16431536D01*
X18123338Y16420151D01*
X18091847Y16411756D01*
X18047921Y16405898D01*
X17985935Y16402126D01*
X17900263Y16399987D01*
X17785282Y16399029D01*
X17635364Y16398800D01*
X17579995Y16398806D01*
X17416372Y16399091D01*
X17289567Y16400098D01*
X17194068Y16402208D01*
X17124361Y16405801D01*
X17074933Y16411256D01*
X17040271Y16418953D01*
X17014860Y16429272D01*
X16998741Y16438839D01*
X16917686Y16516095D01*
X16863858Y16616897D01*
X16841354Y16729334D01*
X16854274Y16841493D01*
X16857082Y16850463D01*
X16880088Y16903925D01*
X16914871Y16954989D01*
X16964914Y17005840D01*
X17033701Y17058665D01*
X17124718Y17115649D01*
X17241449Y17178978D01*
X17387378Y17250838D01*
X17565991Y17333415D01*
X17775409Y17426543D01*
X17909806Y17486956D01*
X18043421Y17549566D01*
X18166694Y17609709D01*
X18270064Y17662722D01*
X18343877Y17703882D01*
X18536654Y17837822D01*
X18691920Y17983925D01*
X18808789Y18140643D01*
X18886375Y18306430D01*
X18923792Y18479738D01*
X18920153Y18659020D01*
X18913794Y18698898D01*
X18857320Y18892938D01*
X18764550Y19068068D01*
X18638787Y19219903D01*
X18483336Y19344061D01*
X18386326Y19398988D01*
X18225612Y19478417D01*
X16953416Y19478417D01*
X16810227Y19408394D01*
G36*
X21102083Y17967814D02*
G01*
X20488250Y18727073D01*
X19874416Y19486333D01*
X19474957Y19487667D01*
X19075497Y19489000D01*
X19190293Y19356708D01*
X19425625Y19085340D01*
X19634511Y18844046D01*
X19818409Y18631065D01*
X19978776Y18444635D01*
X20117067Y18282993D01*
X20234739Y18144378D01*
X20333248Y18027026D01*
X20414052Y17929176D01*
X20478606Y17849065D01*
X20528367Y17784932D01*
X20564792Y17735013D01*
X20589337Y17697546D01*
X20603459Y17670770D01*
X20608614Y17652922D01*
X20606722Y17642925D01*
X20589042Y17620961D01*
X20546484Y17570879D01*
X20482210Y17496282D01*
X20399379Y17400770D01*
X20301152Y17287944D01*
X20190689Y17161404D01*
X20071150Y17024752D01*
X19945695Y16881589D01*
X19817485Y16735514D01*
X19689681Y16590130D01*
X19565442Y16449037D01*
X19447929Y16315835D01*
X19340302Y16194126D01*
X19245721Y16087511D01*
X19167348Y15999590D01*
X19108341Y15933964D01*
X19073486Y15895958D01*
X19008862Y15827167D01*
X19819581Y15827167D01*
X21102083Y17339543D01*
X21113201Y15827167D01*
X21726500Y15827167D01*
X21726500Y19489000D01*
X21113195Y19489000D01*
X21102083Y17967814D01*
X21102083Y17967814D01*
G37*
X21102083Y17967814D02*
X20488250Y18727073D01*
X19874416Y19486333D01*
X19474957Y19487667D01*
X19075497Y19489000D01*
X19190293Y19356708D01*
X19425625Y19085340D01*
X19634511Y18844046D01*
X19818409Y18631065D01*
X19978776Y18444635D01*
X20117067Y18282993D01*
X20234739Y18144378D01*
X20333248Y18027026D01*
X20414052Y17929176D01*
X20478606Y17849065D01*
X20528367Y17784932D01*
X20564792Y17735013D01*
X20589337Y17697546D01*
X20603459Y17670770D01*
X20608614Y17652922D01*
X20606722Y17642925D01*
X20589042Y17620961D01*
X20546484Y17570879D01*
X20482210Y17496282D01*
X20399379Y17400770D01*
X20301152Y17287944D01*
X20190689Y17161404D01*
X20071150Y17024752D01*
X19945695Y16881589D01*
X19817485Y16735514D01*
X19689681Y16590130D01*
X19565442Y16449037D01*
X19447929Y16315835D01*
X19340302Y16194126D01*
X19245721Y16087511D01*
X19167348Y15999590D01*
X19108341Y15933964D01*
X19073486Y15895958D01*
X19008862Y15827167D01*
X19819581Y15827167D01*
X21102083Y17339543D01*
X21113201Y15827167D01*
X21726500Y15827167D01*
X21726500Y19489000D01*
X21113195Y19489000D01*
X21102083Y17967814D01*
G36*
X32115473Y23929290D02*
G01*
X31815279Y23923417D01*
X31299098Y23182583D01*
X31189412Y23025761D01*
X31086830Y22880251D01*
X30993930Y22749627D01*
X30913292Y22637463D01*
X30847495Y22547333D01*
X30799117Y22482810D01*
X30770739Y22447469D01*
X30764464Y22441750D01*
X30749431Y22458431D01*
X30713414Y22505550D01*
X30659499Y22578725D01*
X30590774Y22673569D01*
X30510327Y22785701D01*
X30421244Y22910734D01*
X30326613Y23044287D01*
X30229522Y23181973D01*
X30133058Y23319409D01*
X30040309Y23452212D01*
X29954361Y23575997D01*
X29878303Y23686379D01*
X29815221Y23778976D01*
X29768204Y23849402D01*
X29740338Y23893273D01*
X29734228Y23904663D01*
X29720826Y23916682D01*
X29687578Y23925098D01*
X29628807Y23930438D01*
X29538837Y23933229D01*
X29418319Y23934000D01*
X29113666Y23934000D01*
X29113666Y20251000D01*
X29727500Y20251000D01*
X29727500Y22945815D01*
X30513534Y21817333D01*
X31015284Y21817333D01*
X31413850Y22390088D01*
X31812416Y22962842D01*
X31817864Y21606921D01*
X31823311Y20251000D01*
X32415666Y20251000D01*
X32415666Y23935162D01*
X32115473Y23929290D01*
X32115473Y23929290D01*
G37*
X32115473Y23929290D02*
X31815279Y23923417D01*
X31299098Y23182583D01*
X31189412Y23025761D01*
X31086830Y22880251D01*
X30993930Y22749627D01*
X30913292Y22637463D01*
X30847495Y22547333D01*
X30799117Y22482810D01*
X30770739Y22447469D01*
X30764464Y22441750D01*
X30749431Y22458431D01*
X30713414Y22505550D01*
X30659499Y22578725D01*
X30590774Y22673569D01*
X30510327Y22785701D01*
X30421244Y22910734D01*
X30326613Y23044287D01*
X30229522Y23181973D01*
X30133058Y23319409D01*
X30040309Y23452212D01*
X29954361Y23575997D01*
X29878303Y23686379D01*
X29815221Y23778976D01*
X29768204Y23849402D01*
X29740338Y23893273D01*
X29734228Y23904663D01*
X29720826Y23916682D01*
X29687578Y23925098D01*
X29628807Y23930438D01*
X29538837Y23933229D01*
X29418319Y23934000D01*
X29113666Y23934000D01*
X29113666Y20251000D01*
X29727500Y20251000D01*
X29727500Y22945815D01*
X30513534Y21817333D01*
X31015284Y21817333D01*
X31413850Y22390088D01*
X31812416Y22962842D01*
X31817864Y21606921D01*
X31823311Y20251000D01*
X32415666Y20251000D01*
X32415666Y23935162D01*
X32115473Y23929290D01*
G36*
X25917500Y23362500D02*
G01*
X27886000Y23362500D01*
X27886000Y22388833D01*
X26467833Y22388833D01*
X26467833Y21817333D01*
X27886000Y21817333D01*
X27886000Y20822500D01*
X25917500Y20822500D01*
X25917500Y20251000D01*
X28499833Y20251000D01*
X28499833Y23934000D01*
X25917500Y23934000D01*
X25917500Y23362500D01*
X25917500Y23362500D01*
G37*
X25917500Y23362500D02*
X27886000Y23362500D01*
X27886000Y22388833D01*
X26467833Y22388833D01*
X26467833Y21817333D01*
X27886000Y21817333D01*
X27886000Y20822500D01*
X25917500Y20822500D01*
X25917500Y20251000D01*
X28499833Y20251000D01*
X28499833Y23934000D01*
X25917500Y23934000D01*
X25917500Y23362500D01*
G36*
X24441125Y23933840D02*
G01*
X24195738Y23933469D01*
X23988383Y23932258D01*
X23814759Y23929915D01*
X23670569Y23926150D01*
X23551513Y23920675D01*
X23453292Y23913197D01*
X23371607Y23903428D01*
X23302160Y23891077D01*
X23240652Y23875854D01*
X23182783Y23857469D01*
X23153743Y23846952D01*
X23053323Y23795071D01*
X22947017Y23716773D01*
X22847467Y23623395D01*
X22767316Y23526273D01*
X22733310Y23469952D01*
X22710255Y23422519D01*
X22690762Y23377201D01*
X22674533Y23330108D01*
X22661268Y23277350D01*
X22650670Y23215035D01*
X22642441Y23139274D01*
X22636282Y23046174D01*
X22631895Y22931845D01*
X22628982Y22792397D01*
X22627244Y22623939D01*
X22626383Y22422580D01*
X22626101Y22184429D01*
X22626083Y22071333D01*
X22626129Y21830867D01*
X22626367Y21628802D01*
X22626950Y21461209D01*
X22628030Y21324157D01*
X22629760Y21213713D01*
X22632291Y21125948D01*
X22635777Y21056931D01*
X22640368Y21002729D01*
X22646219Y20959414D01*
X22653480Y20923052D01*
X22662304Y20889714D01*
X22672844Y20855469D01*
X22673232Y20854250D01*
X22748564Y20682464D01*
X22856305Y20537753D01*
X22995778Y20420783D01*
X23166307Y20332219D01*
X23225993Y20310428D01*
X23260286Y20299476D01*
X23294262Y20290330D01*
X23332028Y20282791D01*
X23377694Y20276661D01*
X23435368Y20271741D01*
X23509158Y20267832D01*
X23603173Y20264737D01*
X23721522Y20262255D01*
X23868312Y20260190D01*
X24047653Y20258341D01*
X24263652Y20256511D01*
X24356458Y20255777D01*
X25346000Y20248026D01*
X25346000Y20818737D01*
X24732166Y20818737D01*
X24102458Y20825910D01*
X23921420Y20828132D01*
X23777686Y20830450D01*
X23666229Y20833224D01*
X23582021Y20836812D01*
X23520033Y20841574D01*
X23475238Y20847870D01*
X23442607Y20856059D01*
X23417114Y20866501D01*
X23399415Y20876166D01*
X23338002Y20925129D01*
X23286582Y20986731D01*
X23282999Y20992582D01*
X23273131Y21010675D01*
X23264897Y21030922D01*
X23258148Y21057093D01*
X23252738Y21092954D01*
X23248518Y21142274D01*
X23245341Y21208819D01*
X23243060Y21296357D01*
X23241526Y21408657D01*
X23240593Y21549484D01*
X23240112Y21722608D01*
X23239937Y21931796D01*
X23239916Y22092500D01*
X23239972Y22327754D01*
X23240238Y22524445D01*
X23240859Y22686344D01*
X23241985Y22817220D01*
X23243761Y22920844D01*
X23246334Y23000987D01*
X23249853Y23061418D01*
X23254463Y23105909D01*
X23260311Y23138228D01*
X23267546Y23162147D01*
X23276313Y23181437D01*
X23282839Y23193167D01*
X23331326Y23251936D01*
X23396326Y23302163D01*
X23409839Y23309583D01*
X23437057Y23321899D01*
X23467739Y23331687D01*
X23507052Y23339308D01*
X23560162Y23345122D01*
X23632236Y23349490D01*
X23728440Y23352772D01*
X23853942Y23355329D01*
X24013907Y23357520D01*
X24113041Y23358642D01*
X24732166Y23365368D01*
X24732166Y20818737D01*
X25346000Y20818737D01*
X25346000Y23934000D01*
X24441125Y23933840D01*
X24441125Y23933840D01*
G37*
X24441125Y23933840D02*
X24195738Y23933469D01*
X23988383Y23932258D01*
X23814759Y23929915D01*
X23670569Y23926150D01*
X23551513Y23920675D01*
X23453292Y23913197D01*
X23371607Y23903428D01*
X23302160Y23891077D01*
X23240652Y23875854D01*
X23182783Y23857469D01*
X23153743Y23846952D01*
X23053323Y23795071D01*
X22947017Y23716773D01*
X22847467Y23623395D01*
X22767316Y23526273D01*
X22733310Y23469952D01*
X22710255Y23422519D01*
X22690762Y23377201D01*
X22674533Y23330108D01*
X22661268Y23277350D01*
X22650670Y23215035D01*
X22642441Y23139274D01*
X22636282Y23046174D01*
X22631895Y22931845D01*
X22628982Y22792397D01*
X22627244Y22623939D01*
X22626383Y22422580D01*
X22626101Y22184429D01*
X22626083Y22071333D01*
X22626129Y21830867D01*
X22626367Y21628802D01*
X22626950Y21461209D01*
X22628030Y21324157D01*
X22629760Y21213713D01*
X22632291Y21125948D01*
X22635777Y21056931D01*
X22640368Y21002729D01*
X22646219Y20959414D01*
X22653480Y20923052D01*
X22662304Y20889714D01*
X22672844Y20855469D01*
X22673232Y20854250D01*
X22748564Y20682464D01*
X22856305Y20537753D01*
X22995778Y20420783D01*
X23166307Y20332219D01*
X23225993Y20310428D01*
X23260286Y20299476D01*
X23294262Y20290330D01*
X23332028Y20282791D01*
X23377694Y20276661D01*
X23435368Y20271741D01*
X23509158Y20267832D01*
X23603173Y20264737D01*
X23721522Y20262255D01*
X23868312Y20260190D01*
X24047653Y20258341D01*
X24263652Y20256511D01*
X24356458Y20255777D01*
X25346000Y20248026D01*
X25346000Y20818737D01*
X24732166Y20818737D01*
X24102458Y20825910D01*
X23921420Y20828132D01*
X23777686Y20830450D01*
X23666229Y20833224D01*
X23582021Y20836812D01*
X23520033Y20841574D01*
X23475238Y20847870D01*
X23442607Y20856059D01*
X23417114Y20866501D01*
X23399415Y20876166D01*
X23338002Y20925129D01*
X23286582Y20986731D01*
X23282999Y20992582D01*
X23273131Y21010675D01*
X23264897Y21030922D01*
X23258148Y21057093D01*
X23252738Y21092954D01*
X23248518Y21142274D01*
X23245341Y21208819D01*
X23243060Y21296357D01*
X23241526Y21408657D01*
X23240593Y21549484D01*
X23240112Y21722608D01*
X23239937Y21931796D01*
X23239916Y22092500D01*
X23239972Y22327754D01*
X23240238Y22524445D01*
X23240859Y22686344D01*
X23241985Y22817220D01*
X23243761Y22920844D01*
X23246334Y23000987D01*
X23249853Y23061418D01*
X23254463Y23105909D01*
X23260311Y23138228D01*
X23267546Y23162147D01*
X23276313Y23181437D01*
X23282839Y23193167D01*
X23331326Y23251936D01*
X23396326Y23302163D01*
X23409839Y23309583D01*
X23437057Y23321899D01*
X23467739Y23331687D01*
X23507052Y23339308D01*
X23560162Y23345122D01*
X23632236Y23349490D01*
X23728440Y23352772D01*
X23853942Y23355329D01*
X24013907Y23357520D01*
X24113041Y23358642D01*
X24732166Y23365368D01*
X24732166Y20818737D01*
X25346000Y20818737D01*
X25346000Y23934000D01*
X24441125Y23933840D01*
G36*
X19842666Y23362500D02*
G01*
X20710500Y23362500D01*
X20710500Y20822500D01*
X19842666Y20822500D01*
X19842666Y20251000D01*
X22192166Y20251000D01*
X22192166Y20822500D01*
X21324333Y20822500D01*
X21324333Y23362500D01*
X22192166Y23362500D01*
X22192166Y23934000D01*
X19842666Y23934000D01*
X19842666Y23362500D01*
X19842666Y23362500D01*
G37*
X19842666Y23362500D02*
X20710500Y23362500D01*
X20710500Y20822500D01*
X19842666Y20822500D01*
X19842666Y20251000D01*
X22192166Y20251000D01*
X22192166Y20822500D01*
X21324333Y20822500D01*
X21324333Y23362500D01*
X22192166Y23362500D01*
X22192166Y23934000D01*
X19842666Y23934000D01*
X19842666Y23362500D01*
G36*
X17474036Y23859917D02*
G01*
X17451977Y23827322D01*
X17415081Y23761160D01*
X17365756Y23666524D01*
X17306405Y23548510D01*
X17239433Y23412215D01*
X17167246Y23262732D01*
X17092248Y23105158D01*
X17016844Y22944587D01*
X16943440Y22786116D01*
X16874439Y22634838D01*
X16812248Y22495851D01*
X16759271Y22374249D01*
X16717913Y22275127D01*
X16690578Y22203580D01*
X16686397Y22191156D01*
X16676645Y22158153D01*
X16668613Y22122390D01*
X16662137Y22079603D01*
X16657052Y22025525D01*
X16653192Y21955892D01*
X16650393Y21866438D01*
X16648490Y21752897D01*
X16647319Y21611004D01*
X16646713Y21436494D01*
X16646508Y21225100D01*
X16646500Y21159281D01*
X16646500Y20251000D01*
X17260333Y20251000D01*
X17260333Y21267000D01*
X18763166Y21267000D01*
X18763166Y20251000D01*
X19378242Y20251000D01*
X19372329Y21208792D01*
X19367745Y21951450D01*
X18763166Y21951450D01*
X18763166Y21838500D01*
X17260333Y21838500D01*
X17260945Y21949625D01*
X17262789Y21983711D01*
X17269147Y22021369D01*
X17281820Y22067068D01*
X17302606Y22125273D01*
X17333306Y22200452D01*
X17375718Y22297070D01*
X17431643Y22419595D01*
X17502880Y22572493D01*
X17565811Y22706333D01*
X17870065Y23351917D01*
X18155227Y23351917D01*
X18459197Y22708158D01*
X18542529Y22531121D01*
X18609253Y22387702D01*
X18661176Y22273400D01*
X18700108Y22183716D01*
X18727854Y22114148D01*
X18746224Y22060198D01*
X18757024Y22017364D01*
X18762063Y21981147D01*
X18763166Y21951450D01*
X19367745Y21951450D01*
X19366416Y22166583D01*
X18988445Y22985000D01*
X18878523Y23221317D01*
X18784629Y23419495D01*
X18706328Y23580396D01*
X18643188Y23704883D01*
X18594776Y23793819D01*
X18560659Y23848068D01*
X18547847Y23863417D01*
X18485220Y23923417D01*
X17536314Y23923417D01*
X17474036Y23859917D01*
X17474036Y23859917D01*
G37*
X17474036Y23859917D02*
X17451977Y23827322D01*
X17415081Y23761160D01*
X17365756Y23666524D01*
X17306405Y23548510D01*
X17239433Y23412215D01*
X17167246Y23262732D01*
X17092248Y23105158D01*
X17016844Y22944587D01*
X16943440Y22786116D01*
X16874439Y22634838D01*
X16812248Y22495851D01*
X16759271Y22374249D01*
X16717913Y22275127D01*
X16690578Y22203580D01*
X16686397Y22191156D01*
X16676645Y22158153D01*
X16668613Y22122390D01*
X16662137Y22079603D01*
X16657052Y22025525D01*
X16653192Y21955892D01*
X16650393Y21866438D01*
X16648490Y21752897D01*
X16647319Y21611004D01*
X16646713Y21436494D01*
X16646508Y21225100D01*
X16646500Y21159281D01*
X16646500Y20251000D01*
X17260333Y20251000D01*
X17260333Y21267000D01*
X18763166Y21267000D01*
X18763166Y20251000D01*
X19378242Y20251000D01*
X19372329Y21208792D01*
X19367745Y21951450D01*
X18763166Y21951450D01*
X18763166Y21838500D01*
X17260333Y21838500D01*
X17260945Y21949625D01*
X17262789Y21983711D01*
X17269147Y22021369D01*
X17281820Y22067068D01*
X17302606Y22125273D01*
X17333306Y22200452D01*
X17375718Y22297070D01*
X17431643Y22419595D01*
X17502880Y22572493D01*
X17565811Y22706333D01*
X17870065Y23351917D01*
X18155227Y23351917D01*
X18459197Y22708158D01*
X18542529Y22531121D01*
X18609253Y22387702D01*
X18661176Y22273400D01*
X18700108Y22183716D01*
X18727854Y22114148D01*
X18746224Y22060198D01*
X18757024Y22017364D01*
X18762063Y21981147D01*
X18763166Y21951450D01*
X19367745Y21951450D01*
X19366416Y22166583D01*
X18988445Y22985000D01*
X18878523Y23221317D01*
X18784629Y23419495D01*
X18706328Y23580396D01*
X18643188Y23704883D01*
X18594776Y23793819D01*
X18560659Y23848068D01*
X18547847Y23863417D01*
X18485220Y23923417D01*
X17536314Y23923417D01*
X17474036Y23859917D01*
D11*
X63171820Y9976880D02*
X65011820Y9976880D01*
X65011820Y9976880D02*
X65011820Y6136880D01*
X65011820Y6136880D02*
X63171820Y6136880D01*
X63171820Y6136880D02*
X63171820Y9976880D01*
X64091820Y10926880D02*
X64091820Y9976880D01*
X64091820Y5186880D02*
X64091820Y6136880D01*
X61473080Y10931960D02*
X61473080Y9981960D01*
X61473080Y5191960D02*
X61473080Y6141960D01*
X62393080Y9981960D02*
X62393080Y6141960D01*
X60553080Y9981960D02*
X62393080Y9981960D01*
X60553080Y6141960D02*
X60553080Y9981960D01*
X62393080Y6141960D02*
X60553080Y6141960D01*
X52207160Y6413300D02*
X52207160Y5463300D01*
X52207160Y673300D02*
X52207160Y1623300D01*
X53127160Y5463300D02*
X53127160Y1623300D01*
X51287160Y5463300D02*
X53127160Y5463300D01*
X51287160Y1623300D02*
X51287160Y5463300D01*
X53127160Y1623300D02*
X51287160Y1623300D01*
X55045300Y-5084320D02*
G75*
G03X55045300Y-3084320I0J1000000D01*
G01*
X55045300Y-3084320D02*
X55045300Y-1834320D01*
X55045300Y-1834320D02*
X65325300Y-1834320D01*
X65325300Y-1834320D02*
X65325300Y-6334320D01*
X65325300Y-6334320D02*
X55045300Y-6334320D01*
X55045300Y-6334320D02*
X55045300Y-5084320D01*
X54985300Y1165680D02*
X65385300Y1165680D01*
X65385300Y1165680D02*
X65385300Y-9334320D01*
X65385300Y-9334320D02*
X54985300Y-9334320D01*
X54985300Y-9334320D02*
X54985300Y1165680D01*
X57493040Y3578480D02*
X57493040Y7618480D01*
X54653040Y3578480D02*
X54653040Y7618480D01*
X57493040Y3578480D02*
X56868040Y3578480D01*
X55278040Y3578480D02*
X54653040Y3578480D01*
X57493040Y7618480D02*
X56868040Y7618480D01*
X55278040Y7618480D02*
X54653040Y7618480D01*
X59832760Y6134340D02*
X57992760Y6134340D01*
X57992760Y6134340D02*
X57992760Y9974340D01*
X57992760Y9974340D02*
X59832760Y9974340D01*
X59832760Y9974340D02*
X59832760Y6134340D01*
X58912760Y5184340D02*
X58912760Y6134340D01*
X58912760Y10924340D02*
X58912760Y9974340D01*
D14*
X-39331800Y-17078960D02*
X-39966800Y-17713960D01*
X-39966800Y-17713960D02*
X-39966800Y-18983960D01*
X-39966800Y-18983960D02*
X-39331800Y-19618960D01*
X-38061800Y-19618960D02*
X-37426800Y-18983960D01*
X-37426800Y-18983960D02*
X-37426800Y-17713960D01*
X-37426800Y-17713960D02*
X-38061800Y-17078960D01*
X-39966800Y-12633960D02*
X-39966800Y-13903960D01*
X-39966800Y-13903960D02*
X-39331800Y-14538960D01*
X-38061800Y-14538960D02*
X-37426800Y-13903960D01*
X-39331800Y-14538960D02*
X-39966800Y-15173960D01*
X-39966800Y-15173960D02*
X-39966800Y-16443960D01*
X-39966800Y-16443960D02*
X-39331800Y-17078960D01*
X-38061800Y-17078960D02*
X-37426800Y-16443960D01*
X-37426800Y-16443960D02*
X-37426800Y-15173960D01*
X-37426800Y-15173960D02*
X-38061800Y-14538960D01*
X-39331800Y-9458960D02*
X-39966800Y-10093960D01*
X-39966800Y-10093960D02*
X-39966800Y-11363960D01*
X-39966800Y-11363960D02*
X-39331800Y-11998960D01*
X-38061800Y-11998960D02*
X-37426800Y-11363960D01*
X-37426800Y-11363960D02*
X-37426800Y-10093960D01*
X-37426800Y-10093960D02*
X-38061800Y-9458960D01*
X-39966800Y-12633960D02*
X-39331800Y-11998960D01*
X-38061800Y-11998960D02*
X-37426800Y-12633960D01*
X-37426800Y-13903960D02*
X-37426800Y-12633960D01*
X-39966800Y-5013960D02*
X-39966800Y-6283960D01*
X-39966800Y-6283960D02*
X-39331800Y-6918960D01*
X-38061800Y-6918960D02*
X-37426800Y-6283960D01*
X-39331800Y-6918960D02*
X-39966800Y-7553960D01*
X-39966800Y-7553960D02*
X-39966800Y-8823960D01*
X-39966800Y-8823960D02*
X-39331800Y-9458960D01*
X-38061800Y-9458960D02*
X-37426800Y-8823960D01*
X-37426800Y-8823960D02*
X-37426800Y-7553960D01*
X-37426800Y-7553960D02*
X-38061800Y-6918960D01*
X-39331800Y-4378960D02*
X-38061800Y-4378960D01*
X-39966800Y-5013960D02*
X-39331800Y-4378960D01*
X-38061800Y-4378960D02*
X-37426800Y-5013960D01*
X-37426800Y-6283960D02*
X-37426800Y-5013960D01*
X-39331800Y-19618960D02*
X-38061800Y-19618960D01*
D11*
X-10980560Y5288660D02*
X-10980560Y1248660D01*
X-8140560Y5288660D02*
X-8140560Y1248660D01*
X-10980560Y5288660D02*
X-10355560Y5288660D01*
X-8765560Y5288660D02*
X-8140560Y5288660D01*
X-10980560Y1248660D02*
X-10355560Y1248660D01*
X-8765560Y1248660D02*
X-8140560Y1248660D01*
X-41051340Y3956940D02*
X-41051340Y7996940D01*
X-43891340Y3956940D02*
X-43891340Y7996940D01*
X-41051340Y3956940D02*
X-41676340Y3956940D01*
X-43266340Y3956940D02*
X-43891340Y3956940D01*
X-41051340Y7996940D02*
X-41676340Y7996940D01*
X-43266340Y7996940D02*
X-43891340Y7996940D01*
X-41676340Y8650220D02*
X-41051340Y8650220D01*
X-43891340Y8650220D02*
X-43266340Y8650220D01*
X-41676340Y12690220D02*
X-41051340Y12690220D01*
X-43891340Y12690220D02*
X-43266340Y12690220D01*
X-41051340Y12690220D02*
X-41051340Y8650220D01*
X-43891340Y12690220D02*
X-43891340Y8650220D01*
X-31435800Y22228680D02*
X-15655800Y22228680D01*
X-15655800Y22228680D02*
X-15655800Y31578680D01*
X-15655800Y31578680D02*
X-31435800Y31578680D01*
X-31435800Y31578680D02*
X-31435800Y22228680D01*
X-31685800Y31828680D02*
X-29145800Y31828680D01*
X-31685800Y31828680D02*
X-31685800Y29288680D01*
X-8630400Y8991840D02*
X-10470400Y8991840D01*
X-10470400Y8991840D02*
X-10470400Y12831840D01*
X-10470400Y12831840D02*
X-8630400Y12831840D01*
X-8630400Y12831840D02*
X-8630400Y8991840D01*
X-9550400Y8041840D02*
X-9550400Y8991840D01*
X-9550400Y13781840D02*
X-9550400Y12831840D01*
D14*
X-20932140Y21013420D02*
X-20932140Y-14546580D01*
X-26012140Y-14546580D02*
X-26012140Y21013420D01*
X-20932140Y21013420D02*
X-26012140Y21013420D01*
X-20932140Y-14546580D02*
X-22456140Y-14546580D01*
X-26012140Y-14546580D02*
X-24488140Y-14546580D01*
D15*
X-26139140Y-15181580D02*
G75*
G03X-26139140Y-15181580I-508000J0D01*
G01*
D14*
X-24488140Y-14546580D02*
G75*
G02X-22456140Y-14546580I1016000J0D01*
G01*
X-35907980Y11750040D02*
X-35907980Y4892040D01*
X-40479980Y4892040D02*
X-40479980Y11750040D01*
X-35907980Y4892040D02*
G75*
G02X-40479980Y4892040I-2286000J0D01*
G01*
X-40479980Y11750040D02*
G75*
G02X-35907980Y11750040I2286000J0D01*
G01*
D11*
X-35132320Y-14598960D02*
X-32532320Y-14598960D01*
X-35132320Y-14598960D02*
X-35132320Y21081040D01*
X-35132320Y21081040D02*
X-29932320Y21081040D01*
X-29932320Y-11998960D02*
X-29932320Y21081040D01*
X-32532320Y-11998960D02*
X-29932320Y-11998960D01*
X-32532320Y-14598960D02*
X-32532320Y-11998960D01*
X-29932320Y-14598960D02*
X-29932320Y-13268960D01*
X-31262320Y-14598960D02*
X-29932320Y-14598960D01*
X-17123720Y-14598960D02*
X-14523720Y-14598960D01*
X-17123720Y-14598960D02*
X-17123720Y21081040D01*
X-17123720Y21081040D02*
X-11923720Y21081040D01*
X-11923720Y-11998960D02*
X-11923720Y21081040D01*
X-14523720Y-11998960D02*
X-11923720Y-11998960D01*
X-14523720Y-14598960D02*
X-14523720Y-11998960D01*
X-11923720Y-14598960D02*
X-11923720Y-13268960D01*
X-13253720Y-14598960D02*
X-11923720Y-14598960D01*
X-71991600Y-44577140D02*
X-67951600Y-44577140D01*
X-71991600Y-41737140D02*
X-67951600Y-41737140D01*
X-71991600Y-44577140D02*
X-71991600Y-43952140D01*
X-71991600Y-42362140D02*
X-71991600Y-41737140D01*
X-67951600Y-44577140D02*
X-67951600Y-43952140D01*
X-67951600Y-42362140D02*
X-67951600Y-41737140D01*
X81560980Y36377880D02*
G75*
G03X81560980Y34377880I0J-1000000D01*
G01*
X81560980Y34377880D02*
X81560980Y30602880D01*
X81560980Y30602880D02*
X71280980Y30602880D01*
X71280980Y30602880D02*
X71280980Y40072880D01*
X71280980Y40072880D02*
X81560980Y40072880D01*
X81560980Y40072880D02*
X81560980Y36377880D01*
X-72333780Y22787000D02*
X-72333780Y25727000D01*
X-72333780Y25727000D02*
X-66893780Y25727000D01*
X-66893780Y25727000D02*
X-66893780Y22787000D01*
X-66893780Y22787000D02*
X-72333780Y22787000D01*
X-73353780Y24257000D02*
X-72333780Y24257000D01*
X-65873780Y24257000D02*
X-66893780Y24257000D01*
X-71433780Y22787000D02*
X-71433780Y25727000D01*
X-71313780Y22787000D02*
X-71313780Y25727000D01*
X-71553780Y22787000D02*
X-71553780Y25727000D01*
X67407480Y32617720D02*
X70067480Y32617720D01*
X67407480Y30017720D02*
X67407480Y32617720D01*
X70067480Y30017720D02*
X70067480Y32617720D01*
X67407480Y30017720D02*
X70067480Y30017720D01*
X67407480Y28747720D02*
X67407480Y27417720D01*
X67407480Y27417720D02*
X68737480Y27417720D01*
X66053580Y-27935780D02*
X66053580Y-31535780D01*
X66042058Y-27897302D02*
G75*
G03X61603580Y-29735780I-1838478J-1838478D01*
G01*
X66042058Y-31574258D02*
G75*
G02X61603580Y-29735780I-1838478J1838478D01*
G01*
X68010520Y-23995620D02*
X69850520Y-23995620D01*
X69850520Y-23995620D02*
X69850520Y-27835620D01*
X69850520Y-27835620D02*
X68010520Y-27835620D01*
X68010520Y-27835620D02*
X68010520Y-23995620D01*
X68930520Y-23045620D02*
X68930520Y-23995620D01*
X68930520Y-28785620D02*
X68930520Y-27835620D01*
X59740291Y-37614725D02*
G75*
G03X59113420Y-37470000I-626871J-1285275D01*
G01*
X60399244Y-39527362D02*
G75*
G03X60399420Y-38273000I-1285824J627362D01*
G01*
X58486058Y-40185824D02*
G75*
G03X59740420Y-40186000I627362J1285824D01*
G01*
X57826809Y-38273254D02*
G75*
G03X57827420Y-39528000I1286611J-626746D01*
G01*
X59137700Y-37469060D02*
G75*
G03X58485420Y-37614000I-24280J-1430940D01*
G01*
X65623420Y-38900000D02*
G75*
G03X65623420Y-38900000I-1430000J0D01*
G01*
X56513420Y-35350000D02*
X66793420Y-35350000D01*
X56513420Y-36450000D02*
X66793420Y-36450000D01*
X56513420Y-41450000D02*
X66793420Y-41450000D01*
X56513420Y-43360000D02*
X66793420Y-43360000D01*
X56513420Y-34790000D02*
X66793420Y-34790000D01*
X56513420Y-43360000D02*
X56513420Y-34790000D01*
X66793420Y-43360000D02*
X66793420Y-34790000D01*
X57863420Y-43300000D02*
X60363420Y-43300000D01*
X57863420Y-42300000D02*
X60363420Y-42300000D01*
X57863420Y-43300000D02*
X57863420Y-42300000D01*
X60363420Y-43300000D02*
X60363420Y-42300000D01*
X65278420Y-39810000D02*
X65218420Y-39751000D01*
X63323420Y-37855000D02*
X63283420Y-37815000D01*
X65104420Y-39985000D02*
X65064420Y-39945000D01*
X63169420Y-38050000D02*
X63109420Y-37990000D01*
X62943420Y-43300000D02*
X65443420Y-43300000D01*
X62943420Y-42300000D02*
X65443420Y-42300000D01*
X62943420Y-43300000D02*
X62943420Y-42300000D01*
X65443420Y-43300000D02*
X65443420Y-42300000D01*
X56273420Y-35290000D02*
X56273420Y-34550000D01*
X56273420Y-34550000D02*
X56773420Y-34550000D01*
X-74101451Y37431945D02*
G75*
G03X-73474580Y37287220I626871J1285275D01*
G01*
X-74760404Y39344582D02*
G75*
G03X-74760580Y38090220I1285824J-627362D01*
G01*
X-72847218Y40003044D02*
G75*
G03X-74101580Y40003220I-627362J-1285824D01*
G01*
X-72187969Y38090474D02*
G75*
G03X-72188580Y39345220I-1286611J626746D01*
G01*
X-73498860Y37286280D02*
G75*
G03X-72846580Y37431220I24280J1430940D01*
G01*
X-77124580Y38717220D02*
G75*
G03X-77124580Y38717220I-1430000J0D01*
G01*
X-70874580Y35167220D02*
X-81154580Y35167220D01*
X-70874580Y36267220D02*
X-81154580Y36267220D01*
X-70874580Y41267220D02*
X-81154580Y41267220D01*
X-70874580Y43177220D02*
X-81154580Y43177220D01*
X-70874580Y34607220D02*
X-81154580Y34607220D01*
X-70874580Y43177220D02*
X-70874580Y34607220D01*
X-81154580Y43177220D02*
X-81154580Y34607220D01*
X-72224580Y43117220D02*
X-74724580Y43117220D01*
X-72224580Y42117220D02*
X-74724580Y42117220D01*
X-72224580Y43117220D02*
X-72224580Y42117220D01*
X-74724580Y43117220D02*
X-74724580Y42117220D01*
X-79639580Y39627220D02*
X-79579580Y39568220D01*
X-77684580Y37672220D02*
X-77644580Y37632220D01*
X-79465580Y39802220D02*
X-79425580Y39762220D01*
X-77530580Y37867220D02*
X-77470580Y37807220D01*
X-77304580Y43117220D02*
X-79804580Y43117220D01*
X-77304580Y42117220D02*
X-79804580Y42117220D01*
X-77304580Y43117220D02*
X-77304580Y42117220D01*
X-79804580Y43117220D02*
X-79804580Y42117220D01*
X-70634580Y35107220D02*
X-70634580Y34367220D01*
X-70634580Y34367220D02*
X-71134580Y34367220D01*
X71748459Y-22507799D02*
X71748459Y-22007799D01*
X72488459Y-22507799D02*
X71748459Y-22507799D01*
X80498459Y-13337799D02*
X79498459Y-13337799D01*
X80498459Y-15837799D02*
X79498459Y-15837799D01*
X79498459Y-15837799D02*
X79498459Y-13337799D01*
X80498459Y-15837799D02*
X80498459Y-13337799D01*
X75248459Y-15611799D02*
X75188459Y-15671799D01*
X77183459Y-13676799D02*
X77143459Y-13716799D01*
X75053459Y-15457799D02*
X75013459Y-15497799D01*
X77008459Y-13502799D02*
X76949459Y-13562799D01*
X80498459Y-18417799D02*
X79498459Y-18417799D01*
X80498459Y-20917799D02*
X79498459Y-20917799D01*
X79498459Y-20917799D02*
X79498459Y-18417799D01*
X80498459Y-20917799D02*
X80498459Y-18417799D01*
X80558459Y-11987799D02*
X71988459Y-11987799D01*
X80558459Y-22267799D02*
X71988459Y-22267799D01*
X71988459Y-22267799D02*
X71988459Y-11987799D01*
X80558459Y-22267799D02*
X80558459Y-11987799D01*
X78648459Y-22267799D02*
X78648459Y-11987799D01*
X73648459Y-22267799D02*
X73648459Y-11987799D01*
X72548459Y-22267799D02*
X72548459Y-11987799D01*
X77528459Y-14587799D02*
G75*
G03X77528459Y-14587799I-1430000J0D01*
G01*
X74667519Y-19643519D02*
G75*
G03X74812459Y-20295799I1430940J-24280D01*
G01*
X75471713Y-20954410D02*
G75*
G03X76726459Y-20953799I626746J1286611D01*
G01*
X77384283Y-20295161D02*
G75*
G03X77384459Y-19040799I-1285824J627362D01*
G01*
X76725821Y-18381975D02*
G75*
G03X75471459Y-18381799I-627362J-1285824D01*
G01*
X74813184Y-19040928D02*
G75*
G03X74668459Y-19667799I1285275J-626871D01*
G01*
X74810585Y-31252669D02*
G75*
G03X74665860Y-31879540I1285275J-626871D01*
G01*
X76723222Y-30593716D02*
G75*
G03X75468860Y-30593540I-627362J-1285824D01*
G01*
X77381684Y-32506902D02*
G75*
G03X77381860Y-31252540I-1285824J627362D01*
G01*
X75469114Y-33166151D02*
G75*
G03X76723860Y-33165540I626746J1286611D01*
G01*
X74664920Y-31855260D02*
G75*
G03X74809860Y-32507540I1430940J-24280D01*
G01*
X77525860Y-26799540D02*
G75*
G03X77525860Y-26799540I-1430000J0D01*
G01*
X72545860Y-34479540D02*
X72545860Y-24199540D01*
X73645860Y-34479540D02*
X73645860Y-24199540D01*
X78645860Y-34479540D02*
X78645860Y-24199540D01*
X80555860Y-34479540D02*
X80555860Y-24199540D01*
X71985860Y-34479540D02*
X71985860Y-24199540D01*
X80555860Y-34479540D02*
X71985860Y-34479540D01*
X80555860Y-24199540D02*
X71985860Y-24199540D01*
X80495860Y-33129540D02*
X80495860Y-30629540D01*
X79495860Y-33129540D02*
X79495860Y-30629540D01*
X80495860Y-33129540D02*
X79495860Y-33129540D01*
X80495860Y-30629540D02*
X79495860Y-30629540D01*
X77005860Y-25714540D02*
X76946860Y-25774540D01*
X75050860Y-27669540D02*
X75010860Y-27709540D01*
X77180860Y-25888540D02*
X77140860Y-25928540D01*
X75245860Y-27823540D02*
X75185860Y-27883540D01*
X80495860Y-28049540D02*
X80495860Y-25549540D01*
X79495860Y-28049540D02*
X79495860Y-25549540D01*
X80495860Y-28049540D02*
X79495860Y-28049540D01*
X80495860Y-25549540D02*
X79495860Y-25549540D01*
X72485860Y-34719540D02*
X71745860Y-34719540D01*
X71745860Y-34719540D02*
X71745860Y-34219540D01*
X68920360Y-12971980D02*
X68920360Y-13921980D01*
X68920360Y-18711980D02*
X68920360Y-17761980D01*
X69840360Y-13921980D02*
X69840360Y-17761980D01*
X68000360Y-13921980D02*
X69840360Y-13921980D01*
X68000360Y-17761980D02*
X68000360Y-13921980D01*
X69840360Y-17761980D02*
X68000360Y-17761980D01*
X-53014120Y14718340D02*
G75*
G03X-53014120Y14718340I-6620000J0D01*
G01*
X-66214120Y14718340D02*
X-53054120Y14718340D01*
X-66214120Y14678340D02*
X-53054120Y14678340D01*
X-66214120Y14638340D02*
X-53054120Y14638340D01*
X-66213120Y14598340D02*
X-53055120Y14598340D01*
X-66213120Y14558340D02*
X-53055120Y14558340D01*
X-66211120Y14518340D02*
X-53057120Y14518340D01*
X-66210120Y14478340D02*
X-53058120Y14478340D01*
X-66209120Y14438340D02*
X-53059120Y14438340D01*
X-66207120Y14398340D02*
X-53061120Y14398340D01*
X-66205120Y14358340D02*
X-53063120Y14358340D01*
X-66202120Y14318340D02*
X-53066120Y14318340D01*
X-66200120Y14278340D02*
X-53068120Y14278340D01*
X-66197120Y14238340D02*
X-53071120Y14238340D01*
X-66194120Y14198340D02*
X-53074120Y14198340D01*
X-66191120Y14158340D02*
X-53077120Y14158340D01*
X-66187120Y14118340D02*
X-53081120Y14118340D01*
X-66183120Y14078340D02*
X-53085120Y14078340D01*
X-66179120Y14038340D02*
X-53089120Y14038340D01*
X-66175120Y13997340D02*
X-53093120Y13997340D01*
X-66171120Y13957340D02*
X-53097120Y13957340D01*
X-66166120Y13917340D02*
X-53102120Y13917340D01*
X-66161120Y13877340D02*
X-53107120Y13877340D01*
X-66156120Y13837340D02*
X-53112120Y13837340D01*
X-66150120Y13797340D02*
X-53118120Y13797340D01*
X-66145120Y13757340D02*
X-53123120Y13757340D01*
X-66139120Y13717340D02*
X-53129120Y13717340D01*
X-66132120Y13677340D02*
X-53136120Y13677340D01*
X-66126120Y13637340D02*
X-53142120Y13637340D01*
X-66119120Y13597340D02*
X-53149120Y13597340D01*
X-66112120Y13557340D02*
X-53156120Y13557340D01*
X-66105120Y13517340D02*
X-53163120Y13517340D01*
X-66097120Y13477340D02*
X-53171120Y13477340D01*
X-66090120Y13437340D02*
X-53178120Y13437340D01*
X-66082120Y13397340D02*
X-53186120Y13397340D01*
X-66073120Y13357340D02*
X-53195120Y13357340D01*
X-66065120Y13317340D02*
X-53203120Y13317340D01*
X-66056120Y13277340D02*
X-53212120Y13277340D01*
X-66047120Y13237340D02*
X-53221120Y13237340D01*
X-66038120Y13197340D02*
X-53230120Y13197340D01*
X-66028120Y13157340D02*
X-53240120Y13157340D01*
X-66018120Y13117340D02*
X-53250120Y13117340D01*
X-66008120Y13077340D02*
X-53260120Y13077340D01*
X-65998120Y13037340D02*
X-53270120Y13037340D01*
X-65987120Y12997340D02*
X-53281120Y12997340D01*
X-65976120Y12957340D02*
X-53292120Y12957340D01*
X-65965120Y12917340D02*
X-53303120Y12917340D01*
X-65954120Y12877340D02*
X-53314120Y12877340D01*
X-65942120Y12837340D02*
X-53326120Y12837340D01*
X-65930120Y12797340D02*
X-53338120Y12797340D01*
X-65918120Y12757340D02*
X-53350120Y12757340D01*
X-65905120Y12717340D02*
X-53363120Y12717340D01*
X-65892120Y12677340D02*
X-53376120Y12677340D01*
X-65879120Y12637340D02*
X-53389120Y12637340D01*
X-65866120Y12597340D02*
X-53402120Y12597340D01*
X-65852120Y12557340D02*
X-53416120Y12557340D01*
X-65838120Y12517340D02*
X-53430120Y12517340D01*
X-65824120Y12477340D02*
X-53444120Y12477340D01*
X-65809120Y12437340D02*
X-53459120Y12437340D01*
X-65795120Y12397340D02*
X-61074120Y12397340D01*
X-58194120Y12397340D02*
X-53473120Y12397340D01*
X-65780120Y12357340D02*
X-61074120Y12357340D01*
X-58194120Y12357340D02*
X-53488120Y12357340D01*
X-65764120Y12317340D02*
X-61074120Y12317340D01*
X-58194120Y12317340D02*
X-53504120Y12317340D01*
X-65748120Y12277340D02*
X-61074120Y12277340D01*
X-58194120Y12277340D02*
X-53520120Y12277340D01*
X-65732120Y12237340D02*
X-61074120Y12237340D01*
X-58194120Y12237340D02*
X-53536120Y12237340D01*
X-65716120Y12197340D02*
X-61074120Y12197340D01*
X-58194120Y12197340D02*
X-53552120Y12197340D01*
X-65699120Y12157340D02*
X-61074120Y12157340D01*
X-58194120Y12157340D02*
X-53569120Y12157340D01*
X-65683120Y12117340D02*
X-61074120Y12117340D01*
X-58194120Y12117340D02*
X-53585120Y12117340D01*
X-65665120Y12077340D02*
X-61074120Y12077340D01*
X-58194120Y12077340D02*
X-53603120Y12077340D01*
X-65648120Y12037340D02*
X-61074120Y12037340D01*
X-58194120Y12037340D02*
X-53620120Y12037340D01*
X-65630120Y11997340D02*
X-61074120Y11997340D01*
X-58194120Y11997340D02*
X-53638120Y11997340D01*
X-65612120Y11957340D02*
X-61074120Y11957340D01*
X-58194120Y11957340D02*
X-53656120Y11957340D01*
X-65593120Y11917340D02*
X-61074120Y11917340D01*
X-58194120Y11917340D02*
X-53675120Y11917340D01*
X-65574120Y11877340D02*
X-61074120Y11877340D01*
X-58194120Y11877340D02*
X-53694120Y11877340D01*
X-65555120Y11837340D02*
X-61074120Y11837340D01*
X-58194120Y11837340D02*
X-53713120Y11837340D01*
X-65536120Y11797340D02*
X-61074120Y11797340D01*
X-58194120Y11797340D02*
X-53732120Y11797340D01*
X-65516120Y11757340D02*
X-61074120Y11757340D01*
X-58194120Y11757340D02*
X-53752120Y11757340D01*
X-65496120Y11717340D02*
X-61074120Y11717340D01*
X-58194120Y11717340D02*
X-53772120Y11717340D01*
X-65475120Y11677340D02*
X-61074120Y11677340D01*
X-58194120Y11677340D02*
X-53793120Y11677340D01*
X-65454120Y11637340D02*
X-61074120Y11637340D01*
X-58194120Y11637340D02*
X-53814120Y11637340D01*
X-65433120Y11597340D02*
X-61074120Y11597340D01*
X-58194120Y11597340D02*
X-53835120Y11597340D01*
X-65412120Y11557340D02*
X-61074120Y11557340D01*
X-58194120Y11557340D02*
X-53856120Y11557340D01*
X-65390120Y11517340D02*
X-61074120Y11517340D01*
X-58194120Y11517340D02*
X-53878120Y11517340D01*
X-65367120Y11477340D02*
X-61074120Y11477340D01*
X-58194120Y11477340D02*
X-53901120Y11477340D01*
X-65345120Y11437340D02*
X-61074120Y11437340D01*
X-58194120Y11437340D02*
X-53923120Y11437340D01*
X-65322120Y11397340D02*
X-61074120Y11397340D01*
X-58194120Y11397340D02*
X-53946120Y11397340D01*
X-65298120Y11357340D02*
X-61074120Y11357340D01*
X-58194120Y11357340D02*
X-53970120Y11357340D01*
X-65275120Y11317340D02*
X-61074120Y11317340D01*
X-58194120Y11317340D02*
X-53993120Y11317340D01*
X-65251120Y11277340D02*
X-61074120Y11277340D01*
X-58194120Y11277340D02*
X-54017120Y11277340D01*
X-65226120Y11237340D02*
X-61074120Y11237340D01*
X-58194120Y11237340D02*
X-54042120Y11237340D01*
X-65201120Y11197340D02*
X-61074120Y11197340D01*
X-58194120Y11197340D02*
X-54067120Y11197340D01*
X-65176120Y11157340D02*
X-61074120Y11157340D01*
X-58194120Y11157340D02*
X-54092120Y11157340D01*
X-65150120Y11117340D02*
X-61074120Y11117340D01*
X-58194120Y11117340D02*
X-54118120Y11117340D01*
X-65124120Y11077340D02*
X-61074120Y11077340D01*
X-58194120Y11077340D02*
X-54144120Y11077340D01*
X-65097120Y11037340D02*
X-61074120Y11037340D01*
X-58194120Y11037340D02*
X-54171120Y11037340D01*
X-65070120Y10997340D02*
X-61074120Y10997340D01*
X-58194120Y10997340D02*
X-54198120Y10997340D01*
X-65043120Y10957340D02*
X-61074120Y10957340D01*
X-58194120Y10957340D02*
X-54225120Y10957340D01*
X-65015120Y10917340D02*
X-61074120Y10917340D01*
X-58194120Y10917340D02*
X-54253120Y10917340D01*
X-64987120Y10877340D02*
X-61074120Y10877340D01*
X-58194120Y10877340D02*
X-54281120Y10877340D01*
X-64958120Y10837340D02*
X-61074120Y10837340D01*
X-58194120Y10837340D02*
X-54310120Y10837340D01*
X-64929120Y10797340D02*
X-61074120Y10797340D01*
X-58194120Y10797340D02*
X-54339120Y10797340D01*
X-64899120Y10757340D02*
X-61074120Y10757340D01*
X-58194120Y10757340D02*
X-54369120Y10757340D01*
X-64869120Y10717340D02*
X-61074120Y10717340D01*
X-58194120Y10717340D02*
X-54399120Y10717340D01*
X-64839120Y10677340D02*
X-61074120Y10677340D01*
X-58194120Y10677340D02*
X-54429120Y10677340D01*
X-64808120Y10637340D02*
X-61074120Y10637340D01*
X-58194120Y10637340D02*
X-54460120Y10637340D01*
X-64776120Y10597340D02*
X-61074120Y10597340D01*
X-58194120Y10597340D02*
X-54492120Y10597340D01*
X-64744120Y10557340D02*
X-61074120Y10557340D01*
X-58194120Y10557340D02*
X-54524120Y10557340D01*
X-64712120Y10517340D02*
X-61074120Y10517340D01*
X-58194120Y10517340D02*
X-54556120Y10517340D01*
X-64678120Y10477340D02*
X-61074120Y10477340D01*
X-58194120Y10477340D02*
X-54590120Y10477340D01*
X-64645120Y10437340D02*
X-61074120Y10437340D01*
X-58194120Y10437340D02*
X-54623120Y10437340D01*
X-64611120Y10397340D02*
X-61074120Y10397340D01*
X-58194120Y10397340D02*
X-54657120Y10397340D01*
X-64576120Y10357340D02*
X-61074120Y10357340D01*
X-58194120Y10357340D02*
X-54692120Y10357340D01*
X-64541120Y10317340D02*
X-61074120Y10317340D01*
X-58194120Y10317340D02*
X-54727120Y10317340D01*
X-64505120Y10277340D02*
X-61074120Y10277340D01*
X-58194120Y10277340D02*
X-54763120Y10277340D01*
X-64468120Y10237340D02*
X-61074120Y10237340D01*
X-58194120Y10237340D02*
X-54800120Y10237340D01*
X-64431120Y10197340D02*
X-61074120Y10197340D01*
X-58194120Y10197340D02*
X-54837120Y10197340D01*
X-64394120Y10157340D02*
X-61074120Y10157340D01*
X-58194120Y10157340D02*
X-54874120Y10157340D01*
X-64355120Y10117340D02*
X-61074120Y10117340D01*
X-58194120Y10117340D02*
X-54913120Y10117340D01*
X-64316120Y10077340D02*
X-61074120Y10077340D01*
X-58194120Y10077340D02*
X-54952120Y10077340D01*
X-64277120Y10037340D02*
X-61074120Y10037340D01*
X-58194120Y10037340D02*
X-54991120Y10037340D01*
X-64236120Y9997340D02*
X-61074120Y9997340D01*
X-58194120Y9997340D02*
X-55032120Y9997340D01*
X-64195120Y9957340D02*
X-61074120Y9957340D01*
X-58194120Y9957340D02*
X-55073120Y9957340D01*
X-64153120Y9917340D02*
X-61074120Y9917340D01*
X-58194120Y9917340D02*
X-55115120Y9917340D01*
X-64111120Y9877340D02*
X-61074120Y9877340D01*
X-58194120Y9877340D02*
X-55157120Y9877340D01*
X-64068120Y9837340D02*
X-61074120Y9837340D01*
X-58194120Y9837340D02*
X-55200120Y9837340D01*
X-64024120Y9797340D02*
X-61074120Y9797340D01*
X-58194120Y9797340D02*
X-55244120Y9797340D01*
X-63979120Y9757340D02*
X-61074120Y9757340D01*
X-58194120Y9757340D02*
X-55289120Y9757340D01*
X-63933120Y9717340D02*
X-61074120Y9717340D01*
X-58194120Y9717340D02*
X-55335120Y9717340D01*
X-63887120Y9677340D02*
X-61074120Y9677340D01*
X-58194120Y9677340D02*
X-55381120Y9677340D01*
X-63839120Y9637340D02*
X-61074120Y9637340D01*
X-58194120Y9637340D02*
X-55429120Y9637340D01*
X-63791120Y9597340D02*
X-61074120Y9597340D01*
X-58194120Y9597340D02*
X-55477120Y9597340D01*
X-63742120Y9557340D02*
X-61074120Y9557340D01*
X-58194120Y9557340D02*
X-55526120Y9557340D01*
X-63691120Y9517340D02*
X-55577120Y9517340D01*
X-63640120Y9477340D02*
X-55628120Y9477340D01*
X-63588120Y9437340D02*
X-55680120Y9437340D01*
X-63534120Y9397340D02*
X-55734120Y9397340D01*
X-63480120Y9357340D02*
X-55788120Y9357340D01*
X-63424120Y9317340D02*
X-55844120Y9317340D01*
X-63367120Y9277340D02*
X-55901120Y9277340D01*
X-63309120Y9237340D02*
X-55959120Y9237340D01*
X-63249120Y9197340D02*
X-56019120Y9197340D01*
X-63188120Y9157340D02*
X-56080120Y9157340D01*
X-63125120Y9117340D02*
X-56143120Y9117340D01*
X-63061120Y9077340D02*
X-56207120Y9077340D01*
X-62995120Y9037340D02*
X-56273120Y9037340D01*
X-62927120Y8997340D02*
X-56341120Y8997340D01*
X-62857120Y8957340D02*
X-56411120Y8957340D01*
X-62786120Y8917340D02*
X-56482120Y8917340D01*
X-62712120Y8877340D02*
X-56556120Y8877340D01*
X-62636120Y8837340D02*
X-56632120Y8837340D01*
X-62557120Y8797340D02*
X-56711120Y8797340D01*
X-62476120Y8757340D02*
X-56792120Y8757340D01*
X-62392120Y8717340D02*
X-56876120Y8717340D01*
X-62304120Y8677340D02*
X-56964120Y8677340D01*
X-62213120Y8637340D02*
X-57055120Y8637340D01*
X-62118120Y8597340D02*
X-57150120Y8597340D01*
X-62019120Y8557340D02*
X-57249120Y8557340D01*
X-61915120Y8517340D02*
X-57353120Y8517340D01*
X-61805120Y8477340D02*
X-57463120Y8477340D01*
X-61689120Y8437340D02*
X-57579120Y8437340D01*
X-61565120Y8397340D02*
X-57703120Y8397340D01*
X-61432120Y8357340D02*
X-57836120Y8357340D01*
X-61287120Y8317340D02*
X-57981120Y8317340D01*
X-61128120Y8277340D02*
X-58140120Y8277340D01*
X-60949120Y8237340D02*
X-58319120Y8237340D01*
X-60741120Y8197340D02*
X-58527120Y8197340D01*
X-60484120Y8157340D02*
X-58784120Y8157340D01*
X-60109120Y8117340D02*
X-59159120Y8117340D01*
X-63349120Y21802909D02*
X-63349120Y20502909D01*
X-63999120Y21152909D02*
X-62699120Y21152909D01*
X-79048620Y21145289D02*
X-77748620Y21145289D01*
X-78398620Y21795289D02*
X-78398620Y20495289D01*
X-75158620Y8109720D02*
X-74208620Y8109720D01*
X-75533620Y8149720D02*
X-73833620Y8149720D01*
X-75790620Y8189720D02*
X-73576620Y8189720D01*
X-75998620Y8229720D02*
X-73368620Y8229720D01*
X-76177620Y8269720D02*
X-73189620Y8269720D01*
X-76336620Y8309720D02*
X-73030620Y8309720D01*
X-76481620Y8349720D02*
X-72885620Y8349720D01*
X-76614620Y8389720D02*
X-72752620Y8389720D01*
X-76738620Y8429720D02*
X-72628620Y8429720D01*
X-76854620Y8469720D02*
X-72512620Y8469720D01*
X-76964620Y8509720D02*
X-72402620Y8509720D01*
X-77068620Y8549720D02*
X-72298620Y8549720D01*
X-77167620Y8589720D02*
X-72199620Y8589720D01*
X-77262620Y8629720D02*
X-72104620Y8629720D01*
X-77353620Y8669720D02*
X-72013620Y8669720D01*
X-77441620Y8709720D02*
X-71925620Y8709720D01*
X-77525620Y8749720D02*
X-71841620Y8749720D01*
X-77606620Y8789720D02*
X-71760620Y8789720D01*
X-77685620Y8829720D02*
X-71681620Y8829720D01*
X-77761620Y8869720D02*
X-71605620Y8869720D01*
X-77835620Y8909720D02*
X-71531620Y8909720D01*
X-77906620Y8949720D02*
X-71460620Y8949720D01*
X-77976620Y8989720D02*
X-71390620Y8989720D01*
X-78044620Y9029720D02*
X-71322620Y9029720D01*
X-78110620Y9069720D02*
X-71256620Y9069720D01*
X-78174620Y9109720D02*
X-71192620Y9109720D01*
X-78237620Y9149720D02*
X-71129620Y9149720D01*
X-78298620Y9189720D02*
X-71068620Y9189720D01*
X-78358620Y9229720D02*
X-71008620Y9229720D01*
X-78416620Y9269720D02*
X-70950620Y9269720D01*
X-78473620Y9309720D02*
X-70893620Y9309720D01*
X-78529620Y9349720D02*
X-70837620Y9349720D01*
X-78583620Y9389720D02*
X-70783620Y9389720D01*
X-78637620Y9429720D02*
X-70729620Y9429720D01*
X-78689620Y9469720D02*
X-70677620Y9469720D01*
X-78740620Y9509720D02*
X-70626620Y9509720D01*
X-73243620Y9549720D02*
X-70575620Y9549720D01*
X-78791620Y9549720D02*
X-76123620Y9549720D01*
X-73243620Y9589720D02*
X-70526620Y9589720D01*
X-78840620Y9589720D02*
X-76123620Y9589720D01*
X-73243620Y9629720D02*
X-70478620Y9629720D01*
X-78888620Y9629720D02*
X-76123620Y9629720D01*
X-73243620Y9669720D02*
X-70430620Y9669720D01*
X-78936620Y9669720D02*
X-76123620Y9669720D01*
X-73243620Y9709720D02*
X-70384620Y9709720D01*
X-78982620Y9709720D02*
X-76123620Y9709720D01*
X-73243620Y9749720D02*
X-70338620Y9749720D01*
X-79028620Y9749720D02*
X-76123620Y9749720D01*
X-73243620Y9789720D02*
X-70293620Y9789720D01*
X-79073620Y9789720D02*
X-76123620Y9789720D01*
X-73243620Y9829720D02*
X-70249620Y9829720D01*
X-79117620Y9829720D02*
X-76123620Y9829720D01*
X-73243620Y9869720D02*
X-70206620Y9869720D01*
X-79160620Y9869720D02*
X-76123620Y9869720D01*
X-73243620Y9909720D02*
X-70164620Y9909720D01*
X-79202620Y9909720D02*
X-76123620Y9909720D01*
X-73243620Y9949720D02*
X-70122620Y9949720D01*
X-79244620Y9949720D02*
X-76123620Y9949720D01*
X-73243620Y9989720D02*
X-70081620Y9989720D01*
X-79285620Y9989720D02*
X-76123620Y9989720D01*
X-73243620Y10029720D02*
X-70040620Y10029720D01*
X-79326620Y10029720D02*
X-76123620Y10029720D01*
X-73243620Y10069720D02*
X-70001620Y10069720D01*
X-79365620Y10069720D02*
X-76123620Y10069720D01*
X-73243620Y10109720D02*
X-69962620Y10109720D01*
X-79404620Y10109720D02*
X-76123620Y10109720D01*
X-73243620Y10149720D02*
X-69923620Y10149720D01*
X-79443620Y10149720D02*
X-76123620Y10149720D01*
X-73243620Y10189720D02*
X-69886620Y10189720D01*
X-79480620Y10189720D02*
X-76123620Y10189720D01*
X-73243620Y10229720D02*
X-69849620Y10229720D01*
X-79517620Y10229720D02*
X-76123620Y10229720D01*
X-73243620Y10269720D02*
X-69812620Y10269720D01*
X-79554620Y10269720D02*
X-76123620Y10269720D01*
X-73243620Y10309720D02*
X-69776620Y10309720D01*
X-79590620Y10309720D02*
X-76123620Y10309720D01*
X-73243620Y10349720D02*
X-69741620Y10349720D01*
X-79625620Y10349720D02*
X-76123620Y10349720D01*
X-73243620Y10389720D02*
X-69706620Y10389720D01*
X-79660620Y10389720D02*
X-76123620Y10389720D01*
X-73243620Y10429720D02*
X-69672620Y10429720D01*
X-79694620Y10429720D02*
X-76123620Y10429720D01*
X-73243620Y10469720D02*
X-69639620Y10469720D01*
X-79727620Y10469720D02*
X-76123620Y10469720D01*
X-73243620Y10509720D02*
X-69605620Y10509720D01*
X-79761620Y10509720D02*
X-76123620Y10509720D01*
X-73243620Y10549720D02*
X-69573620Y10549720D01*
X-79793620Y10549720D02*
X-76123620Y10549720D01*
X-73243620Y10589720D02*
X-69541620Y10589720D01*
X-79825620Y10589720D02*
X-76123620Y10589720D01*
X-73243620Y10629720D02*
X-69509620Y10629720D01*
X-79857620Y10629720D02*
X-76123620Y10629720D01*
X-73243620Y10669720D02*
X-69478620Y10669720D01*
X-79888620Y10669720D02*
X-76123620Y10669720D01*
X-73243620Y10709720D02*
X-69448620Y10709720D01*
X-79918620Y10709720D02*
X-76123620Y10709720D01*
X-73243620Y10749720D02*
X-69418620Y10749720D01*
X-79948620Y10749720D02*
X-76123620Y10749720D01*
X-73243620Y10789720D02*
X-69388620Y10789720D01*
X-79978620Y10789720D02*
X-76123620Y10789720D01*
X-73243620Y10829720D02*
X-69359620Y10829720D01*
X-80007620Y10829720D02*
X-76123620Y10829720D01*
X-73243620Y10869720D02*
X-69330620Y10869720D01*
X-80036620Y10869720D02*
X-76123620Y10869720D01*
X-73243620Y10909720D02*
X-69302620Y10909720D01*
X-80064620Y10909720D02*
X-76123620Y10909720D01*
X-73243620Y10949720D02*
X-69274620Y10949720D01*
X-80092620Y10949720D02*
X-76123620Y10949720D01*
X-73243620Y10989720D02*
X-69247620Y10989720D01*
X-80119620Y10989720D02*
X-76123620Y10989720D01*
X-73243620Y11029720D02*
X-69220620Y11029720D01*
X-80146620Y11029720D02*
X-76123620Y11029720D01*
X-73243620Y11069720D02*
X-69193620Y11069720D01*
X-80173620Y11069720D02*
X-76123620Y11069720D01*
X-73243620Y11109720D02*
X-69167620Y11109720D01*
X-80199620Y11109720D02*
X-76123620Y11109720D01*
X-73243620Y11149720D02*
X-69141620Y11149720D01*
X-80225620Y11149720D02*
X-76123620Y11149720D01*
X-73243620Y11189720D02*
X-69116620Y11189720D01*
X-80250620Y11189720D02*
X-76123620Y11189720D01*
X-73243620Y11229720D02*
X-69091620Y11229720D01*
X-80275620Y11229720D02*
X-76123620Y11229720D01*
X-73243620Y11269720D02*
X-69066620Y11269720D01*
X-80300620Y11269720D02*
X-76123620Y11269720D01*
X-73243620Y11309720D02*
X-69042620Y11309720D01*
X-80324620Y11309720D02*
X-76123620Y11309720D01*
X-73243620Y11349720D02*
X-69019620Y11349720D01*
X-80347620Y11349720D02*
X-76123620Y11349720D01*
X-73243620Y11389720D02*
X-68995620Y11389720D01*
X-80371620Y11389720D02*
X-76123620Y11389720D01*
X-73243620Y11429720D02*
X-68972620Y11429720D01*
X-80394620Y11429720D02*
X-76123620Y11429720D01*
X-73243620Y11469720D02*
X-68950620Y11469720D01*
X-80416620Y11469720D02*
X-76123620Y11469720D01*
X-73243620Y11509720D02*
X-68927620Y11509720D01*
X-80439620Y11509720D02*
X-76123620Y11509720D01*
X-73243620Y11549720D02*
X-68905620Y11549720D01*
X-80461620Y11549720D02*
X-76123620Y11549720D01*
X-73243620Y11589720D02*
X-68884620Y11589720D01*
X-80482620Y11589720D02*
X-76123620Y11589720D01*
X-73243620Y11629720D02*
X-68863620Y11629720D01*
X-80503620Y11629720D02*
X-76123620Y11629720D01*
X-73243620Y11669720D02*
X-68842620Y11669720D01*
X-80524620Y11669720D02*
X-76123620Y11669720D01*
X-73243620Y11709720D02*
X-68821620Y11709720D01*
X-80545620Y11709720D02*
X-76123620Y11709720D01*
X-73243620Y11749720D02*
X-68801620Y11749720D01*
X-80565620Y11749720D02*
X-76123620Y11749720D01*
X-73243620Y11789720D02*
X-68781620Y11789720D01*
X-80585620Y11789720D02*
X-76123620Y11789720D01*
X-73243620Y11829720D02*
X-68762620Y11829720D01*
X-80604620Y11829720D02*
X-76123620Y11829720D01*
X-73243620Y11869720D02*
X-68743620Y11869720D01*
X-80623620Y11869720D02*
X-76123620Y11869720D01*
X-73243620Y11909720D02*
X-68724620Y11909720D01*
X-80642620Y11909720D02*
X-76123620Y11909720D01*
X-73243620Y11949720D02*
X-68705620Y11949720D01*
X-80661620Y11949720D02*
X-76123620Y11949720D01*
X-73243620Y11989720D02*
X-68687620Y11989720D01*
X-80679620Y11989720D02*
X-76123620Y11989720D01*
X-73243620Y12029720D02*
X-68669620Y12029720D01*
X-80697620Y12029720D02*
X-76123620Y12029720D01*
X-73243620Y12069720D02*
X-68652620Y12069720D01*
X-80714620Y12069720D02*
X-76123620Y12069720D01*
X-73243620Y12109720D02*
X-68634620Y12109720D01*
X-80732620Y12109720D02*
X-76123620Y12109720D01*
X-73243620Y12149720D02*
X-68618620Y12149720D01*
X-80748620Y12149720D02*
X-76123620Y12149720D01*
X-73243620Y12189720D02*
X-68601620Y12189720D01*
X-80765620Y12189720D02*
X-76123620Y12189720D01*
X-73243620Y12229720D02*
X-68585620Y12229720D01*
X-80781620Y12229720D02*
X-76123620Y12229720D01*
X-73243620Y12269720D02*
X-68569620Y12269720D01*
X-80797620Y12269720D02*
X-76123620Y12269720D01*
X-73243620Y12309720D02*
X-68553620Y12309720D01*
X-80813620Y12309720D02*
X-76123620Y12309720D01*
X-73243620Y12349720D02*
X-68537620Y12349720D01*
X-80829620Y12349720D02*
X-76123620Y12349720D01*
X-73243620Y12389720D02*
X-68522620Y12389720D01*
X-80844620Y12389720D02*
X-76123620Y12389720D01*
X-80858620Y12429720D02*
X-68508620Y12429720D01*
X-80873620Y12469720D02*
X-68493620Y12469720D01*
X-80887620Y12509720D02*
X-68479620Y12509720D01*
X-80901620Y12549720D02*
X-68465620Y12549720D01*
X-80915620Y12589720D02*
X-68451620Y12589720D01*
X-80928620Y12629720D02*
X-68438620Y12629720D01*
X-80941620Y12669720D02*
X-68425620Y12669720D01*
X-80954620Y12709720D02*
X-68412620Y12709720D01*
X-80967620Y12749720D02*
X-68399620Y12749720D01*
X-80979620Y12789720D02*
X-68387620Y12789720D01*
X-80991620Y12829720D02*
X-68375620Y12829720D01*
X-81003620Y12869720D02*
X-68363620Y12869720D01*
X-81014620Y12909720D02*
X-68352620Y12909720D01*
X-81025620Y12949720D02*
X-68341620Y12949720D01*
X-81036620Y12989720D02*
X-68330620Y12989720D01*
X-81047620Y13029720D02*
X-68319620Y13029720D01*
X-81057620Y13069720D02*
X-68309620Y13069720D01*
X-81067620Y13109720D02*
X-68299620Y13109720D01*
X-81077620Y13149720D02*
X-68289620Y13149720D01*
X-81087620Y13189720D02*
X-68279620Y13189720D01*
X-81096620Y13229720D02*
X-68270620Y13229720D01*
X-81105620Y13269720D02*
X-68261620Y13269720D01*
X-81114620Y13309720D02*
X-68252620Y13309720D01*
X-81122620Y13349720D02*
X-68244620Y13349720D01*
X-81131620Y13389720D02*
X-68235620Y13389720D01*
X-81139620Y13429720D02*
X-68227620Y13429720D01*
X-81146620Y13469720D02*
X-68220620Y13469720D01*
X-81154620Y13509720D02*
X-68212620Y13509720D01*
X-81161620Y13549720D02*
X-68205620Y13549720D01*
X-81168620Y13589720D02*
X-68198620Y13589720D01*
X-81175620Y13629720D02*
X-68191620Y13629720D01*
X-81181620Y13669720D02*
X-68185620Y13669720D01*
X-81188620Y13709720D02*
X-68178620Y13709720D01*
X-81194620Y13749720D02*
X-68172620Y13749720D01*
X-81199620Y13789720D02*
X-68167620Y13789720D01*
X-81205620Y13829720D02*
X-68161620Y13829720D01*
X-81210620Y13869720D02*
X-68156620Y13869720D01*
X-81215620Y13909720D02*
X-68151620Y13909720D01*
X-81220620Y13949720D02*
X-68146620Y13949720D01*
X-81224620Y13989720D02*
X-68142620Y13989720D01*
X-81228620Y14030720D02*
X-68138620Y14030720D01*
X-81232620Y14070720D02*
X-68134620Y14070720D01*
X-81236620Y14110720D02*
X-68130620Y14110720D01*
X-81240620Y14150720D02*
X-68126620Y14150720D01*
X-81243620Y14190720D02*
X-68123620Y14190720D01*
X-81246620Y14230720D02*
X-68120620Y14230720D01*
X-81249620Y14270720D02*
X-68117620Y14270720D01*
X-81251620Y14310720D02*
X-68115620Y14310720D01*
X-81254620Y14350720D02*
X-68112620Y14350720D01*
X-81256620Y14390720D02*
X-68110620Y14390720D01*
X-81258620Y14430720D02*
X-68108620Y14430720D01*
X-81259620Y14470720D02*
X-68107620Y14470720D01*
X-81260620Y14510720D02*
X-68106620Y14510720D01*
X-81262620Y14550720D02*
X-68104620Y14550720D01*
X-81262620Y14590720D02*
X-68104620Y14590720D01*
X-81263620Y14630720D02*
X-68103620Y14630720D01*
X-81263620Y14670720D02*
X-68103620Y14670720D01*
X-81263620Y14710720D02*
X-68103620Y14710720D01*
X-68063620Y14710720D02*
G75*
G03X-68063620Y14710720I-6620000J0D01*
G01*
X33092408Y37092004D02*
G75*
G03X33719279Y36947279I626871J1285275D01*
G01*
X32433455Y39004641D02*
G75*
G03X32433279Y37750279I1285824J-627362D01*
G01*
X34346641Y39663103D02*
G75*
G03X33092279Y39663279I-627362J-1285824D01*
G01*
X35005890Y37750533D02*
G75*
G03X35005279Y39005279I-1286611J626746D01*
G01*
X33694999Y36946339D02*
G75*
G03X34347279Y37091279I24280J1430940D01*
G01*
X30069279Y38377279D02*
G75*
G03X30069279Y38377279I-1430000J0D01*
G01*
X24989279Y38377279D02*
G75*
G03X24989279Y38377279I-1430000J0D01*
G01*
X19909279Y38377279D02*
G75*
G03X19909279Y38377279I-1430000J0D01*
G01*
X36319279Y34827279D02*
X15879279Y34827279D01*
X36319279Y35927279D02*
X15879279Y35927279D01*
X36319279Y40927279D02*
X15879279Y40927279D01*
X36319279Y42837279D02*
X15879279Y42837279D01*
X36319279Y34267279D02*
X15879279Y34267279D01*
X36319279Y42837279D02*
X36319279Y34267279D01*
X15879279Y42837279D02*
X15879279Y34267279D01*
X34969279Y42777279D02*
X32469279Y42777279D01*
X34969279Y41777279D02*
X32469279Y41777279D01*
X34969279Y42777279D02*
X34969279Y41777279D01*
X32469279Y42777279D02*
X32469279Y41777279D01*
X27554279Y39287279D02*
X27614279Y39228279D01*
X29509279Y37332279D02*
X29549279Y37292279D01*
X27728279Y39462279D02*
X27768279Y39422279D01*
X29663279Y37527279D02*
X29723279Y37467279D01*
X29889279Y42777279D02*
X27389279Y42777279D01*
X29889279Y41777279D02*
X27389279Y41777279D01*
X29889279Y42777279D02*
X29889279Y41777279D01*
X27389279Y42777279D02*
X27389279Y41777279D01*
X22474279Y39287279D02*
X22534279Y39228279D01*
X24429279Y37332279D02*
X24469279Y37292279D01*
X22648279Y39462279D02*
X22688279Y39422279D01*
X24583279Y37527279D02*
X24643279Y37467279D01*
X24809279Y42777279D02*
X22309279Y42777279D01*
X24809279Y41777279D02*
X22309279Y41777279D01*
X24809279Y42777279D02*
X24809279Y41777279D01*
X22309279Y42777279D02*
X22309279Y41777279D01*
X17394279Y39287279D02*
X17454279Y39228279D01*
X19349279Y37332279D02*
X19389279Y37292279D01*
X17568279Y39462279D02*
X17608279Y39422279D01*
X19503279Y37527279D02*
X19563279Y37467279D01*
X19729279Y42777279D02*
X17229279Y42777279D01*
X19729279Y41777279D02*
X17229279Y41777279D01*
X19729279Y42777279D02*
X19729279Y41777279D01*
X17229279Y42777279D02*
X17229279Y41777279D01*
X36559279Y34767279D02*
X36559279Y34027279D01*
X36559279Y34027279D02*
X36059279Y34027279D01*
X-6186871Y37074725D02*
G75*
G03X-5560000Y36930000I626871J1285275D01*
G01*
X-6845824Y38987362D02*
G75*
G03X-6846000Y37733000I1285824J-627362D01*
G01*
X-4932638Y39645824D02*
G75*
G03X-6187000Y39646000I-627362J-1285824D01*
G01*
X-4273389Y37733254D02*
G75*
G03X-4274000Y38988000I-1286611J626746D01*
G01*
X-5584280Y36929060D02*
G75*
G03X-4932000Y37074000I24280J1430940D01*
G01*
X-9210000Y38360000D02*
G75*
G03X-9210000Y38360000I-1430000J0D01*
G01*
X-2960000Y34810000D02*
X-13240000Y34810000D01*
X-2960000Y35910000D02*
X-13240000Y35910000D01*
X-2960000Y40910000D02*
X-13240000Y40910000D01*
X-2960000Y42820000D02*
X-13240000Y42820000D01*
X-2960000Y34250000D02*
X-13240000Y34250000D01*
X-2960000Y42820000D02*
X-2960000Y34250000D01*
X-13240000Y42820000D02*
X-13240000Y34250000D01*
X-4310000Y42760000D02*
X-6810000Y42760000D01*
X-4310000Y41760000D02*
X-6810000Y41760000D01*
X-4310000Y42760000D02*
X-4310000Y41760000D01*
X-6810000Y42760000D02*
X-6810000Y41760000D01*
X-11725000Y39270000D02*
X-11665000Y39211000D01*
X-9770000Y37315000D02*
X-9730000Y37275000D01*
X-11551000Y39445000D02*
X-11511000Y39405000D01*
X-9616000Y37510000D02*
X-9556000Y37450000D01*
X-9390000Y42760000D02*
X-11890000Y42760000D01*
X-9390000Y41760000D02*
X-11890000Y41760000D01*
X-9390000Y42760000D02*
X-9390000Y41760000D01*
X-11890000Y42760000D02*
X-11890000Y41760000D01*
X-2720000Y34750000D02*
X-2720000Y34010000D01*
X-2720000Y34010000D02*
X-3220000Y34010000D01*
X71720519Y-10051839D02*
X71720519Y-9551839D01*
X72460519Y-10051839D02*
X71720519Y-10051839D01*
X80470519Y-881839D02*
X79470519Y-881839D01*
X80470519Y-3381839D02*
X79470519Y-3381839D01*
X79470519Y-3381839D02*
X79470519Y-881839D01*
X80470519Y-3381839D02*
X80470519Y-881839D01*
X75220519Y-3155839D02*
X75160519Y-3215839D01*
X77155519Y-1220839D02*
X77115519Y-1260839D01*
X75025519Y-3001839D02*
X74985519Y-3041839D01*
X76980519Y-1046839D02*
X76921519Y-1106839D01*
X80470519Y-5961839D02*
X79470519Y-5961839D01*
X80470519Y-8461839D02*
X79470519Y-8461839D01*
X79470519Y-8461839D02*
X79470519Y-5961839D01*
X80470519Y-8461839D02*
X80470519Y-5961839D01*
X80530519Y468161D02*
X71960519Y468161D01*
X80530519Y-9811839D02*
X71960519Y-9811839D01*
X71960519Y-9811839D02*
X71960519Y468161D01*
X80530519Y-9811839D02*
X80530519Y468161D01*
X78620519Y-9811839D02*
X78620519Y468161D01*
X73620519Y-9811839D02*
X73620519Y468161D01*
X72520519Y-9811839D02*
X72520519Y468161D01*
X77500519Y-2131839D02*
G75*
G03X77500519Y-2131839I-1430000J0D01*
G01*
X74639579Y-7187559D02*
G75*
G03X74784519Y-7839839I1430940J-24280D01*
G01*
X75443773Y-8498450D02*
G75*
G03X76698519Y-8497839I626746J1286611D01*
G01*
X77356343Y-7839201D02*
G75*
G03X77356519Y-6584839I-1285824J627362D01*
G01*
X76697881Y-5926015D02*
G75*
G03X75443519Y-5925839I-627362J-1285824D01*
G01*
X74785244Y-6584968D02*
G75*
G03X74640519Y-7211839I1285275J-626871D01*
G01*
X74777624Y5762032D02*
G75*
G03X74632899Y5135161I1285275J-626871D01*
G01*
X76690261Y6420985D02*
G75*
G03X75435899Y6421161I-627362J-1285824D01*
G01*
X77348723Y4507799D02*
G75*
G03X77348899Y5762161I-1285824J627362D01*
G01*
X75436153Y3848550D02*
G75*
G03X76690899Y3849161I626746J1286611D01*
G01*
X74631959Y5159441D02*
G75*
G03X74776899Y4507161I1430940J-24280D01*
G01*
X77492899Y10215161D02*
G75*
G03X77492899Y10215161I-1430000J0D01*
G01*
X72512899Y2535161D02*
X72512899Y12815161D01*
X73612899Y2535161D02*
X73612899Y12815161D01*
X78612899Y2535161D02*
X78612899Y12815161D01*
X80522899Y2535161D02*
X80522899Y12815161D01*
X71952899Y2535161D02*
X71952899Y12815161D01*
X80522899Y2535161D02*
X71952899Y2535161D01*
X80522899Y12815161D02*
X71952899Y12815161D01*
X80462899Y3885161D02*
X80462899Y6385161D01*
X79462899Y3885161D02*
X79462899Y6385161D01*
X80462899Y3885161D02*
X79462899Y3885161D01*
X80462899Y6385161D02*
X79462899Y6385161D01*
X76972899Y11300161D02*
X76913899Y11240161D01*
X75017899Y9345161D02*
X74977899Y9305161D01*
X77147899Y11126161D02*
X77107899Y11086161D01*
X75212899Y9191161D02*
X75152899Y9131161D01*
X80462899Y8965161D02*
X80462899Y11465161D01*
X79462899Y8965161D02*
X79462899Y11465161D01*
X80462899Y8965161D02*
X79462899Y8965161D01*
X80462899Y11465161D02*
X79462899Y11465161D01*
X72452899Y2295161D02*
X71712899Y2295161D01*
X71712899Y2295161D02*
X71712899Y2795161D01*
X69583820Y-5336300D02*
X67743820Y-5336300D01*
X67743820Y-5336300D02*
X67743820Y-1496300D01*
X67743820Y-1496300D02*
X69583820Y-1496300D01*
X69583820Y-1496300D02*
X69583820Y-5336300D01*
X68663820Y-6286300D02*
X68663820Y-5336300D01*
X68663820Y-546300D02*
X68663820Y-1496300D01*
X68737480Y11772700D02*
X68737480Y10822700D01*
X68737480Y6032700D02*
X68737480Y6982700D01*
X69657480Y10822700D02*
X69657480Y6982700D01*
X67817480Y10822700D02*
X69657480Y10822700D01*
X67817480Y6982700D02*
X67817480Y10822700D01*
X69657480Y6982700D02*
X67817480Y6982700D01*
X-19607131Y37036345D02*
G75*
G03X-18980260Y36891620I626871J1285275D01*
G01*
X-20266084Y38948982D02*
G75*
G03X-20266260Y37694620I1285824J-627362D01*
G01*
X-18352898Y39607444D02*
G75*
G03X-19607260Y39607620I-627362J-1285824D01*
G01*
X-17693649Y37694874D02*
G75*
G03X-17694260Y38949620I-1286611J626746D01*
G01*
X-19004540Y36890680D02*
G75*
G03X-18352260Y37035620I24280J1430940D01*
G01*
X-22630260Y38321620D02*
G75*
G03X-22630260Y38321620I-1430000J0D01*
G01*
X-27710260Y38321620D02*
G75*
G03X-27710260Y38321620I-1430000J0D01*
G01*
X-32790260Y38321620D02*
G75*
G03X-32790260Y38321620I-1430000J0D01*
G01*
X-16380260Y34771620D02*
X-36820260Y34771620D01*
X-16380260Y35871620D02*
X-36820260Y35871620D01*
X-16380260Y40871620D02*
X-36820260Y40871620D01*
X-16380260Y42781620D02*
X-36820260Y42781620D01*
X-16380260Y34211620D02*
X-36820260Y34211620D01*
X-16380260Y42781620D02*
X-16380260Y34211620D01*
X-36820260Y42781620D02*
X-36820260Y34211620D01*
X-17730260Y42721620D02*
X-20230260Y42721620D01*
X-17730260Y41721620D02*
X-20230260Y41721620D01*
X-17730260Y42721620D02*
X-17730260Y41721620D01*
X-20230260Y42721620D02*
X-20230260Y41721620D01*
X-25145260Y39231620D02*
X-25085260Y39172620D01*
X-23190260Y37276620D02*
X-23150260Y37236620D01*
X-24971260Y39406620D02*
X-24931260Y39366620D01*
X-23036260Y37471620D02*
X-22976260Y37411620D01*
X-22810260Y42721620D02*
X-25310260Y42721620D01*
X-22810260Y41721620D02*
X-25310260Y41721620D01*
X-22810260Y42721620D02*
X-22810260Y41721620D01*
X-25310260Y42721620D02*
X-25310260Y41721620D01*
X-30225260Y39231620D02*
X-30165260Y39172620D01*
X-28270260Y37276620D02*
X-28230260Y37236620D01*
X-30051260Y39406620D02*
X-30011260Y39366620D01*
X-28116260Y37471620D02*
X-28056260Y37411620D01*
X-27890260Y42721620D02*
X-30390260Y42721620D01*
X-27890260Y41721620D02*
X-30390260Y41721620D01*
X-27890260Y42721620D02*
X-27890260Y41721620D01*
X-30390260Y42721620D02*
X-30390260Y41721620D01*
X-35305260Y39231620D02*
X-35245260Y39172620D01*
X-33350260Y37276620D02*
X-33310260Y37236620D01*
X-35131260Y39406620D02*
X-35091260Y39366620D01*
X-33196260Y37471620D02*
X-33136260Y37411620D01*
X-32970260Y42721620D02*
X-35470260Y42721620D01*
X-32970260Y41721620D02*
X-35470260Y41721620D01*
X-32970260Y42721620D02*
X-32970260Y41721620D01*
X-35470260Y42721620D02*
X-35470260Y41721620D01*
X-16140260Y34711620D02*
X-16140260Y33971620D01*
X-16140260Y33971620D02*
X-16640260Y33971620D01*
X-49450751Y37431945D02*
G75*
G03X-48823880Y37287220I626871J1285275D01*
G01*
X-50109704Y39344582D02*
G75*
G03X-50109880Y38090220I1285824J-627362D01*
G01*
X-48196518Y40003044D02*
G75*
G03X-49450880Y40003220I-627362J-1285824D01*
G01*
X-47537269Y38090474D02*
G75*
G03X-47537880Y39345220I-1286611J626746D01*
G01*
X-48848160Y37286280D02*
G75*
G03X-48195880Y37431220I24280J1430940D01*
G01*
X-52473880Y38717220D02*
G75*
G03X-52473880Y38717220I-1430000J0D01*
G01*
X-46223880Y35167220D02*
X-56503880Y35167220D01*
X-46223880Y36267220D02*
X-56503880Y36267220D01*
X-46223880Y41267220D02*
X-56503880Y41267220D01*
X-46223880Y43177220D02*
X-56503880Y43177220D01*
X-46223880Y34607220D02*
X-56503880Y34607220D01*
X-46223880Y43177220D02*
X-46223880Y34607220D01*
X-56503880Y43177220D02*
X-56503880Y34607220D01*
X-47573880Y43117220D02*
X-50073880Y43117220D01*
X-47573880Y42117220D02*
X-50073880Y42117220D01*
X-47573880Y43117220D02*
X-47573880Y42117220D01*
X-50073880Y43117220D02*
X-50073880Y42117220D01*
X-54988880Y39627220D02*
X-54928880Y39568220D01*
X-53033880Y37672220D02*
X-52993880Y37632220D01*
X-54814880Y39802220D02*
X-54774880Y39762220D01*
X-52879880Y37867220D02*
X-52819880Y37807220D01*
X-52653880Y43117220D02*
X-55153880Y43117220D01*
X-52653880Y42117220D02*
X-55153880Y42117220D01*
X-52653880Y43117220D02*
X-52653880Y42117220D01*
X-55153880Y43117220D02*
X-55153880Y42117220D01*
X-45983880Y35107220D02*
X-45983880Y34367220D01*
X-45983880Y34367220D02*
X-46483880Y34367220D01*
X-61866271Y37431945D02*
G75*
G03X-61239400Y37287220I626871J1285275D01*
G01*
X-62525224Y39344582D02*
G75*
G03X-62525400Y38090220I1285824J-627362D01*
G01*
X-60612038Y40003044D02*
G75*
G03X-61866400Y40003220I-627362J-1285824D01*
G01*
X-59952789Y38090474D02*
G75*
G03X-59953400Y39345220I-1286611J626746D01*
G01*
X-61263680Y37286280D02*
G75*
G03X-60611400Y37431220I24280J1430940D01*
G01*
X-64889400Y38717220D02*
G75*
G03X-64889400Y38717220I-1430000J0D01*
G01*
X-58639400Y35167220D02*
X-68919400Y35167220D01*
X-58639400Y36267220D02*
X-68919400Y36267220D01*
X-58639400Y41267220D02*
X-68919400Y41267220D01*
X-58639400Y43177220D02*
X-68919400Y43177220D01*
X-58639400Y34607220D02*
X-68919400Y34607220D01*
X-58639400Y43177220D02*
X-58639400Y34607220D01*
X-68919400Y43177220D02*
X-68919400Y34607220D01*
X-59989400Y43117220D02*
X-62489400Y43117220D01*
X-59989400Y42117220D02*
X-62489400Y42117220D01*
X-59989400Y43117220D02*
X-59989400Y42117220D01*
X-62489400Y43117220D02*
X-62489400Y42117220D01*
X-67404400Y39627220D02*
X-67344400Y39568220D01*
X-65449400Y37672220D02*
X-65409400Y37632220D01*
X-67230400Y39802220D02*
X-67190400Y39762220D01*
X-65295400Y37867220D02*
X-65235400Y37807220D01*
X-65069400Y43117220D02*
X-67569400Y43117220D01*
X-65069400Y42117220D02*
X-67569400Y42117220D01*
X-65069400Y43117220D02*
X-65069400Y42117220D01*
X-67569400Y43117220D02*
X-67569400Y42117220D01*
X-58399400Y35107220D02*
X-58399400Y34367220D01*
X-58399400Y34367220D02*
X-58899400Y34367220D01*
X5785000Y-18160000D02*
X15555000Y-18160000D01*
X5785000Y-13090000D02*
X15555000Y-13090000D01*
X5785000Y-18160000D02*
X5785000Y-13090000D01*
X15555000Y-18160000D02*
X15555000Y-13090000D01*
D10*
X-23315633Y-20058640D02*
X-22982300Y-19582450D01*
X-22744204Y-20058640D02*
X-22744204Y-19058640D01*
X-23125157Y-19058640D01*
X-23220395Y-19106260D01*
X-23268014Y-19153879D01*
X-23315633Y-19249117D01*
X-23315633Y-19391974D01*
X-23268014Y-19487212D01*
X-23220395Y-19534831D01*
X-23125157Y-19582450D01*
X-22744204Y-19582450D01*
X-23648966Y-19058640D02*
X-24268014Y-19058640D01*
X-23934680Y-19439593D01*
X-24077538Y-19439593D01*
X-24172776Y-19487212D01*
X-24220395Y-19534831D01*
X-24268014Y-19630069D01*
X-24268014Y-19868164D01*
X-24220395Y-19963402D01*
X-24172776Y-20011021D01*
X-24077538Y-20058640D01*
X-23791823Y-20058640D01*
X-23696585Y-20011021D01*
X-23648966Y-19963402D01*
X54920091Y17515039D02*
X54920091Y16705189D01*
X54872452Y16609913D01*
X54824814Y16562275D01*
X54729538Y16514637D01*
X54538985Y16514637D01*
X54443709Y16562275D01*
X54396070Y16609913D01*
X54348432Y16705189D01*
X54348432Y17515039D01*
X53395668Y17515039D02*
X53872050Y17515039D01*
X53919689Y17038657D01*
X53872050Y17086295D01*
X53776774Y17133933D01*
X53538583Y17133933D01*
X53443307Y17086295D01*
X53395668Y17038657D01*
X53348030Y16943380D01*
X53348030Y16705189D01*
X53395668Y16609913D01*
X53443307Y16562275D01*
X53538583Y16514637D01*
X53776774Y16514637D01*
X53872050Y16562275D01*
X53919689Y16609913D01*
X-70080499Y-16555815D02*
X-69270975Y-16555815D01*
X-69175737Y-16603434D01*
X-69128118Y-16651053D01*
X-69080499Y-16746291D01*
X-69080499Y-16936767D01*
X-69128118Y-17032005D01*
X-69175737Y-17079624D01*
X-69270975Y-17127243D01*
X-70080499Y-17127243D01*
X-70080499Y-17508196D02*
X-70080499Y-18127243D01*
X-69699546Y-17793910D01*
X-69699546Y-17936767D01*
X-69651927Y-18032005D01*
X-69604308Y-18079624D01*
X-69509070Y-18127243D01*
X-69270975Y-18127243D01*
X-69175737Y-18079624D01*
X-69128118Y-18032005D01*
X-69080499Y-17936767D01*
X-69080499Y-17651053D01*
X-69128118Y-17555815D01*
X-69175737Y-17508196D01*
X-67040499Y-12436767D02*
X-67040499Y-11960577D01*
X-68040499Y-11960577D01*
X-67040499Y-12770100D02*
X-68040499Y-12770100D01*
X-67326213Y-13103434D01*
X-68040499Y-13436767D01*
X-67040499Y-13436767D01*
X-67945260Y-13865339D02*
X-67992880Y-13912958D01*
X-68040499Y-14008196D01*
X-68040499Y-14246291D01*
X-67992880Y-14341529D01*
X-67945260Y-14389148D01*
X-67850022Y-14436767D01*
X-67754784Y-14436767D01*
X-67611927Y-14389148D01*
X-67040499Y-13817719D01*
X-67040499Y-14436767D01*
X-68040499Y-15341529D02*
X-68040499Y-14865339D01*
X-67564308Y-14817719D01*
X-67611927Y-14865339D01*
X-67659546Y-14960577D01*
X-67659546Y-15198672D01*
X-67611927Y-15293910D01*
X-67564308Y-15341529D01*
X-67469070Y-15389148D01*
X-67230975Y-15389148D01*
X-67135737Y-15341529D01*
X-67088118Y-15293910D01*
X-67040499Y-15198672D01*
X-67040499Y-14960577D01*
X-67088118Y-14865339D01*
X-67135737Y-14817719D01*
X-67040499Y-15865339D02*
X-67040499Y-16055815D01*
X-67088118Y-16151053D01*
X-67135737Y-16198672D01*
X-67278594Y-16293910D01*
X-67469070Y-16341529D01*
X-67850022Y-16341529D01*
X-67945260Y-16293910D01*
X-67992880Y-16246291D01*
X-68040499Y-16151053D01*
X-68040499Y-15960577D01*
X-67992880Y-15865339D01*
X-67945260Y-15817719D01*
X-67850022Y-15770100D01*
X-67611927Y-15770100D01*
X-67516689Y-15817719D01*
X-67469070Y-15865339D01*
X-67421451Y-15960577D01*
X-67421451Y-16151053D01*
X-67469070Y-16246291D01*
X-67516689Y-16293910D01*
X-67611927Y-16341529D01*
X-68040499Y-17198672D02*
X-68040499Y-17008196D01*
X-67992880Y-16912958D01*
X-67945260Y-16865339D01*
X-67802403Y-16770100D01*
X-67611927Y-16722481D01*
X-67230975Y-16722481D01*
X-67135737Y-16770100D01*
X-67088118Y-16817719D01*
X-67040499Y-16912958D01*
X-67040499Y-17103434D01*
X-67088118Y-17198672D01*
X-67135737Y-17246291D01*
X-67230975Y-17293910D01*
X-67469070Y-17293910D01*
X-67564308Y-17246291D01*
X-67611927Y-17198672D01*
X-67659546Y-17103434D01*
X-67659546Y-16912958D01*
X-67611927Y-16817719D01*
X-67564308Y-16770100D01*
X-67469070Y-16722481D01*
X-67040499Y-17722481D02*
X-67707165Y-17722481D01*
X-67611927Y-17722481D02*
X-67659546Y-17770100D01*
X-67707165Y-17865339D01*
X-67707165Y-18008196D01*
X-67659546Y-18103434D01*
X-67564308Y-18151053D01*
X-67040499Y-18151053D01*
X-67564308Y-18151053D02*
X-67659546Y-18198672D01*
X-67707165Y-18293910D01*
X-67707165Y-18436767D01*
X-67659546Y-18532005D01*
X-67564308Y-18579624D01*
X-67040499Y-18579624D01*
X-67040499Y-19198672D02*
X-67088118Y-19103434D01*
X-67135737Y-19055815D01*
X-67230975Y-19008196D01*
X-67516689Y-19008196D01*
X-67611927Y-19055815D01*
X-67659546Y-19103434D01*
X-67707165Y-19198672D01*
X-67707165Y-19341529D01*
X-67659546Y-19436767D01*
X-67611927Y-19484386D01*
X-67516689Y-19532005D01*
X-67230975Y-19532005D01*
X-67135737Y-19484386D01*
X-67088118Y-19436767D01*
X-67040499Y-19341529D01*
X-67040499Y-19198672D01*
X-67040499Y-20389148D02*
X-68040499Y-20389148D01*
X-67088118Y-20389148D02*
X-67040499Y-20293910D01*
X-67040499Y-20103434D01*
X-67088118Y-20008196D01*
X-67135737Y-19960577D01*
X-67230975Y-19912958D01*
X-67516689Y-19912958D01*
X-67611927Y-19960577D01*
X-67659546Y-20008196D01*
X-67707165Y-20103434D01*
X-67707165Y-20293910D01*
X-67659546Y-20389148D01*
X-67707165Y-21293910D02*
X-67040499Y-21293910D01*
X-67707165Y-20865339D02*
X-67183356Y-20865339D01*
X-67088118Y-20912958D01*
X-67040499Y-21008196D01*
X-67040499Y-21151053D01*
X-67088118Y-21246291D01*
X-67135737Y-21293910D01*
X-67040499Y-21912958D02*
X-67088118Y-21817720D01*
X-67183356Y-21770100D01*
X-68040499Y-21770100D01*
X-67088118Y-22674862D02*
X-67040499Y-22579624D01*
X-67040499Y-22389148D01*
X-67088118Y-22293910D01*
X-67183356Y-22246291D01*
X-67564308Y-22246291D01*
X-67659546Y-22293910D01*
X-67707165Y-22389148D01*
X-67707165Y-22579624D01*
X-67659546Y-22674862D01*
X-67564308Y-22722481D01*
X-67469070Y-22722481D01*
X-67373832Y-22246291D01*
X-80740499Y-34748672D02*
X-80740499Y-34939148D01*
X-80692880Y-35034386D01*
X-80597641Y-35129624D01*
X-80407165Y-35177243D01*
X-80073832Y-35177243D01*
X-79883356Y-35129624D01*
X-79788118Y-35034386D01*
X-79740499Y-34939148D01*
X-79740499Y-34748672D01*
X-79788118Y-34653434D01*
X-79883356Y-34558196D01*
X-80073832Y-34510577D01*
X-80407165Y-34510577D01*
X-80597641Y-34558196D01*
X-80692880Y-34653434D01*
X-80740499Y-34748672D01*
X-80740499Y-35605815D02*
X-79930975Y-35605815D01*
X-79835737Y-35653434D01*
X-79788118Y-35701053D01*
X-79740499Y-35796291D01*
X-79740499Y-35986767D01*
X-79788118Y-36082005D01*
X-79835737Y-36129624D01*
X-79930975Y-36177243D01*
X-80740499Y-36177243D01*
X-80740499Y-36510577D02*
X-80740499Y-37082005D01*
X-79740499Y-36796291D02*
X-80740499Y-36796291D01*
X-80121451Y-37415339D02*
X-80121451Y-38177243D01*
X-79740499Y-37796291D02*
X-80502403Y-37796291D01*
X-60420499Y-34748672D02*
X-60420499Y-34939148D01*
X-60372880Y-35034386D01*
X-60277641Y-35129624D01*
X-60087165Y-35177243D01*
X-59753832Y-35177243D01*
X-59563356Y-35129624D01*
X-59468118Y-35034386D01*
X-59420499Y-34939148D01*
X-59420499Y-34748672D01*
X-59468118Y-34653434D01*
X-59563356Y-34558196D01*
X-59753832Y-34510577D01*
X-60087165Y-34510577D01*
X-60277641Y-34558196D01*
X-60372880Y-34653434D01*
X-60420499Y-34748672D01*
X-60420499Y-35605815D02*
X-59610975Y-35605815D01*
X-59515737Y-35653434D01*
X-59468118Y-35701053D01*
X-59420499Y-35796291D01*
X-59420499Y-35986767D01*
X-59468118Y-36082005D01*
X-59515737Y-36129624D01*
X-59610975Y-36177243D01*
X-60420499Y-36177243D01*
X-60420499Y-36510577D02*
X-60420499Y-37082005D01*
X-59420499Y-36796291D02*
X-60420499Y-36796291D01*
X-59801451Y-37415339D02*
X-59801451Y-38177243D01*
X-59420499Y2875137D02*
X-60420499Y2875137D01*
X-59420499Y2398946D02*
X-60420499Y2398946D01*
X-59420499Y1827518D01*
X-60420499Y1827518D01*
X-59801451Y1351327D02*
X-59801451Y589422D01*
X-79740499Y2875137D02*
X-80740499Y2875137D01*
X-79740499Y2398946D02*
X-80740499Y2398946D01*
X-79740499Y1827518D01*
X-80740499Y1827518D01*
X-80121451Y1351327D02*
X-80121451Y589422D01*
X-79740499Y970375D02*
X-80502403Y970375D01*
X4901463Y37377619D02*
X4901463Y36663333D01*
X4949082Y36520476D01*
X5044320Y36425238D01*
X5187178Y36377619D01*
X5282416Y36377619D01*
X3901463Y36377619D02*
X4472892Y36377619D01*
X4187178Y36377619D02*
X4187178Y37377619D01*
X4282416Y37234761D01*
X4377654Y37139523D01*
X4472892Y37091904D01*
X2996701Y37377619D02*
X3472892Y37377619D01*
X3520511Y36901428D01*
X3472892Y36949047D01*
X3377654Y36996666D01*
X3139559Y36996666D01*
X3044320Y36949047D01*
X2996701Y36901428D01*
X2949082Y36806190D01*
X2949082Y36568095D01*
X2996701Y36472857D01*
X3044320Y36425238D01*
X3139559Y36377619D01*
X3377654Y36377619D01*
X3472892Y36425238D01*
X3520511Y36472857D01*
X-1287753Y32996166D02*
X-811562Y32996166D01*
X-1382991Y33281880D02*
X-1049658Y32281880D01*
X-716324Y33281880D01*
X-382991Y33281880D02*
X-382991Y32281880D01*
X188437Y33281880D01*
X188437Y32281880D01*
X1188437Y32329500D02*
X1093199Y32281880D01*
X950341Y32281880D01*
X807484Y32329500D01*
X712246Y32424738D01*
X664627Y32519976D01*
X617008Y32710452D01*
X617008Y32853309D01*
X664627Y33043785D01*
X712246Y33139023D01*
X807484Y33234261D01*
X950341Y33281880D01*
X1045580Y33281880D01*
X1188437Y33234261D01*
X1236056Y33186642D01*
X1236056Y32853309D01*
X1045580Y32853309D01*
X2140818Y33281880D02*
X1664627Y33281880D01*
X1664627Y32281880D01*
X2474151Y32758071D02*
X2807484Y32758071D01*
X2950341Y33281880D02*
X2474151Y33281880D01*
X2474151Y32281880D01*
X2950341Y32281880D01*
X4140818Y33281880D02*
X4140818Y32281880D01*
X4474151Y32996166D01*
X4807484Y32281880D01*
X4807484Y33281880D01*
X5283675Y32758071D02*
X5617008Y32758071D01*
X5759865Y33281880D02*
X5283675Y33281880D01*
X5283675Y32281880D01*
X5759865Y32281880D01*
X6140818Y32996166D02*
X6617008Y32996166D01*
X6045579Y33281880D02*
X6378913Y32281880D01*
X6712246Y33281880D01*
X6997960Y33234261D02*
X7140818Y33281880D01*
X7378913Y33281880D01*
X7474151Y33234261D01*
X7521770Y33186642D01*
X7569389Y33091404D01*
X7569389Y32996166D01*
X7521770Y32900928D01*
X7474151Y32853309D01*
X7378913Y32805690D01*
X7188437Y32758071D01*
X7093199Y32710452D01*
X7045579Y32662833D01*
X6997960Y32567595D01*
X6997960Y32472357D01*
X7045579Y32377119D01*
X7093199Y32329500D01*
X7188437Y32281880D01*
X7426532Y32281880D01*
X7569389Y32329500D01*
X7997960Y32281880D02*
X7997960Y33091404D01*
X8045579Y33186642D01*
X8093199Y33234261D01*
X8188437Y33281880D01*
X8378913Y33281880D01*
X8474151Y33234261D01*
X8521770Y33186642D01*
X8569389Y33091404D01*
X8569389Y32281880D01*
X9617008Y33281880D02*
X9283675Y32805690D01*
X9045579Y33281880D02*
X9045579Y32281880D01*
X9426532Y32281880D01*
X9521770Y32329500D01*
X9569389Y32377119D01*
X9617008Y32472357D01*
X9617008Y32615214D01*
X9569389Y32710452D01*
X9521770Y32758071D01*
X9426532Y32805690D01*
X9045579Y32805690D01*
X10045579Y32758071D02*
X10378913Y32758071D01*
X10521770Y33281880D02*
X10045579Y33281880D01*
X10045579Y32281880D01*
X10521770Y32281880D01*
X10950341Y33281880D02*
X10950341Y32281880D01*
X11283675Y32996166D01*
X11617008Y32281880D01*
X11617008Y33281880D01*
X12093199Y32758071D02*
X12426532Y32758071D01*
X12569389Y33281880D02*
X12093199Y33281880D01*
X12093199Y32281880D01*
X12569389Y32281880D01*
X12997960Y33281880D02*
X12997960Y32281880D01*
X13569389Y33281880D01*
X13569389Y32281880D01*
X13902722Y32281880D02*
X14474151Y32281880D01*
X14188437Y33281880D02*
X14188437Y32281880D01*
X64595000Y14144286D02*
X64118810Y14477620D01*
X64595000Y14715715D02*
X63595000Y14715715D01*
X63595000Y14334762D01*
X63642620Y14239524D01*
X63690239Y14191905D01*
X63785477Y14144286D01*
X63928334Y14144286D01*
X64023572Y14191905D01*
X64071191Y14239524D01*
X64118810Y14334762D01*
X64118810Y14715715D01*
X63595000Y13287143D02*
X63595000Y13477620D01*
X63642620Y13572858D01*
X63690239Y13620477D01*
X63833096Y13715715D01*
X64023572Y13763334D01*
X64404524Y13763334D01*
X64499762Y13715715D01*
X64547381Y13668096D01*
X64595000Y13572858D01*
X64595000Y13382381D01*
X64547381Y13287143D01*
X64499762Y13239524D01*
X64404524Y13191905D01*
X64166429Y13191905D01*
X64071191Y13239524D01*
X64023572Y13287143D01*
X63975953Y13382381D01*
X63975953Y13572858D01*
X64023572Y13668096D01*
X64071191Y13715715D01*
X64166429Y13763334D01*
X61887360Y14162066D02*
X61411170Y14495400D01*
X61887360Y14733495D02*
X60887360Y14733495D01*
X60887360Y14352542D01*
X60934980Y14257304D01*
X60982599Y14209685D01*
X61077837Y14162066D01*
X61220694Y14162066D01*
X61315932Y14209685D01*
X61363551Y14257304D01*
X61411170Y14352542D01*
X61411170Y14733495D01*
X60887360Y13257304D02*
X60887360Y13733495D01*
X61363551Y13781114D01*
X61315932Y13733495D01*
X61268313Y13638257D01*
X61268313Y13400161D01*
X61315932Y13304923D01*
X61363551Y13257304D01*
X61458789Y13209685D01*
X61696884Y13209685D01*
X61792122Y13257304D01*
X61839741Y13304923D01*
X61887360Y13400161D01*
X61887360Y13638257D01*
X61839741Y13733495D01*
X61792122Y13781114D01*
X52692560Y9897406D02*
X52216370Y10230740D01*
X52692560Y10468835D02*
X51692560Y10468835D01*
X51692560Y10087882D01*
X51740180Y9992644D01*
X51787799Y9945025D01*
X51883037Y9897406D01*
X52025894Y9897406D01*
X52121132Y9945025D01*
X52168751Y9992644D01*
X52216370Y10087882D01*
X52216370Y10468835D01*
X51692560Y9564073D02*
X51692560Y8897406D01*
X52692560Y9325978D01*
X53497680Y-3322415D02*
X54307204Y-3322415D01*
X54402442Y-3370034D01*
X54450061Y-3417653D01*
X54497680Y-3512891D01*
X54497680Y-3703367D01*
X54450061Y-3798605D01*
X54402442Y-3846224D01*
X54307204Y-3893843D01*
X53497680Y-3893843D01*
X53497680Y-4798605D02*
X53497680Y-4608129D01*
X53545300Y-4512891D01*
X53592919Y-4465272D01*
X53735776Y-4370034D01*
X53926252Y-4322415D01*
X54307204Y-4322415D01*
X54402442Y-4370034D01*
X54450061Y-4417653D01*
X54497680Y-4512891D01*
X54497680Y-4703367D01*
X54450061Y-4798605D01*
X54402442Y-4846224D01*
X54307204Y-4893843D01*
X54069109Y-4893843D01*
X53973871Y-4846224D01*
X53926252Y-4798605D01*
X53878633Y-4703367D01*
X53878633Y-4512891D01*
X53926252Y-4417653D01*
X53973871Y-4370034D01*
X54069109Y-4322415D01*
X56399702Y9374166D02*
X56447321Y9421785D01*
X56494940Y9564642D01*
X56494940Y9659880D01*
X56447321Y9802738D01*
X56352083Y9897976D01*
X56256845Y9945595D01*
X56066369Y9993214D01*
X55923512Y9993214D01*
X55733036Y9945595D01*
X55637798Y9897976D01*
X55542560Y9802738D01*
X55494940Y9659880D01*
X55494940Y9564642D01*
X55542560Y9421785D01*
X55590179Y9374166D01*
X55923512Y8802738D02*
X55875893Y8897976D01*
X55828274Y8945595D01*
X55733036Y8993214D01*
X55685417Y8993214D01*
X55590179Y8945595D01*
X55542560Y8897976D01*
X55494940Y8802738D01*
X55494940Y8612261D01*
X55542560Y8517023D01*
X55590179Y8469404D01*
X55685417Y8421785D01*
X55733036Y8421785D01*
X55828274Y8469404D01*
X55875893Y8517023D01*
X55923512Y8612261D01*
X55923512Y8802738D01*
X55971131Y8897976D01*
X56018750Y8945595D01*
X56113988Y8993214D01*
X56304464Y8993214D01*
X56399702Y8945595D01*
X56447321Y8897976D01*
X56494940Y8802738D01*
X56494940Y8612261D01*
X56447321Y8517023D01*
X56399702Y8469404D01*
X56304464Y8421785D01*
X56113988Y8421785D01*
X56018750Y8469404D01*
X55971131Y8517023D01*
X55923512Y8612261D01*
X59377840Y14154446D02*
X58901650Y14487780D01*
X59377840Y14725875D02*
X58377840Y14725875D01*
X58377840Y14344922D01*
X58425460Y14249684D01*
X58473079Y14202065D01*
X58568317Y14154446D01*
X58711174Y14154446D01*
X58806412Y14202065D01*
X58854031Y14249684D01*
X58901650Y14344922D01*
X58901650Y14725875D01*
X58711174Y13297303D02*
X59377840Y13297303D01*
X58330221Y13535399D02*
X59044507Y13773494D01*
X59044507Y13154446D01*
D12*
X-39038348Y-3312160D02*
X-38602920Y-3312160D01*
X-38515834Y-3283131D01*
X-38457777Y-3225074D01*
X-38428748Y-3137988D01*
X-38428748Y-3079931D01*
X-38428748Y-3921760D02*
X-38428748Y-3573417D01*
X-38428748Y-3747588D02*
X-39038348Y-3747588D01*
X-38951262Y-3689531D01*
X-38893205Y-3631474D01*
X-38864177Y-3573417D01*
X-36418057Y-10591074D02*
X-36389028Y-10678160D01*
X-36389028Y-10823302D01*
X-36418057Y-10881360D01*
X-36447085Y-10910388D01*
X-36505142Y-10939417D01*
X-36563200Y-10939417D01*
X-36621257Y-10910388D01*
X-36650285Y-10881360D01*
X-36679314Y-10823302D01*
X-36708342Y-10707188D01*
X-36737371Y-10649131D01*
X-36766400Y-10620102D01*
X-36824457Y-10591074D01*
X-36882514Y-10591074D01*
X-36940571Y-10620102D01*
X-36969600Y-10649131D01*
X-36998628Y-10707188D01*
X-36998628Y-10852331D01*
X-36969600Y-10939417D01*
X-36708342Y-11200674D02*
X-36708342Y-11403874D01*
X-36389028Y-11490960D02*
X-36389028Y-11200674D01*
X-36998628Y-11200674D01*
X-36998628Y-11490960D01*
X-36389028Y-12100560D02*
X-36679314Y-11897360D01*
X-36389028Y-11752217D02*
X-36998628Y-11752217D01*
X-36998628Y-11984445D01*
X-36969600Y-12042502D01*
X-36940571Y-12071531D01*
X-36882514Y-12100560D01*
X-36795428Y-12100560D01*
X-36737371Y-12071531D01*
X-36708342Y-12042502D01*
X-36679314Y-11984445D01*
X-36679314Y-11752217D01*
X-36389028Y-12361817D02*
X-36998628Y-12361817D01*
X-36563200Y-12623074D02*
X-36563200Y-12913360D01*
X-36389028Y-12565017D02*
X-36998628Y-12768217D01*
X-36389028Y-12971417D01*
X-36389028Y-13464902D02*
X-36389028Y-13174617D01*
X-36998628Y-13174617D01*
D10*
X-6902177Y3443266D02*
X-6854558Y3490885D01*
X-6806939Y3633742D01*
X-6806939Y3728980D01*
X-6854558Y3871838D01*
X-6949796Y3967076D01*
X-7045034Y4014695D01*
X-7235510Y4062314D01*
X-7378367Y4062314D01*
X-7568843Y4014695D01*
X-7664081Y3967076D01*
X-7759320Y3871838D01*
X-7806939Y3728980D01*
X-7806939Y3633742D01*
X-7759320Y3490885D01*
X-7711700Y3443266D01*
X-6806939Y2490885D02*
X-6806939Y3062314D01*
X-6806939Y2776600D02*
X-7806939Y2776600D01*
X-7664081Y2871838D01*
X-7568843Y2967076D01*
X-7521224Y3062314D01*
X-42119277Y2643166D02*
X-42071658Y2690785D01*
X-42024039Y2833642D01*
X-42024039Y2928880D01*
X-42071658Y3071738D01*
X-42166896Y3166976D01*
X-42262134Y3214595D01*
X-42452610Y3262214D01*
X-42595467Y3262214D01*
X-42785943Y3214595D01*
X-42881181Y3166976D01*
X-42976420Y3071738D01*
X-43024039Y2928880D01*
X-43024039Y2833642D01*
X-42976420Y2690785D01*
X-42928800Y2643166D01*
X-42928800Y2262214D02*
X-42976420Y2214595D01*
X-43024039Y2119357D01*
X-43024039Y1881261D01*
X-42976420Y1786023D01*
X-42928800Y1738404D01*
X-42833562Y1690785D01*
X-42738324Y1690785D01*
X-42595467Y1738404D01*
X-42024039Y2309833D01*
X-42024039Y1690785D01*
X-42091337Y14276366D02*
X-42043718Y14323985D01*
X-41996099Y14466842D01*
X-41996099Y14562080D01*
X-42043718Y14704938D01*
X-42138956Y14800176D01*
X-42234194Y14847795D01*
X-42424670Y14895414D01*
X-42567527Y14895414D01*
X-42758003Y14847795D01*
X-42853241Y14800176D01*
X-42948480Y14704938D01*
X-42996099Y14562080D01*
X-42996099Y14466842D01*
X-42948480Y14323985D01*
X-42900860Y14276366D01*
X-42996099Y13943033D02*
X-42996099Y13323985D01*
X-42615146Y13657319D01*
X-42615146Y13514461D01*
X-42567527Y13419223D01*
X-42519908Y13371604D01*
X-42424670Y13323985D01*
X-42186575Y13323985D01*
X-42091337Y13371604D01*
X-42043718Y13419223D01*
X-41996099Y13514461D01*
X-41996099Y13800176D01*
X-42043718Y13895414D01*
X-42091337Y13943033D01*
X-33237419Y27237013D02*
X-32523133Y27237013D01*
X-32380276Y27284632D01*
X-32285038Y27379870D01*
X-32237419Y27522727D01*
X-32237419Y27617965D01*
X-33142180Y26808441D02*
X-33189800Y26760822D01*
X-33237419Y26665584D01*
X-33237419Y26427489D01*
X-33189800Y26332251D01*
X-33142180Y26284632D01*
X-33046942Y26237013D01*
X-32951704Y26237013D01*
X-32808847Y26284632D01*
X-32237419Y26856060D01*
X-32237419Y26237013D01*
X-28533333Y-25212380D02*
X-28200000Y-24736190D01*
X-27961904Y-25212380D02*
X-27961904Y-24212380D01*
X-28342857Y-24212380D01*
X-28438095Y-24260000D01*
X-28485714Y-24307619D01*
X-28533333Y-24402857D01*
X-28533333Y-24545714D01*
X-28485714Y-24640952D01*
X-28438095Y-24688571D01*
X-28342857Y-24736190D01*
X-27961904Y-24736190D01*
X-29485714Y-25212380D02*
X-28914285Y-25212380D01*
X-29200000Y-25212380D02*
X-29200000Y-24212380D01*
X-29104761Y-24355238D01*
X-29009523Y-24450476D01*
X-28914285Y-24498095D01*
X-7040619Y11053106D02*
X-7516809Y11386440D01*
X-7040619Y11624535D02*
X-8040619Y11624535D01*
X-8040619Y11243582D01*
X-7993000Y11148344D01*
X-7945380Y11100725D01*
X-7850142Y11053106D01*
X-7707285Y11053106D01*
X-7612047Y11100725D01*
X-7564428Y11148344D01*
X-7516809Y11243582D01*
X-7516809Y11624535D01*
X-7945380Y10672154D02*
X-7993000Y10624535D01*
X-8040619Y10529297D01*
X-8040619Y10291201D01*
X-7993000Y10195963D01*
X-7945380Y10148344D01*
X-7850142Y10100725D01*
X-7754904Y10100725D01*
X-7612047Y10148344D01*
X-7040619Y10719773D01*
X-7040619Y10100725D01*
D12*
X-23007682Y-14847751D02*
X-23007682Y-15341237D01*
X-23036711Y-15399294D01*
X-23065740Y-15428322D01*
X-23123797Y-15457351D01*
X-23239911Y-15457351D01*
X-23297968Y-15428322D01*
X-23326997Y-15399294D01*
X-23356025Y-15341237D01*
X-23356025Y-14847751D01*
X-23965625Y-15457351D02*
X-23617282Y-15457351D01*
X-23791454Y-15457351D02*
X-23791454Y-14847751D01*
X-23733397Y-14934837D01*
X-23675340Y-14992894D01*
X-23617282Y-15021922D01*
X-23421340Y5304971D02*
X-23421340Y5014685D01*
X-23247168Y5363028D02*
X-23856768Y5159828D01*
X-23247168Y4956628D01*
X-23856768Y4840514D02*
X-23856768Y4492171D01*
X-23247168Y4666342D02*
X-23856768Y4666342D01*
X-23247168Y4288971D02*
X-23856768Y4288971D01*
X-23421340Y4085771D01*
X-23856768Y3882571D01*
X-23247168Y3882571D01*
X-23566482Y3592285D02*
X-23566482Y3389085D01*
X-23247168Y3302000D02*
X-23247168Y3592285D01*
X-23856768Y3592285D01*
X-23856768Y3302000D01*
X-23827740Y2721428D02*
X-23856768Y2779485D01*
X-23856768Y2866571D01*
X-23827740Y2953657D01*
X-23769682Y3011714D01*
X-23711625Y3040742D01*
X-23595511Y3069771D01*
X-23508425Y3069771D01*
X-23392311Y3040742D01*
X-23334254Y3011714D01*
X-23276197Y2953657D01*
X-23247168Y2866571D01*
X-23247168Y2808514D01*
X-23276197Y2721428D01*
X-23305225Y2692400D01*
X-23508425Y2692400D01*
X-23508425Y2808514D01*
X-23421340Y2460171D02*
X-23421340Y2169885D01*
X-23247168Y2518228D02*
X-23856768Y2315028D01*
X-23247168Y2111828D01*
X-23856768Y1966685D02*
X-23856768Y1589314D01*
X-23624540Y1792514D01*
X-23624540Y1705428D01*
X-23595511Y1647371D01*
X-23566482Y1618342D01*
X-23508425Y1589314D01*
X-23363282Y1589314D01*
X-23305225Y1618342D01*
X-23276197Y1647371D01*
X-23247168Y1705428D01*
X-23247168Y1879600D01*
X-23276197Y1937657D01*
X-23305225Y1966685D01*
X-23798711Y1357085D02*
X-23827740Y1328057D01*
X-23856768Y1270000D01*
X-23856768Y1124857D01*
X-23827740Y1066800D01*
X-23798711Y1037771D01*
X-23740654Y1008742D01*
X-23682597Y1008742D01*
X-23595511Y1037771D01*
X-23247168Y1386114D01*
X-23247168Y1008742D01*
X-23595511Y660400D02*
X-23624540Y718457D01*
X-23653568Y747485D01*
X-23711625Y776514D01*
X-23740654Y776514D01*
X-23798711Y747485D01*
X-23827740Y718457D01*
X-23856768Y660400D01*
X-23856768Y544285D01*
X-23827740Y486228D01*
X-23798711Y457200D01*
X-23740654Y428171D01*
X-23711625Y428171D01*
X-23653568Y457200D01*
X-23624540Y486228D01*
X-23595511Y544285D01*
X-23595511Y660400D01*
X-23566482Y718457D01*
X-23537454Y747485D01*
X-23479397Y776514D01*
X-23363282Y776514D01*
X-23305225Y747485D01*
X-23276197Y718457D01*
X-23247168Y660400D01*
X-23247168Y544285D01*
X-23276197Y486228D01*
X-23305225Y457200D01*
X-23363282Y428171D01*
X-23479397Y428171D01*
X-23537454Y457200D01*
X-23566482Y486228D01*
X-23595511Y544285D01*
X-23247168Y166914D02*
X-23856768Y166914D01*
X-23856768Y-65314D01*
X-23827740Y-123371D01*
X-23798711Y-152400D01*
X-23740654Y-181428D01*
X-23653568Y-181428D01*
X-23595511Y-152400D01*
X-23566482Y-123371D01*
X-23537454Y-65314D01*
X-23537454Y166914D01*
X-23189111Y-297542D02*
X-23189111Y-762000D01*
X-23247168Y-907142D02*
X-23856768Y-907142D01*
X-23856768Y-1139371D01*
X-23827740Y-1197428D01*
X-23798711Y-1226457D01*
X-23740654Y-1255485D01*
X-23653568Y-1255485D01*
X-23595511Y-1226457D01*
X-23566482Y-1197428D01*
X-23537454Y-1139371D01*
X-23537454Y-907142D01*
X-23247168Y-1516742D02*
X-23856768Y-1516742D01*
X-23856768Y-1661885D01*
X-23827740Y-1748971D01*
X-23769682Y-1807028D01*
X-23711625Y-1836057D01*
X-23595511Y-1865085D01*
X-23508425Y-1865085D01*
X-23392311Y-1836057D01*
X-23334254Y-1807028D01*
X-23276197Y-1748971D01*
X-23247168Y-1661885D01*
X-23247168Y-1516742D01*
X-23247168Y-2126342D02*
X-23856768Y-2126342D01*
X-23247168Y-2416628D02*
X-23856768Y-2416628D01*
X-23856768Y-2648857D01*
X-23827740Y-2706914D01*
X-23798711Y-2735942D01*
X-23740654Y-2764971D01*
X-23653568Y-2764971D01*
X-23595511Y-2735942D01*
X-23566482Y-2706914D01*
X-23537454Y-2648857D01*
X-23537454Y-2416628D01*
X-38226274Y15403285D02*
X-37935988Y15403285D01*
X-38545588Y15606485D02*
X-38226274Y15403285D01*
X-38545588Y15200085D01*
X-37935988Y14677571D02*
X-37935988Y15025914D01*
X-37935988Y14851742D02*
X-38545588Y14851742D01*
X-38458502Y14909800D01*
X-38400445Y14967857D01*
X-38371417Y15025914D01*
D10*
X-32198986Y-15491340D02*
X-32198986Y-16205626D01*
X-32151367Y-16348483D01*
X-32056129Y-16443721D01*
X-31913272Y-16491340D01*
X-31818034Y-16491340D01*
X-32579939Y-15491340D02*
X-33198986Y-15491340D01*
X-32865653Y-15872293D01*
X-33008510Y-15872293D01*
X-33103748Y-15919912D01*
X-33151367Y-15967531D01*
X-33198986Y-16062769D01*
X-33198986Y-16300864D01*
X-33151367Y-16396102D01*
X-33103748Y-16443721D01*
X-33008510Y-16491340D01*
X-32722796Y-16491340D01*
X-32627558Y-16443721D01*
X-32579939Y-16396102D01*
X-14190386Y-15491340D02*
X-14190386Y-16205626D01*
X-14142767Y-16348483D01*
X-14047529Y-16443721D01*
X-13904672Y-16491340D01*
X-13809434Y-16491340D01*
X-15095148Y-15824674D02*
X-15095148Y-16491340D01*
X-14857053Y-15443721D02*
X-14618958Y-16158007D01*
X-15238005Y-16158007D01*
X-73643193Y-43514282D02*
X-73595574Y-43561901D01*
X-73452717Y-43609520D01*
X-73357479Y-43609520D01*
X-73214621Y-43561901D01*
X-73119383Y-43466663D01*
X-73071764Y-43371425D01*
X-73024145Y-43180949D01*
X-73024145Y-43038092D01*
X-73071764Y-42847616D01*
X-73119383Y-42752378D01*
X-73214621Y-42657140D01*
X-73357479Y-42609520D01*
X-73452717Y-42609520D01*
X-73595574Y-42657140D01*
X-73643193Y-42704759D01*
X-74500336Y-42609520D02*
X-74309860Y-42609520D01*
X-74214621Y-42657140D01*
X-74167002Y-42704759D01*
X-74071764Y-42847616D01*
X-74024145Y-43038092D01*
X-74024145Y-43419044D01*
X-74071764Y-43514282D01*
X-74119383Y-43561901D01*
X-74214621Y-43609520D01*
X-74405098Y-43609520D01*
X-74500336Y-43561901D01*
X-74547955Y-43514282D01*
X-74595574Y-43419044D01*
X-74595574Y-43180949D01*
X-74547955Y-43085711D01*
X-74500336Y-43038092D01*
X-74405098Y-42990473D01*
X-74214621Y-42990473D01*
X-74119383Y-43038092D01*
X-74071764Y-43085711D01*
X-74024145Y-43180949D01*
X75855580Y35933284D02*
X76665104Y35933284D01*
X76760342Y35885665D01*
X76807961Y35838046D01*
X76855580Y35742808D01*
X76855580Y35552332D01*
X76807961Y35457094D01*
X76760342Y35409475D01*
X76665104Y35361856D01*
X75855580Y35361856D01*
X76188914Y34457094D02*
X76855580Y34457094D01*
X75807961Y34695189D02*
X76522247Y34933284D01*
X76522247Y34314237D01*
X-68875684Y21334619D02*
X-68875684Y22334619D01*
X-69113780Y22334619D01*
X-69256637Y22287000D01*
X-69351875Y22191761D01*
X-69399494Y22096523D01*
X-69447113Y21906047D01*
X-69447113Y21763190D01*
X-69399494Y21572714D01*
X-69351875Y21477476D01*
X-69256637Y21382238D01*
X-69113780Y21334619D01*
X-68875684Y21334619D01*
X-70399494Y21334619D02*
X-69828065Y21334619D01*
X-70113780Y21334619D02*
X-70113780Y22334619D01*
X-70018541Y22191761D01*
X-69923303Y22096523D01*
X-69828065Y22048904D01*
X-74431875Y21704619D02*
X-74431875Y22704619D01*
X-75003303Y21704619D02*
X-74574732Y22276047D01*
X-75003303Y22704619D02*
X-74431875Y22133190D01*
X65527940Y30672303D02*
X66242226Y30672303D01*
X66385083Y30719922D01*
X66480321Y30815160D01*
X66527940Y30958018D01*
X66527940Y31053256D01*
X66527940Y29672303D02*
X66527940Y30243732D01*
X66527940Y29958018D02*
X65527940Y29958018D01*
X65670798Y30053256D01*
X65766036Y30148494D01*
X65813655Y30243732D01*
X65527940Y29338970D02*
X65527940Y28719922D01*
X65908893Y29053256D01*
X65908893Y28910399D01*
X65956512Y28815160D01*
X66004131Y28767541D01*
X66099369Y28719922D01*
X66337464Y28719922D01*
X66432702Y28767541D01*
X66480321Y28815160D01*
X66527940Y28910399D01*
X66527940Y29196113D01*
X66480321Y29291351D01*
X66432702Y29338970D01*
X61136779Y-29599901D02*
X61089160Y-29504663D01*
X60993921Y-29409425D01*
X60851064Y-29266568D01*
X60803445Y-29171330D01*
X60803445Y-29076092D01*
X61041540Y-29123711D02*
X60993921Y-29028473D01*
X60898683Y-28933235D01*
X60708207Y-28885616D01*
X60374874Y-28885616D01*
X60184398Y-28933235D01*
X60089160Y-29028473D01*
X60041540Y-29123711D01*
X60041540Y-29314187D01*
X60089160Y-29409425D01*
X60184398Y-29504663D01*
X60374874Y-29552282D01*
X60708207Y-29552282D01*
X60898683Y-29504663D01*
X60993921Y-29409425D01*
X61041540Y-29314187D01*
X61041540Y-29123711D01*
X61041540Y-30504663D02*
X61041540Y-29933235D01*
X61041540Y-30218949D02*
X60041540Y-30218949D01*
X60184398Y-30123711D01*
X60279636Y-30028473D01*
X60327255Y-29933235D01*
X67622239Y-25750792D02*
X67146049Y-25417459D01*
X67622239Y-25179363D02*
X66622239Y-25179363D01*
X66622239Y-25560316D01*
X66669859Y-25655554D01*
X66717478Y-25703173D01*
X66812716Y-25750792D01*
X66955573Y-25750792D01*
X67050811Y-25703173D01*
X67098430Y-25655554D01*
X67146049Y-25560316D01*
X67146049Y-25179363D01*
X67050811Y-26322220D02*
X67003192Y-26226982D01*
X66955573Y-26179363D01*
X66860335Y-26131744D01*
X66812716Y-26131744D01*
X66717478Y-26179363D01*
X66669859Y-26226982D01*
X66622239Y-26322220D01*
X66622239Y-26512697D01*
X66669859Y-26607935D01*
X66717478Y-26655554D01*
X66812716Y-26703173D01*
X66860335Y-26703173D01*
X66955573Y-26655554D01*
X67003192Y-26607935D01*
X67050811Y-26512697D01*
X67050811Y-26322220D01*
X67098430Y-26226982D01*
X67146049Y-26179363D01*
X67241287Y-26131744D01*
X67431763Y-26131744D01*
X67527001Y-26179363D01*
X67574620Y-26226982D01*
X67622239Y-26322220D01*
X67622239Y-26512697D01*
X67574620Y-26607935D01*
X67527001Y-26655554D01*
X67431763Y-26703173D01*
X67241287Y-26703173D01*
X67146049Y-26655554D01*
X67098430Y-26607935D01*
X67050811Y-26512697D01*
X62564852Y-40413531D02*
X62421995Y-40461150D01*
X62374376Y-40508769D01*
X62326757Y-40604007D01*
X62326757Y-40746864D01*
X62374376Y-40842102D01*
X62421995Y-40889721D01*
X62517233Y-40937340D01*
X62898185Y-40937340D01*
X62898185Y-39937340D01*
X62564852Y-39937340D01*
X62469614Y-39984960D01*
X62421995Y-40032579D01*
X62374376Y-40127817D01*
X62374376Y-40223055D01*
X62421995Y-40318293D01*
X62469614Y-40365912D01*
X62564852Y-40413531D01*
X62898185Y-40413531D01*
X61993423Y-39937340D02*
X61326757Y-39937340D01*
X61993423Y-40937340D01*
X61326757Y-40937340D01*
X60421995Y-40937340D02*
X60993423Y-40937340D01*
X60707709Y-40937340D02*
X60707709Y-39937340D01*
X60802947Y-40080198D01*
X60898185Y-40175436D01*
X60993423Y-40223055D01*
X63774342Y-33535211D02*
X63631485Y-33582830D01*
X63583866Y-33630449D01*
X63536247Y-33725687D01*
X63536247Y-33868544D01*
X63583866Y-33963782D01*
X63631485Y-34011401D01*
X63726723Y-34059020D01*
X64107676Y-34059020D01*
X64107676Y-33059020D01*
X63774342Y-33059020D01*
X63679104Y-33106640D01*
X63631485Y-33154259D01*
X63583866Y-33249497D01*
X63583866Y-33344735D01*
X63631485Y-33439973D01*
X63679104Y-33487592D01*
X63774342Y-33535211D01*
X64107676Y-33535211D01*
X63107676Y-33059020D02*
X63107676Y-33868544D01*
X63060057Y-33963782D01*
X63012438Y-34011401D01*
X62917200Y-34059020D01*
X62726723Y-34059020D01*
X62631485Y-34011401D01*
X62583866Y-33963782D01*
X62536247Y-33868544D01*
X62536247Y-33059020D01*
X62155295Y-33059020D02*
X61488628Y-33059020D01*
X62155295Y-34059020D01*
X61488628Y-34059020D01*
X61202914Y-33059020D02*
X60536247Y-33059020D01*
X61202914Y-34059020D01*
X60536247Y-34059020D01*
X60155295Y-33535211D02*
X59821961Y-33535211D01*
X59679104Y-34059020D02*
X60155295Y-34059020D01*
X60155295Y-33059020D01*
X59679104Y-33059020D01*
X58679104Y-34059020D02*
X59012438Y-33582830D01*
X59250533Y-34059020D02*
X59250533Y-33059020D01*
X58869580Y-33059020D01*
X58774342Y-33106640D01*
X58726723Y-33154259D01*
X58679104Y-33249497D01*
X58679104Y-33392354D01*
X58726723Y-33487592D01*
X58774342Y-33535211D01*
X58869580Y-33582830D01*
X59250533Y-33582830D01*
X-75149176Y37646859D02*
X-75149176Y36932573D01*
X-75101557Y36789716D01*
X-75006319Y36694478D01*
X-74863461Y36646859D01*
X-74768223Y36646859D01*
X-76149176Y36646859D02*
X-75577747Y36646859D01*
X-75863461Y36646859D02*
X-75863461Y37646859D01*
X-75768223Y37504001D01*
X-75672985Y37408763D01*
X-75577747Y37361144D01*
X-76768223Y37646859D02*
X-76863461Y37646859D01*
X-76958700Y37599240D01*
X-77006319Y37551620D01*
X-77053938Y37456382D01*
X-77101557Y37265906D01*
X-77101557Y37027811D01*
X-77053938Y36837335D01*
X-77006319Y36742097D01*
X-76958700Y36694478D01*
X-76863461Y36646859D01*
X-76768223Y36646859D01*
X-76672985Y36694478D01*
X-76625366Y36742097D01*
X-76577747Y36837335D01*
X-76530128Y37027811D01*
X-76530128Y37265906D01*
X-76577747Y37456382D01*
X-76625366Y37551620D01*
X-76672985Y37599240D01*
X-76768223Y37646859D01*
X-80919982Y33855920D02*
X-80919982Y32855920D01*
X-80539030Y32855920D01*
X-80443792Y32903540D01*
X-80396173Y32951159D01*
X-80348554Y33046397D01*
X-80348554Y33189254D01*
X-80396173Y33284492D01*
X-80443792Y33332111D01*
X-80539030Y33379730D01*
X-80919982Y33379730D01*
X-79729506Y32855920D02*
X-79539030Y32855920D01*
X-79443792Y32903540D01*
X-79348554Y32998778D01*
X-79300935Y33189254D01*
X-79300935Y33522587D01*
X-79348554Y33713063D01*
X-79443792Y33808301D01*
X-79539030Y33855920D01*
X-79729506Y33855920D01*
X-79824744Y33808301D01*
X-79919982Y33713063D01*
X-79967601Y33522587D01*
X-79967601Y33189254D01*
X-79919982Y32998778D01*
X-79824744Y32903540D01*
X-79729506Y32855920D01*
X-78967601Y32855920D02*
X-78729506Y33855920D01*
X-78539030Y33141635D01*
X-78348554Y33855920D01*
X-78110459Y32855920D01*
X-77729506Y33332111D02*
X-77396173Y33332111D01*
X-77253316Y33855920D02*
X-77729506Y33855920D01*
X-77729506Y32855920D01*
X-77253316Y32855920D01*
X-76253316Y33855920D02*
X-76586649Y33379730D01*
X-76824744Y33855920D02*
X-76824744Y32855920D01*
X-76443792Y32855920D01*
X-76348554Y32903540D01*
X-76300935Y32951159D01*
X-76253316Y33046397D01*
X-76253316Y33189254D01*
X-76300935Y33284492D01*
X-76348554Y33332111D01*
X-76443792Y33379730D01*
X-76824744Y33379730D01*
X-75062840Y33855920D02*
X-75062840Y32855920D01*
X-74586649Y33855920D02*
X-74586649Y32855920D01*
X-74015220Y33855920D01*
X-74015220Y32855920D01*
X-73539030Y33855920D02*
X-73539030Y32855920D01*
X-73158078Y32855920D01*
X-73062840Y32903540D01*
X-73015220Y32951159D01*
X-72967601Y33046397D01*
X-72967601Y33189254D01*
X-73015220Y33284492D01*
X-73062840Y33332111D01*
X-73158078Y33379730D01*
X-73539030Y33379730D01*
X-72539030Y32855920D02*
X-72539030Y33665444D01*
X-72491411Y33760682D01*
X-72443792Y33808301D01*
X-72348554Y33855920D01*
X-72158078Y33855920D01*
X-72062840Y33808301D01*
X-72015220Y33760682D01*
X-71967601Y33665444D01*
X-71967601Y32855920D01*
X-71634268Y32855920D02*
X-71062840Y32855920D01*
X-71348554Y33855920D02*
X-71348554Y32855920D01*
X74054720Y-16905646D02*
X74769006Y-16905646D01*
X74911863Y-16858027D01*
X75007101Y-16762789D01*
X75054720Y-16619932D01*
X75054720Y-16524694D01*
X75054720Y-17429456D02*
X75054720Y-17619932D01*
X75007101Y-17715170D01*
X74959482Y-17762789D01*
X74816625Y-17858027D01*
X74626149Y-17905646D01*
X74245197Y-17905646D01*
X74149959Y-17858027D01*
X74102340Y-17810408D01*
X74054720Y-17715170D01*
X74054720Y-17524694D01*
X74102340Y-17429456D01*
X74149959Y-17381837D01*
X74245197Y-17334218D01*
X74483292Y-17334218D01*
X74578530Y-17381837D01*
X74626149Y-17429456D01*
X74673768Y-17524694D01*
X74673768Y-17715170D01*
X74626149Y-17810408D01*
X74578530Y-17858027D01*
X74483292Y-17905646D01*
X71230121Y-12791346D02*
X71277740Y-12934203D01*
X71277740Y-13172299D01*
X71230121Y-13267537D01*
X71182502Y-13315156D01*
X71087264Y-13362775D01*
X70992026Y-13362775D01*
X70896788Y-13315156D01*
X70849169Y-13267537D01*
X70801550Y-13172299D01*
X70753931Y-12981822D01*
X70706312Y-12886584D01*
X70658693Y-12838965D01*
X70563455Y-12791346D01*
X70468217Y-12791346D01*
X70372979Y-12838965D01*
X70325360Y-12886584D01*
X70277740Y-12981822D01*
X70277740Y-13219918D01*
X70325360Y-13362775D01*
X70753931Y-13791346D02*
X70753931Y-14124680D01*
X71277740Y-14267537D02*
X71277740Y-13791346D01*
X70277740Y-13791346D01*
X70277740Y-14267537D01*
X70277740Y-14553251D02*
X70277740Y-15124680D01*
X71277740Y-14838965D02*
X70277740Y-14838965D01*
X70753931Y-16553251D02*
X70801550Y-16696108D01*
X70849169Y-16743727D01*
X70944407Y-16791346D01*
X71087264Y-16791346D01*
X71182502Y-16743727D01*
X71230121Y-16696108D01*
X71277740Y-16600870D01*
X71277740Y-16219918D01*
X70277740Y-16219918D01*
X70277740Y-16553251D01*
X70325360Y-16648489D01*
X70372979Y-16696108D01*
X70468217Y-16743727D01*
X70563455Y-16743727D01*
X70658693Y-16696108D01*
X70706312Y-16648489D01*
X70753931Y-16553251D01*
X70753931Y-16219918D01*
X70277740Y-17219918D02*
X71087264Y-17219918D01*
X71182502Y-17267537D01*
X71230121Y-17315156D01*
X71277740Y-17410394D01*
X71277740Y-17600870D01*
X71230121Y-17696108D01*
X71182502Y-17743727D01*
X71087264Y-17791346D01*
X70277740Y-17791346D01*
X70277740Y-18124680D02*
X70277740Y-18696108D01*
X71277740Y-18410394D02*
X70277740Y-18410394D01*
X70277740Y-18886584D02*
X70277740Y-19458013D01*
X71277740Y-19172299D02*
X70277740Y-19172299D01*
X70277740Y-19981822D02*
X70277740Y-20172299D01*
X70325360Y-20267537D01*
X70420598Y-20362775D01*
X70611074Y-20410394D01*
X70944407Y-20410394D01*
X71134883Y-20362775D01*
X71230121Y-20267537D01*
X71277740Y-20172299D01*
X71277740Y-19981822D01*
X71230121Y-19886584D01*
X71134883Y-19791346D01*
X70944407Y-19743727D01*
X70611074Y-19743727D01*
X70420598Y-19791346D01*
X70325360Y-19886584D01*
X70277740Y-19981822D01*
X71277740Y-20838965D02*
X70277740Y-20838965D01*
X71277740Y-21410394D01*
X70277740Y-21410394D01*
X74105461Y-28526957D02*
X74819747Y-28526957D01*
X74962604Y-28479338D01*
X75057842Y-28384100D01*
X75105461Y-28241242D01*
X75105461Y-28146004D01*
X75105461Y-29526957D02*
X75105461Y-28955528D01*
X75105461Y-29241242D02*
X74105461Y-29241242D01*
X74248319Y-29146004D01*
X74343557Y-29050766D01*
X74391176Y-28955528D01*
X74438795Y-30384100D02*
X75105461Y-30384100D01*
X74057842Y-30146004D02*
X74772128Y-29907909D01*
X74772128Y-30526957D01*
X70966567Y-23792992D02*
X70966567Y-24269182D01*
X71252281Y-23697754D02*
X70252281Y-24031087D01*
X71252281Y-24364421D01*
X71252281Y-25173944D02*
X71252281Y-24697754D01*
X70252281Y-24697754D01*
X70966567Y-25459659D02*
X70966567Y-25935849D01*
X71252281Y-25364421D02*
X70252281Y-25697754D01*
X71252281Y-26031087D01*
X71252281Y-26935849D02*
X70776091Y-26602516D01*
X71252281Y-26364421D02*
X70252281Y-26364421D01*
X70252281Y-26745373D01*
X70299901Y-26840611D01*
X70347520Y-26888230D01*
X70442758Y-26935849D01*
X70585615Y-26935849D01*
X70680853Y-26888230D01*
X70728472Y-26840611D01*
X70776091Y-26745373D01*
X70776091Y-26364421D01*
X71252281Y-27364421D02*
X70252281Y-27364421D01*
X70966567Y-27697754D01*
X70252281Y-28031087D01*
X71252281Y-28031087D01*
X71204662Y-29221563D02*
X71252281Y-29364421D01*
X71252281Y-29602516D01*
X71204662Y-29697754D01*
X71157043Y-29745373D01*
X71061805Y-29792992D01*
X70966567Y-29792992D01*
X70871329Y-29745373D01*
X70823710Y-29697754D01*
X70776091Y-29602516D01*
X70728472Y-29412040D01*
X70680853Y-29316801D01*
X70633234Y-29269182D01*
X70537996Y-29221563D01*
X70442758Y-29221563D01*
X70347520Y-29269182D01*
X70299901Y-29316801D01*
X70252281Y-29412040D01*
X70252281Y-29650135D01*
X70299901Y-29792992D01*
X71252281Y-30221563D02*
X70252281Y-30221563D01*
X71252281Y-31173944D02*
X71252281Y-30697754D01*
X70252281Y-30697754D01*
X70728472Y-31507278D02*
X70728472Y-31840611D01*
X71252281Y-31983468D02*
X71252281Y-31507278D01*
X70252281Y-31507278D01*
X70252281Y-31983468D01*
X71252281Y-32412040D02*
X70252281Y-32412040D01*
X71252281Y-32983468D01*
X70252281Y-32983468D01*
X71157043Y-34031087D02*
X71204662Y-33983468D01*
X71252281Y-33840611D01*
X71252281Y-33745373D01*
X71204662Y-33602516D01*
X71109424Y-33507278D01*
X71014186Y-33459659D01*
X70823710Y-33412040D01*
X70680853Y-33412040D01*
X70490377Y-33459659D01*
X70395139Y-33507278D01*
X70299901Y-33602516D01*
X70252281Y-33745373D01*
X70252281Y-33840611D01*
X70299901Y-33983468D01*
X70347520Y-34031087D01*
X70728472Y-34459659D02*
X70728472Y-34792992D01*
X71252281Y-34935849D02*
X71252281Y-34459659D01*
X70252281Y-34459659D01*
X70252281Y-34935849D01*
X67660780Y-15665153D02*
X67184590Y-15331820D01*
X67660780Y-15093724D02*
X66660780Y-15093724D01*
X66660780Y-15474677D01*
X66708400Y-15569915D01*
X66756019Y-15617534D01*
X66851257Y-15665153D01*
X66994114Y-15665153D01*
X67089352Y-15617534D01*
X67136971Y-15569915D01*
X67184590Y-15474677D01*
X67184590Y-15093724D01*
X67660780Y-16141343D02*
X67660780Y-16331820D01*
X67613161Y-16427058D01*
X67565542Y-16474677D01*
X67422685Y-16569915D01*
X67232209Y-16617534D01*
X66851257Y-16617534D01*
X66756019Y-16569915D01*
X66708400Y-16522296D01*
X66660780Y-16427058D01*
X66660780Y-16236581D01*
X66708400Y-16141343D01*
X66756019Y-16093724D01*
X66851257Y-16046105D01*
X67089352Y-16046105D01*
X67184590Y-16093724D01*
X67232209Y-16141343D01*
X67279828Y-16236581D01*
X67279828Y-16427058D01*
X67232209Y-16522296D01*
X67184590Y-16569915D01*
X67089352Y-16617534D01*
X-53320677Y19986286D02*
X-53273058Y20033905D01*
X-53225439Y20176762D01*
X-53225439Y20272000D01*
X-53273058Y20414858D01*
X-53368296Y20510096D01*
X-53463534Y20557715D01*
X-53654010Y20605334D01*
X-53796867Y20605334D01*
X-53987343Y20557715D01*
X-54082581Y20510096D01*
X-54177820Y20414858D01*
X-54225439Y20272000D01*
X-54225439Y20176762D01*
X-54177820Y20033905D01*
X-54130200Y19986286D01*
X-53892105Y19129143D02*
X-53225439Y19129143D01*
X-54273058Y19367239D02*
X-53558772Y19605334D01*
X-53558772Y18986286D01*
X-67821537Y19678946D02*
X-67773918Y19726565D01*
X-67726299Y19869422D01*
X-67726299Y19964660D01*
X-67773918Y20107518D01*
X-67869156Y20202756D01*
X-67964394Y20250375D01*
X-68154870Y20297994D01*
X-68297727Y20297994D01*
X-68488203Y20250375D01*
X-68583441Y20202756D01*
X-68678680Y20107518D01*
X-68726299Y19964660D01*
X-68726299Y19869422D01*
X-68678680Y19726565D01*
X-68631060Y19678946D01*
X-68726299Y18774184D02*
X-68726299Y19250375D01*
X-68250108Y19297994D01*
X-68297727Y19250375D01*
X-68345346Y19155137D01*
X-68345346Y18917041D01*
X-68297727Y18821803D01*
X-68250108Y18774184D01*
X-68154870Y18726565D01*
X-67916775Y18726565D01*
X-67821537Y18774184D01*
X-67773918Y18821803D01*
X-67726299Y18917041D01*
X-67726299Y19155137D01*
X-67773918Y19250375D01*
X-67821537Y19297994D01*
X21334053Y37469059D02*
X21334053Y36754773D01*
X21381672Y36611916D01*
X21476910Y36516678D01*
X21619767Y36469059D01*
X21715005Y36469059D01*
X20381672Y37469059D02*
X20857862Y37469059D01*
X20905481Y36992868D01*
X20857862Y37040487D01*
X20762624Y37088106D01*
X20524529Y37088106D01*
X20429291Y37040487D01*
X20381672Y36992868D01*
X20334053Y36897630D01*
X20334053Y36659535D01*
X20381672Y36564297D01*
X20429291Y36516678D01*
X20524529Y36469059D01*
X20762624Y36469059D01*
X20857862Y36516678D01*
X20905481Y36564297D01*
X22884993Y33123831D02*
X23218326Y33123831D01*
X23361183Y33647640D02*
X22884993Y33647640D01*
X22884993Y32647640D01*
X23361183Y32647640D01*
X23789755Y33647640D02*
X23789755Y32647640D01*
X24361183Y33647640D01*
X24361183Y32647640D01*
X25408802Y33552402D02*
X25361183Y33600021D01*
X25218326Y33647640D01*
X25123088Y33647640D01*
X24980231Y33600021D01*
X24884993Y33504783D01*
X24837374Y33409545D01*
X24789755Y33219069D01*
X24789755Y33076212D01*
X24837374Y32885736D01*
X24884993Y32790498D01*
X24980231Y32695260D01*
X25123088Y32647640D01*
X25218326Y32647640D01*
X25361183Y32695260D01*
X25408802Y32742879D01*
X26027850Y32647640D02*
X26218326Y32647640D01*
X26313564Y32695260D01*
X26408802Y32790498D01*
X26456421Y32980974D01*
X26456421Y33314307D01*
X26408802Y33504783D01*
X26313564Y33600021D01*
X26218326Y33647640D01*
X26027850Y33647640D01*
X25932612Y33600021D01*
X25837374Y33504783D01*
X25789755Y33314307D01*
X25789755Y32980974D01*
X25837374Y32790498D01*
X25932612Y32695260D01*
X26027850Y32647640D01*
X26884993Y33647640D02*
X26884993Y32647640D01*
X27123088Y32647640D01*
X27265945Y32695260D01*
X27361183Y32790498D01*
X27408802Y32885736D01*
X27456421Y33076212D01*
X27456421Y33219069D01*
X27408802Y33409545D01*
X27361183Y33504783D01*
X27265945Y33600021D01*
X27123088Y33647640D01*
X26884993Y33647640D01*
X27884993Y33123831D02*
X28218326Y33123831D01*
X28361183Y33647640D02*
X27884993Y33647640D01*
X27884993Y32647640D01*
X28361183Y32647640D01*
X29361183Y33647640D02*
X29027850Y33171450D01*
X28789755Y33647640D02*
X28789755Y32647640D01*
X29170707Y32647640D01*
X29265945Y32695260D01*
X29313564Y32742879D01*
X29361183Y32838117D01*
X29361183Y32980974D01*
X29313564Y33076212D01*
X29265945Y33123831D01*
X29170707Y33171450D01*
X28789755Y33171450D01*
X-7868266Y38907619D02*
X-7868266Y38193333D01*
X-7820647Y38050476D01*
X-7725409Y37955238D01*
X-7582552Y37907619D01*
X-7487314Y37907619D01*
X-8487314Y38479047D02*
X-8392076Y38526666D01*
X-8344457Y38574285D01*
X-8296838Y38669523D01*
X-8296838Y38717142D01*
X-8344457Y38812380D01*
X-8392076Y38860000D01*
X-8487314Y38907619D01*
X-8677790Y38907619D01*
X-8773028Y38860000D01*
X-8820647Y38812380D01*
X-8868266Y38717142D01*
X-8868266Y38669523D01*
X-8820647Y38574285D01*
X-8773028Y38526666D01*
X-8677790Y38479047D01*
X-8487314Y38479047D01*
X-8392076Y38431428D01*
X-8344457Y38383809D01*
X-8296838Y38288571D01*
X-8296838Y38098095D01*
X-8344457Y38002857D01*
X-8392076Y37955238D01*
X-8487314Y37907619D01*
X-8677790Y37907619D01*
X-8773028Y37955238D01*
X-8820647Y38002857D01*
X-8868266Y38098095D01*
X-8868266Y38288571D01*
X-8820647Y38383809D01*
X-8773028Y38431428D01*
X-8677790Y38479047D01*
X-11933333Y33005988D02*
X-11171428Y33005988D01*
X-11552380Y33386940D02*
X-11552380Y32625036D01*
X-10219047Y32386940D02*
X-10695238Y32386940D01*
X-10742857Y32863131D01*
X-10695238Y32815512D01*
X-10600000Y32767893D01*
X-10361904Y32767893D01*
X-10266666Y32815512D01*
X-10219047Y32863131D01*
X-10171428Y32958369D01*
X-10171428Y33196464D01*
X-10219047Y33291702D01*
X-10266666Y33339321D01*
X-10361904Y33386940D01*
X-10600000Y33386940D01*
X-10695238Y33339321D01*
X-10742857Y33291702D01*
X-9885714Y32386940D02*
X-9552380Y33386940D01*
X-9219047Y32386940D01*
X-8123809Y33386940D02*
X-8123809Y32386940D01*
X-7647619Y33386940D02*
X-7647619Y32386940D01*
X-7076190Y33386940D01*
X-7076190Y32386940D01*
X-6600000Y33386940D02*
X-6600000Y32386940D01*
X-6219047Y32386940D01*
X-6123809Y32434560D01*
X-6076190Y32482179D01*
X-6028571Y32577417D01*
X-6028571Y32720274D01*
X-6076190Y32815512D01*
X-6123809Y32863131D01*
X-6219047Y32910750D01*
X-6600000Y32910750D01*
X-5600000Y32386940D02*
X-5600000Y33196464D01*
X-5552380Y33291702D01*
X-5504761Y33339321D01*
X-5409523Y33386940D01*
X-5219047Y33386940D01*
X-5123809Y33339321D01*
X-5076190Y33291702D01*
X-5028571Y33196464D01*
X-5028571Y32386940D01*
X-4695238Y32386940D02*
X-4123809Y32386940D01*
X-4409523Y33386940D02*
X-4409523Y32386940D01*
X74326500Y-4286926D02*
X75040786Y-4286926D01*
X75183643Y-4239307D01*
X75278881Y-4144069D01*
X75326500Y-4001212D01*
X75326500Y-3905974D01*
X74326500Y-4667879D02*
X74326500Y-5334545D01*
X75326500Y-4905974D01*
X71232020Y-505983D02*
X71232020Y-29793D01*
X70232020Y-29793D01*
X71232020Y-839317D02*
X70232020Y-839317D01*
X71232020Y-1315507D02*
X70232020Y-1315507D01*
X70946306Y-1648840D01*
X70232020Y-1982174D01*
X71232020Y-1982174D01*
X71232020Y-2458364D02*
X70232020Y-2458364D01*
X70232020Y-2791698D02*
X70232020Y-3363126D01*
X71232020Y-3077412D02*
X70232020Y-3077412D01*
X71184401Y-4410745D02*
X71232020Y-4553602D01*
X71232020Y-4791698D01*
X71184401Y-4886936D01*
X71136782Y-4934555D01*
X71041544Y-4982174D01*
X70946306Y-4982174D01*
X70851068Y-4934555D01*
X70803449Y-4886936D01*
X70755830Y-4791698D01*
X70708211Y-4601221D01*
X70660592Y-4505983D01*
X70612973Y-4458364D01*
X70517735Y-4410745D01*
X70422497Y-4410745D01*
X70327259Y-4458364D01*
X70279640Y-4505983D01*
X70232020Y-4601221D01*
X70232020Y-4839317D01*
X70279640Y-4982174D01*
X70232020Y-5315507D02*
X71232020Y-5553602D01*
X70517735Y-5744079D01*
X71232020Y-5934555D01*
X70232020Y-6172650D01*
X71232020Y-6553602D02*
X70232020Y-6553602D01*
X70232020Y-6886936D02*
X70232020Y-7458364D01*
X71232020Y-7172650D02*
X70232020Y-7172650D01*
X71136782Y-8363126D02*
X71184401Y-8315507D01*
X71232020Y-8172650D01*
X71232020Y-8077412D01*
X71184401Y-7934555D01*
X71089163Y-7839317D01*
X70993925Y-7791698D01*
X70803449Y-7744079D01*
X70660592Y-7744079D01*
X70470116Y-7791698D01*
X70374878Y-7839317D01*
X70279640Y-7934555D01*
X70232020Y-8077412D01*
X70232020Y-8172650D01*
X70279640Y-8315507D01*
X70327259Y-8363126D01*
X71232020Y-8791698D02*
X70232020Y-8791698D01*
X70708211Y-8791698D02*
X70708211Y-9363126D01*
X71232020Y-9363126D02*
X70232020Y-9363126D01*
X73907400Y8518423D02*
X74621686Y8518423D01*
X74764543Y8566042D01*
X74859781Y8661280D01*
X74907400Y8804138D01*
X74907400Y8899376D01*
X74907400Y7518423D02*
X74907400Y8089852D01*
X74907400Y7804138D02*
X73907400Y7804138D01*
X74050258Y7899376D01*
X74145496Y7994614D01*
X74193115Y8089852D01*
X74907400Y6566042D02*
X74907400Y7137471D01*
X74907400Y6851757D02*
X73907400Y6851757D01*
X74050258Y6946995D01*
X74145496Y7042233D01*
X74193115Y7137471D01*
X71237100Y9477783D02*
X70237100Y9477783D01*
X70951386Y9144450D01*
X70237100Y8811117D01*
X71237100Y8811117D01*
X70237100Y8144450D02*
X70237100Y7953974D01*
X70284720Y7858736D01*
X70379958Y7763498D01*
X70570434Y7715879D01*
X70903767Y7715879D01*
X71094243Y7763498D01*
X71189481Y7858736D01*
X71237100Y7953974D01*
X71237100Y8144450D01*
X71189481Y8239688D01*
X71094243Y8334926D01*
X70903767Y8382545D01*
X70570434Y8382545D01*
X70379958Y8334926D01*
X70284720Y8239688D01*
X70237100Y8144450D01*
X71237100Y7287307D02*
X70237100Y7287307D01*
X70237100Y7049212D01*
X70284720Y6906355D01*
X70379958Y6811117D01*
X70475196Y6763498D01*
X70665672Y6715879D01*
X70808529Y6715879D01*
X70999005Y6763498D01*
X71094243Y6811117D01*
X71189481Y6906355D01*
X71237100Y7049212D01*
X71237100Y7287307D01*
X70713291Y6287307D02*
X70713291Y5953974D01*
X71237100Y5811117D02*
X71237100Y6287307D01*
X70237100Y6287307D01*
X70237100Y5811117D01*
X67221360Y-5994162D02*
X66745170Y-5660829D01*
X67221360Y-5422734D02*
X66221360Y-5422734D01*
X66221360Y-5803686D01*
X66268980Y-5898924D01*
X66316599Y-5946543D01*
X66411837Y-5994162D01*
X66554694Y-5994162D01*
X66649932Y-5946543D01*
X66697551Y-5898924D01*
X66745170Y-5803686D01*
X66745170Y-5422734D01*
X67221360Y-6946543D02*
X67221360Y-6375115D01*
X67221360Y-6660829D02*
X66221360Y-6660829D01*
X66364218Y-6565591D01*
X66459456Y-6470353D01*
X66507075Y-6375115D01*
X66221360Y-7565591D02*
X66221360Y-7660829D01*
X66268980Y-7756067D01*
X66316599Y-7803686D01*
X66411837Y-7851305D01*
X66602313Y-7898924D01*
X66840408Y-7898924D01*
X67030884Y-7851305D01*
X67126122Y-7803686D01*
X67173741Y-7756067D01*
X67221360Y-7660829D01*
X67221360Y-7565591D01*
X67173741Y-7470353D01*
X67126122Y-7422734D01*
X67030884Y-7375115D01*
X66840408Y-7327496D01*
X66602313Y-7327496D01*
X66411837Y-7375115D01*
X66316599Y-7422734D01*
X66268980Y-7470353D01*
X66221360Y-7565591D01*
X67277240Y9601437D02*
X66801050Y9934770D01*
X67277240Y10172865D02*
X66277240Y10172865D01*
X66277240Y9791913D01*
X66324860Y9696675D01*
X66372479Y9649056D01*
X66467717Y9601437D01*
X66610574Y9601437D01*
X66705812Y9649056D01*
X66753431Y9696675D01*
X66801050Y9791913D01*
X66801050Y10172865D01*
X67277240Y8649056D02*
X67277240Y9220484D01*
X67277240Y8934770D02*
X66277240Y8934770D01*
X66420098Y9030008D01*
X66515336Y9125246D01*
X66562955Y9220484D01*
X67277240Y7696675D02*
X67277240Y8268103D01*
X67277240Y7982389D02*
X66277240Y7982389D01*
X66420098Y8077627D01*
X66515336Y8172865D01*
X66562955Y8268103D01*
X-20889746Y37164899D02*
X-20889746Y36450613D01*
X-20842127Y36307756D01*
X-20746889Y36212518D01*
X-20604032Y36164899D01*
X-20508794Y36164899D01*
X-21794508Y37164899D02*
X-21604032Y37164899D01*
X-21508794Y37117280D01*
X-21461175Y37069660D01*
X-21365937Y36926803D01*
X-21318318Y36736327D01*
X-21318318Y36355375D01*
X-21365937Y36260137D01*
X-21413556Y36212518D01*
X-21508794Y36164899D01*
X-21699270Y36164899D01*
X-21794508Y36212518D01*
X-21842127Y36260137D01*
X-21889746Y36355375D01*
X-21889746Y36593470D01*
X-21842127Y36688708D01*
X-21794508Y36736327D01*
X-21699270Y36783946D01*
X-21508794Y36783946D01*
X-21413556Y36736327D01*
X-21365937Y36688708D01*
X-21318318Y36593470D01*
X-32630739Y33457780D02*
X-32630739Y32457780D01*
X-32297406Y33172066D01*
X-31964073Y32457780D01*
X-31964073Y33457780D01*
X-31297406Y32457780D02*
X-31106930Y32457780D01*
X-31011692Y32505400D01*
X-30916454Y32600638D01*
X-30868835Y32791114D01*
X-30868835Y33124447D01*
X-30916454Y33314923D01*
X-31011692Y33410161D01*
X-31106930Y33457780D01*
X-31297406Y33457780D01*
X-31392644Y33410161D01*
X-31487882Y33314923D01*
X-31535501Y33124447D01*
X-31535501Y32791114D01*
X-31487882Y32600638D01*
X-31392644Y32505400D01*
X-31297406Y32457780D01*
X-30583120Y32457780D02*
X-30011692Y32457780D01*
X-30297406Y33457780D02*
X-30297406Y32457780D01*
X-29487882Y32457780D02*
X-29297406Y32457780D01*
X-29202168Y32505400D01*
X-29106930Y32600638D01*
X-29059311Y32791114D01*
X-29059311Y33124447D01*
X-29106930Y33314923D01*
X-29202168Y33410161D01*
X-29297406Y33457780D01*
X-29487882Y33457780D01*
X-29583120Y33410161D01*
X-29678359Y33314923D01*
X-29725978Y33124447D01*
X-29725978Y32791114D01*
X-29678359Y32600638D01*
X-29583120Y32505400D01*
X-29487882Y32457780D01*
X-28059311Y33457780D02*
X-28392644Y32981590D01*
X-28630740Y33457780D02*
X-28630740Y32457780D01*
X-28249787Y32457780D01*
X-28154549Y32505400D01*
X-28106930Y32553019D01*
X-28059311Y32648257D01*
X-28059311Y32791114D01*
X-28106930Y32886352D01*
X-28154549Y32933971D01*
X-28249787Y32981590D01*
X-28630740Y32981590D01*
X-26297406Y33362542D02*
X-26345025Y33410161D01*
X-26487882Y33457780D01*
X-26583120Y33457780D01*
X-26725978Y33410161D01*
X-26821216Y33314923D01*
X-26868835Y33219685D01*
X-26916454Y33029209D01*
X-26916454Y32886352D01*
X-26868835Y32695876D01*
X-26821216Y32600638D01*
X-26725978Y32505400D01*
X-26583120Y32457780D01*
X-26487882Y32457780D01*
X-26345025Y32505400D01*
X-26297406Y32553019D01*
X-25678359Y32457780D02*
X-25487882Y32457780D01*
X-25392644Y32505400D01*
X-25297406Y32600638D01*
X-25249787Y32791114D01*
X-25249787Y33124447D01*
X-25297406Y33314923D01*
X-25392644Y33410161D01*
X-25487882Y33457780D01*
X-25678359Y33457780D01*
X-25773597Y33410161D01*
X-25868835Y33314923D01*
X-25916454Y33124447D01*
X-25916454Y32791114D01*
X-25868835Y32600638D01*
X-25773597Y32505400D01*
X-25678359Y32457780D01*
X-24821216Y33457780D02*
X-24821216Y32457780D01*
X-24249787Y33457780D01*
X-24249787Y32457780D01*
X-23916454Y32457780D02*
X-23345025Y32457780D01*
X-23630740Y33457780D02*
X-23630740Y32457780D01*
X-22440263Y33457780D02*
X-22773597Y32981590D01*
X-23011692Y33457780D02*
X-23011692Y32457780D01*
X-22630740Y32457780D01*
X-22535501Y32505400D01*
X-22487882Y32553019D01*
X-22440263Y32648257D01*
X-22440263Y32791114D01*
X-22487882Y32886352D01*
X-22535501Y32933971D01*
X-22630740Y32981590D01*
X-23011692Y32981590D01*
X-21821216Y32457780D02*
X-21630740Y32457780D01*
X-21535501Y32505400D01*
X-21440263Y32600638D01*
X-21392644Y32791114D01*
X-21392644Y33124447D01*
X-21440263Y33314923D01*
X-21535501Y33410161D01*
X-21630740Y33457780D01*
X-21821216Y33457780D01*
X-21916454Y33410161D01*
X-22011692Y33314923D01*
X-22059311Y33124447D01*
X-22059311Y32791114D01*
X-22011692Y32600638D01*
X-21916454Y32505400D01*
X-21821216Y32457780D01*
X-20487882Y33457780D02*
X-20964073Y33457780D01*
X-20964073Y32457780D01*
X-50633096Y37593519D02*
X-50633096Y36879233D01*
X-50585477Y36736376D01*
X-50490239Y36641138D01*
X-50347381Y36593519D01*
X-50252143Y36593519D01*
X-51633096Y36593519D02*
X-51061667Y36593519D01*
X-51347381Y36593519D02*
X-51347381Y37593519D01*
X-51252143Y37450661D01*
X-51156905Y37355423D01*
X-51061667Y37307804D01*
X-52014048Y37498280D02*
X-52061667Y37545900D01*
X-52156905Y37593519D01*
X-52395000Y37593519D01*
X-52490239Y37545900D01*
X-52537858Y37498280D01*
X-52585477Y37403042D01*
X-52585477Y37307804D01*
X-52537858Y37164947D01*
X-51966429Y36593519D01*
X-52585477Y36593519D01*
X-56767692Y33779720D02*
X-56767692Y32779720D01*
X-56386740Y32779720D01*
X-56291501Y32827340D01*
X-56243882Y32874959D01*
X-56196263Y32970197D01*
X-56196263Y33113054D01*
X-56243882Y33208292D01*
X-56291501Y33255911D01*
X-56386740Y33303530D01*
X-56767692Y33303530D01*
X-55577216Y32779720D02*
X-55386740Y32779720D01*
X-55291501Y32827340D01*
X-55196263Y32922578D01*
X-55148644Y33113054D01*
X-55148644Y33446387D01*
X-55196263Y33636863D01*
X-55291501Y33732101D01*
X-55386740Y33779720D01*
X-55577216Y33779720D01*
X-55672454Y33732101D01*
X-55767692Y33636863D01*
X-55815311Y33446387D01*
X-55815311Y33113054D01*
X-55767692Y32922578D01*
X-55672454Y32827340D01*
X-55577216Y32779720D01*
X-54815311Y32779720D02*
X-54577216Y33779720D01*
X-54386740Y33065435D01*
X-54196263Y33779720D01*
X-53958168Y32779720D01*
X-53577216Y33255911D02*
X-53243882Y33255911D01*
X-53101025Y33779720D02*
X-53577216Y33779720D01*
X-53577216Y32779720D01*
X-53101025Y32779720D01*
X-52101025Y33779720D02*
X-52434359Y33303530D01*
X-52672454Y33779720D02*
X-52672454Y32779720D01*
X-52291501Y32779720D01*
X-52196263Y32827340D01*
X-52148644Y32874959D01*
X-52101025Y32970197D01*
X-52101025Y33113054D01*
X-52148644Y33208292D01*
X-52196263Y33255911D01*
X-52291501Y33303530D01*
X-52672454Y33303530D01*
X-50958168Y33732101D02*
X-50815311Y33779720D01*
X-50577216Y33779720D01*
X-50481978Y33732101D01*
X-50434359Y33684482D01*
X-50386740Y33589244D01*
X-50386740Y33494006D01*
X-50434359Y33398768D01*
X-50481978Y33351149D01*
X-50577216Y33303530D01*
X-50767692Y33255911D01*
X-50862930Y33208292D01*
X-50910549Y33160673D01*
X-50958168Y33065435D01*
X-50958168Y32970197D01*
X-50910549Y32874959D01*
X-50862930Y32827340D01*
X-50767692Y32779720D01*
X-50529597Y32779720D01*
X-50386740Y32827340D01*
X-50053406Y32779720D02*
X-49815311Y33779720D01*
X-49624835Y33065435D01*
X-49434359Y33779720D01*
X-49196263Y32779720D01*
X-48815311Y33779720D02*
X-48815311Y32779720D01*
X-48481978Y32779720D02*
X-47910549Y32779720D01*
X-48196263Y33779720D02*
X-48196263Y32779720D01*
X-47005787Y33684482D02*
X-47053406Y33732101D01*
X-47196263Y33779720D01*
X-47291501Y33779720D01*
X-47434359Y33732101D01*
X-47529597Y33636863D01*
X-47577216Y33541625D01*
X-47624835Y33351149D01*
X-47624835Y33208292D01*
X-47577216Y33017816D01*
X-47529597Y32922578D01*
X-47434359Y32827340D01*
X-47291501Y32779720D01*
X-47196263Y32779720D01*
X-47053406Y32827340D01*
X-47005787Y32874959D01*
X-46577216Y33779720D02*
X-46577216Y32779720D01*
X-46577216Y33255911D02*
X-46005787Y33255911D01*
X-46005787Y33779720D02*
X-46005787Y32779720D01*
X-63071476Y40740579D02*
X-63071476Y40026293D01*
X-63023857Y39883436D01*
X-62928619Y39788198D01*
X-62785761Y39740579D01*
X-62690523Y39740579D01*
X-64071476Y39740579D02*
X-63500047Y39740579D01*
X-63785761Y39740579D02*
X-63785761Y40740579D01*
X-63690523Y40597721D01*
X-63595285Y40502483D01*
X-63500047Y40454864D01*
X-64928619Y40740579D02*
X-64738142Y40740579D01*
X-64642904Y40692960D01*
X-64595285Y40645340D01*
X-64500047Y40502483D01*
X-64452428Y40312007D01*
X-64452428Y39931055D01*
X-64500047Y39835817D01*
X-64547666Y39788198D01*
X-64642904Y39740579D01*
X-64833380Y39740579D01*
X-64928619Y39788198D01*
X-64976238Y39835817D01*
X-65023857Y39931055D01*
X-65023857Y40169150D01*
X-64976238Y40264388D01*
X-64928619Y40312007D01*
X-64833380Y40359626D01*
X-64642904Y40359626D01*
X-64547666Y40312007D01*
X-64500047Y40264388D01*
X-64452428Y40169150D01*
X-70247661Y33131451D02*
X-69914328Y33131451D01*
X-69771471Y33655260D02*
X-70247661Y33655260D01*
X-70247661Y32655260D01*
X-69771471Y32655260D01*
X-69342900Y33655260D02*
X-69342900Y32655260D01*
X-69009566Y33369546D01*
X-68676233Y32655260D01*
X-68676233Y33655260D01*
X-68200042Y33131451D02*
X-67866709Y33131451D01*
X-67723852Y33655260D02*
X-68200042Y33655260D01*
X-68200042Y32655260D01*
X-67723852Y32655260D01*
X-66723852Y33655260D02*
X-67057185Y33179070D01*
X-67295280Y33655260D02*
X-67295280Y32655260D01*
X-66914328Y32655260D01*
X-66819090Y32702880D01*
X-66771471Y32750499D01*
X-66723852Y32845737D01*
X-66723852Y32988594D01*
X-66771471Y33083832D01*
X-66819090Y33131451D01*
X-66914328Y33179070D01*
X-67295280Y33179070D01*
X-65771471Y32702880D02*
X-65866709Y32655260D01*
X-66009566Y32655260D01*
X-66152423Y32702880D01*
X-66247661Y32798118D01*
X-66295280Y32893356D01*
X-66342900Y33083832D01*
X-66342900Y33226689D01*
X-66295280Y33417165D01*
X-66247661Y33512403D01*
X-66152423Y33607641D01*
X-66009566Y33655260D01*
X-65914328Y33655260D01*
X-65771471Y33607641D01*
X-65723852Y33560022D01*
X-65723852Y33226689D01*
X-65914328Y33226689D01*
X-65295280Y33131451D02*
X-64961947Y33131451D01*
X-64819090Y33655260D02*
X-65295280Y33655260D01*
X-65295280Y32655260D01*
X-64819090Y32655260D01*
X-64390519Y33655260D02*
X-64390519Y32655260D01*
X-63819090Y33655260D01*
X-63819090Y32655260D01*
X-62771471Y33560022D02*
X-62819090Y33607641D01*
X-62961947Y33655260D01*
X-63057185Y33655260D01*
X-63200042Y33607641D01*
X-63295280Y33512403D01*
X-63342900Y33417165D01*
X-63390519Y33226689D01*
X-63390519Y33083832D01*
X-63342900Y32893356D01*
X-63295280Y32798118D01*
X-63200042Y32702880D01*
X-63057185Y32655260D01*
X-62961947Y32655260D01*
X-62819090Y32702880D01*
X-62771471Y32750499D01*
X-62152423Y33179070D02*
X-62152423Y33655260D01*
X-62485757Y32655260D02*
X-62152423Y33179070D01*
X-61819090Y32655260D01*
X-60771471Y33607641D02*
X-60628614Y33655260D01*
X-60390519Y33655260D01*
X-60295280Y33607641D01*
X-60247661Y33560022D01*
X-60200042Y33464784D01*
X-60200042Y33369546D01*
X-60247661Y33274308D01*
X-60295280Y33226689D01*
X-60390519Y33179070D01*
X-60580995Y33131451D01*
X-60676233Y33083832D01*
X-60723852Y33036213D01*
X-60771471Y32940975D01*
X-60771471Y32845737D01*
X-60723852Y32750499D01*
X-60676233Y32702880D01*
X-60580995Y32655260D01*
X-60342900Y32655260D01*
X-60200042Y32702880D01*
X-59914328Y32655260D02*
X-59342900Y32655260D01*
X-59628614Y33655260D02*
X-59628614Y32655260D01*
X-58819090Y32655260D02*
X-58628614Y32655260D01*
X-58533376Y32702880D01*
X-58438138Y32798118D01*
X-58390519Y32988594D01*
X-58390519Y33321927D01*
X-58438138Y33512403D01*
X-58533376Y33607641D01*
X-58628614Y33655260D01*
X-58819090Y33655260D01*
X-58914328Y33607641D01*
X-59009566Y33512403D01*
X-59057185Y33321927D01*
X-59057185Y32988594D01*
X-59009566Y32798118D01*
X-58914328Y32702880D01*
X-58819090Y32655260D01*
X-57961947Y33655260D02*
X-57961947Y32655260D01*
X-57580995Y32655260D01*
X-57485757Y32702880D01*
X-57438138Y32750499D01*
X-57390519Y32845737D01*
X-57390519Y32988594D01*
X-57438138Y33083832D01*
X-57485757Y33131451D01*
X-57580995Y33179070D01*
X-57961947Y33179070D01*
X11265238Y-19742380D02*
X11598571Y-19266190D01*
X11836666Y-19742380D02*
X11836666Y-18742380D01*
X11455714Y-18742380D01*
X11360476Y-18790000D01*
X11312857Y-18837619D01*
X11265238Y-18932857D01*
X11265238Y-19075714D01*
X11312857Y-19170952D01*
X11360476Y-19218571D01*
X11455714Y-19266190D01*
X11836666Y-19266190D01*
X10979523Y-18742380D02*
X10646190Y-19742380D01*
X10312857Y-18742380D01*
X9503333Y-18742380D02*
X9979523Y-18742380D01*
X10027142Y-19218571D01*
X9979523Y-19170952D01*
X9884285Y-19123333D01*
X9646190Y-19123333D01*
X9550952Y-19170952D01*
X9503333Y-19218571D01*
X9455714Y-19313809D01*
X9455714Y-19551904D01*
X9503333Y-19647142D01*
X9550952Y-19694761D01*
X9646190Y-19742380D01*
X9884285Y-19742380D01*
X9979523Y-19694761D01*
X10027142Y-19647142D01*
X16646190Y-12317142D02*
X16693809Y-12364761D01*
X16836666Y-12412380D01*
X16931904Y-12412380D01*
X17074761Y-12364761D01*
X17170000Y-12269523D01*
X17217619Y-12174285D01*
X17265238Y-11983809D01*
X17265238Y-11840952D01*
X17217619Y-11650476D01*
X17170000Y-11555238D01*
X17074761Y-11460000D01*
X16931904Y-11412380D01*
X16836666Y-11412380D01*
X16693809Y-11460000D01*
X16646190Y-11507619D01*
X16027142Y-11412380D02*
X15836666Y-11412380D01*
X15741428Y-11460000D01*
X15646190Y-11555238D01*
X15598571Y-11745714D01*
X15598571Y-12079047D01*
X15646190Y-12269523D01*
X15741428Y-12364761D01*
X15836666Y-12412380D01*
X16027142Y-12412380D01*
X16122380Y-12364761D01*
X16217619Y-12269523D01*
X16265238Y-12079047D01*
X16265238Y-11745714D01*
X16217619Y-11555238D01*
X16122380Y-11460000D01*
X16027142Y-11412380D01*
X15170000Y-12412380D02*
X15170000Y-11412380D01*
X14598571Y-12412380D01*
X14598571Y-11412380D01*
X14265238Y-11412380D02*
X13693809Y-11412380D01*
X13979523Y-12412380D02*
X13979523Y-11412380D01*
X12789047Y-12412380D02*
X13122380Y-11936190D01*
X13360476Y-12412380D02*
X13360476Y-11412380D01*
X12979523Y-11412380D01*
X12884285Y-11460000D01*
X12836666Y-11507619D01*
X12789047Y-11602857D01*
X12789047Y-11745714D01*
X12836666Y-11840952D01*
X12884285Y-11888571D01*
X12979523Y-11936190D01*
X13360476Y-11936190D01*
X12408095Y-12126666D02*
X11931904Y-12126666D01*
X12503333Y-12412380D02*
X12170000Y-11412380D01*
X11836666Y-12412380D01*
X11550952Y-12364761D02*
X11408095Y-12412380D01*
X11170000Y-12412380D01*
X11074761Y-12364761D01*
X11027142Y-12317142D01*
X10979523Y-12221904D01*
X10979523Y-12126666D01*
X11027142Y-12031428D01*
X11074761Y-11983809D01*
X11170000Y-11936190D01*
X11360476Y-11888571D01*
X11455714Y-11840952D01*
X11503333Y-11793333D01*
X11550952Y-11698095D01*
X11550952Y-11602857D01*
X11503333Y-11507619D01*
X11455714Y-11460000D01*
X11360476Y-11412380D01*
X11122380Y-11412380D01*
X10979523Y-11460000D01*
X10693809Y-11412380D02*
X10122380Y-11412380D01*
X10408095Y-12412380D02*
X10408095Y-11412380D01*
X9074761Y-12126666D02*
X8598571Y-12126666D01*
X9170000Y-12412380D02*
X8836666Y-11412380D01*
X8503333Y-12412380D01*
X8170000Y-12412380D02*
X8170000Y-11412380D01*
X7931904Y-11412380D01*
X7789047Y-11460000D01*
X7693809Y-11555238D01*
X7646190Y-11650476D01*
X7598571Y-11840952D01*
X7598571Y-11983809D01*
X7646190Y-12174285D01*
X7693809Y-12269523D01*
X7789047Y-12364761D01*
X7931904Y-12412380D01*
X8170000Y-12412380D01*
X6884285Y-11412380D02*
X6884285Y-12126666D01*
X6931904Y-12269523D01*
X7027142Y-12364761D01*
X7170000Y-12412380D01*
X7265238Y-12412380D01*
X6408095Y-11412380D02*
X6408095Y-12221904D01*
X6360476Y-12317142D01*
X6312857Y-12364761D01*
X6217619Y-12412380D01*
X6027142Y-12412380D01*
X5931904Y-12364761D01*
X5884285Y-12317142D01*
X5836666Y-12221904D01*
X5836666Y-11412380D01*
X5408095Y-12364761D02*
X5265238Y-12412380D01*
X5027142Y-12412380D01*
X4931904Y-12364761D01*
X4884285Y-12317142D01*
X4836666Y-12221904D01*
X4836666Y-12126666D01*
X4884285Y-12031428D01*
X4931904Y-11983809D01*
X5027142Y-11936190D01*
X5217619Y-11888571D01*
X5312857Y-11840952D01*
X5360476Y-11793333D01*
X5408095Y-11698095D01*
X5408095Y-11602857D01*
X5360476Y-11507619D01*
X5312857Y-11460000D01*
X5217619Y-11412380D01*
X4979523Y-11412380D01*
X4836666Y-11460000D01*
X4550952Y-11412380D02*
X3979523Y-11412380D01*
X4265238Y-12412380D02*
X4265238Y-11412380D01*
M02*
