M48
; DRILL file {KiCad (5.1.2)-2} date 07/04/2020 11:29:14
; FORMAT={3:3/ absolute / metric / suppress leading zeros}
; #@! TF.CreationDate,2020-04-07T11:29:14-03:00
; #@! TF.GenerationSoftware,Kicad,Pcbnew,(5.1.2)-2
FMAT,2
METRIC,TZ
T1C0.400
T2C0.699
T3C0.700
T4C0.710
T5C0.750
T6C0.762
T7C0.800
T8C0.813
T9C1.000
T10C1.016
T11C1.100
T12C1.200
T13C2.700
T14C2.000
T15C2.799
T16C3.200
%
G90
G05
T1
X-16180Y24200
X-15210Y23180
X-9740Y-17410
X-7450Y-16970
X-7221Y-1859
X-1271Y19751
X561Y12131
X591Y9591
X3950Y17270
X13100Y16190
X21759Y12131
X31851Y-8189
X40660Y4123
X40661Y-13269
X41861Y-1859
X58220Y-18100
X59550Y-14210
T2
X-38194Y10861
X-38194Y5781
T3
X61473Y11872
X61473Y4252
X-9550Y14722
X-9550Y7102
X68931Y-22106
X68931Y-29726
X-32510Y-26680
X-24890Y-26680
X-27297Y-17371
X-19677Y-17371
X52207Y7353
X52207Y-267
X68737Y12713
X68737Y5093
X68664Y394
X68664Y-7226
X64092Y11867
X64092Y4247
X58913Y11864
X58913Y4244
X68920Y-12032
X68920Y-19652
T4
X62807Y20950
X65347Y20950
X67887Y20950
X70427Y20950
T5
X64204Y-28466
X64204Y-29736
X64204Y-31006
T6
X-80033Y5182
X-80033Y-39818
X-60033Y5182
X-60033Y-39818
T7
X56073Y6848
X56073Y4348
X-71222Y-43157
X-68722Y-43157
X-42471Y11920
X-42471Y9420
X56375Y-274
X56375Y-7894
X58915Y-274
X58915Y-7894
X61455Y-274
X61455Y-7894
X63995Y-274
X63995Y-7894
X8130Y-15630
X10670Y-15630
X13210Y-15630
X-42471Y7227
X-42471Y4727
X72611Y42058
X72611Y28758
X75151Y42058
X75151Y28758
X77691Y42058
X77691Y28758
X80231Y42058
X80231Y28758
X-9561Y4519
X-9561Y2019
T8
X-27282Y19743
X-27282Y17203
X-27282Y14663
X-27282Y12123
X-27282Y9583
X-27282Y7043
X-27282Y4503
X-27282Y1963
X-27282Y-577
X-27282Y-3117
X-27282Y-5657
X-27282Y-8197
X-27282Y-10737
X-27282Y-13277
X-19662Y19743
X-19662Y17203
X-19662Y14663
X-19662Y12123
X-19662Y9583
X-19662Y7043
X-19662Y4503
X-19662Y1963
X-19662Y-577
X-19662Y-3117
X-19662Y-5657
X-19662Y-8197
X-19662Y-10737
X-19662Y-13277
T9
X-16000Y-31000
X-13500Y-31000
X-11000Y-31000
X-15794Y19751
X-15794Y17211
X-15794Y14671
X-15794Y12131
X-15794Y9591
X-15794Y7051
X-15794Y4511
X-15794Y1971
X-15794Y-569
X-15794Y-3109
X-15794Y-5649
X-15794Y-8189
X-15794Y-10729
X-15794Y-13269
X-13254Y19751
X-13254Y17211
X-13254Y14671
X-13254Y12131
X-13254Y9591
X-13254Y7051
X-13254Y4511
X-13254Y1971
X-13254Y-569
X-13254Y-3109
X-13254Y-5649
X-13254Y-8189
X-13254Y-10729
X-13254Y-13269
X37000Y-31000
X39500Y-31000
X42000Y-31000
X68737Y31288
X68737Y28748
X11000Y-31000
X13500Y-31000
X16000Y-31000
X-33802Y19751
X-33802Y17211
X-33802Y14671
X-33802Y12131
X-33802Y9591
X-33802Y7051
X-33802Y4511
X-33802Y1971
X-33802Y-569
X-33802Y-3109
X-33802Y-5649
X-33802Y-8189
X-33802Y-10729
X-33802Y-13269
X-31262Y19751
X-31262Y17211
X-31262Y14671
X-31262Y12131
X-31262Y9591
X-31262Y7051
X-31262Y4511
X-31262Y1971
X-31262Y-569
X-31262Y-3109
X-31262Y-5649
X-31262Y-8189
X-31262Y-10729
X-31262Y-13269
X-42500Y-31000
X-40000Y-31000
X-37500Y-31000
T10
X-38697Y-5649
X-38697Y-8189
X-38697Y-10729
X-38697Y-13269
X-38697Y-15809
X-38697Y-18349
X-6099Y1
X-3559Y1
X-1019Y1
X1519Y1
X4059Y1
X6599Y1
X9139Y1
X11679Y1
X14219Y1
X16759Y1
X19299Y1
X21839Y1
X24379Y1
X26919Y1
X29459Y1
X31999Y1
X-26086Y28174
X-26086Y25634
X-23546Y28174
X-23546Y25634
X-21006Y28174
X-21006Y25634
T11
X-10640Y38360
X-5560Y38360
X76098Y-14588
X76098Y-19668
X-53904Y38717
X-48824Y38717
X-74694Y24257
X-64534Y24257
X59113Y-38900
X64193Y-38900
X18479Y38377
X23559Y38377
X28639Y38377
X33719Y38377
X-66319Y38717
X-61239Y38717
X-34220Y38322
X-29140Y38322
X-24060Y38322
X-18980Y38322
X1339Y38364
X6419Y38364
X11499Y38364
X-78555Y38717
X-73475Y38717
X76063Y10215
X76063Y5135
X76071Y-2132
X76071Y-7212
X76096Y-26800
X76096Y-31880
T12
X-32499Y-22099
X-29959Y-22099
X-27419Y-22099
X-24879Y-22099
X-22339Y-22099
X-19799Y-22099
X-17259Y-22099
X-14719Y-22099
X-12179Y-22099
X-9639Y-22099
X-7099Y-22099
X-4559Y-22099
X-2019Y-22099
X521Y-22099
X3061Y-22099
X5601Y-22099
X8141Y-22099
X10681Y-22099
X13221Y-22099
X15761Y-22099
X-59634Y18468
X-59634Y10968
X-74684Y18461
X-74684Y10961
T13
X-43500Y41900
X-43500Y-22100
X43500Y41900
X43500Y-22100
T14
X-17900Y-38000
X-9100Y-38000
X35100Y-38000
X43900Y-38000
X9100Y-38000
X17900Y-38000
X-44400Y-38000
X-35600Y-38000
T15
X-37498Y30999
X-37498Y1
X37498Y30999
X37498Y1
T16
X74290Y-39890
X59470Y38100
X-52990Y-37900
T0
M30
